<svg width="180" height="185" viewBox="0 0 180 185" fill="none" xmlns="http://www.w3.org/2000/svg"><path d="M78.818 40.477c.94 0 1.826-.443 2.388-1.195a2.966 2.966 0 00.47-2.625A52.404 52.404 0 0070.85 16.925a16.617 16.617 0 00-15.753-4.81 2.977 2.977 0 00-1.72 1.716 7.436 7.436 0 00-.363 1.371 11.381 11.381 0 00-.15 1.678v.048a17.94 17.94 0 005.33 12.621A52.602 52.602 0 0077.96 40.346c.28.083.567.128.859.131zM62.42 25.337a12.294 12.294 0 01-2.73-4.15v-.029a12.61 12.61 0 01-.343-.979c-.05-.173-.087-.336-.131-.505-.045-.17-.084-.298-.114-.447-.03-.15-.036-.209-.056-.315a11.322 11.322 0 01-.182-1.345 12.333 12.333 0 017.786 3.57 40.41 40.41 0 017.069 11.279 40.52 40.52 0 01-11.314-7.079h.015z" fill="#242424"/><path d="M170.311 45.774h-46.018a41.763 41.763 0 005.584-4.56c10.664-10.674 11.013-26.857 4.201-33.656-6.813-6.798-23.025-6.455-33.733 4.198a58.364 58.364 0 00-10.527 16.121 58.282 58.282 0 00-10.535-16.13C68.587 1.108 52.371.758 45.557 7.557c-6.815 6.798-6.463 22.98 4.203 33.657a41.89 41.89 0 005.584 4.561H9.325a2.978 2.978 0 00-2.982 2.975v29.749a2.978 2.978 0 002.982 2.975h5.962v86.271c.01 8.21 6.678 14.864 14.906 14.874h119.248c8.229-.01 14.897-6.664 14.906-14.874V81.473h5.963a2.978 2.978 0 002.981-2.975V48.749a2.978 2.978 0 00-2.981-2.975zM104.564 15.96c8.568-8.524 21.065-8.425 25.301-4.198 4.236 4.227 4.338 16.692-4.204 25.245a49.916 49.916 0 01-13.228 8.767H94.619v-.193c0-.678-.051-1.365-.117-2.057a62.82 62.82 0 00-.077-.687 29.39 29.39 0 00-.254-1.707c-.033-.199-.066-.4-.101-.595a38.551 38.551 0 00-.477-2.175c-.024-.101-.051-.19-.075-.297-.158-.616-.321-1.19-.489-1.784l-.068-.252a56.689 56.689 0 0111.603-20.067zm-2.821 59.563h-23.85V51.724h23.85v23.799zM53.978 37.009c-8.543-8.552-8.443-21.017-4.205-25.247 4.236-4.23 16.727-4.329 25.292 4.19A57.111 57.111 0 0186.99 36.92c.336 1.044.595 2.046.84 3.02.068.279.125.549.184.823.162.727.292 1.42.39 2.083.031.225.073.458.1.677.094.742.145 1.49.152 2.239H67.203a49.972 49.972 0 01-13.225-8.754zM12.307 51.724H71.93v23.799H12.307V51.724zm8.943 116.02V81.473h56.643v95.196H30.194c-4.94 0-8.944-3.996-8.944-8.925zm62.606 8.925V81.473H95.78v95.196H83.856zm74.53-8.925c0 4.929-4.003 8.925-8.944 8.925h-47.699V81.473h56.643v86.271zm8.943-92.221h-59.624V51.724h59.624v23.799z" fill="#242424"/><path d="M100.81 40.486c.287 0 .572-.04.847-.122a52.41 52.41 0 0019.78-10.817 16.816 16.816 0 004.829-15.729 2.957 2.957 0 00-1.713-1.71 16.898 16.898 0 00-15.762 4.82 52.268 52.268 0 00-10.84 19.738 2.97 2.97 0 00.47 2.625 2.984 2.984 0 002.389 1.195zm12.197-19.351a12.376 12.376 0 017.792-3.57 12.315 12.315 0 01-3.577 7.778 40.294 40.294 0 01-11.329 7.093 40.156 40.156 0 017.114-11.301z" fill="#242424"/></svg>