<svg width="90" height="90" viewBox="0 0 90 90" fill="none" xmlns="http://www.w3.org/2000/svg"><g clip-path="url(#clip0)"><path d="M89.414 22.061L71.276 8.108a10.464 10.464 0 00-3.517-1.772l-8.474-2.421-2.724-2.725a1.496 1.496 0 00-1.893-.188A19.233 19.233 0 0145 3.75a19.45 19.45 0 01-9.668-2.748 1.498 1.498 0 00-1.893.188l-2.724 2.725-8.474 2.421a10.463 10.463 0 00-3.517 1.772L.586 22.061a1.5 1.5 0 00-.334 2.021l12 18c.233.35.602.587 1.018.65.415.064.838-.048 1.168-.31l5.062-4.05v49.379a1.5 1.5 0 001.5 1.5h48a1.5 1.5 0 001.5-1.5V38.372l5.063 4.05a1.501 1.501 0 002.185-.34l12-18a1.501 1.501 0 00-.334-2.021zM67.5 86.251h-45v-3h45v3zm8.66-47.193l-2.867-2.294 7.455-11.181a1.5 1.5 0 00-2.496-1.664l-7.31 10.963-1.004-.803A1.5 1.5 0 0067.5 35.25v45h-45v-45a1.5 1.5 0 00-2.438-1.172l-1.004.803-7.31-10.963a1.5 1.5 0 00-2.496 1.664l7.455 11.18-2.867 2.295L3.526 23.584l17.026-13.097a7.467 7.467 0 012.512-1.265l8.848-2.528a1.5 1.5 0 00.649-.383l2.184-2.184A22.38 22.38 0 0045 6.751a22.38 22.38 0 0010.256-2.624l2.184 2.184c.18.18.403.312.649.383l8.847 2.528c.91.259 1.763.688 2.513 1.266l17.026 13.097L76.16 39.058z" fill="#fff"/></g><defs><clipPath id="clip0"><path fill="#fff" d="M0 0h90v90H0z"/></clipPath></defs></svg>