<svg width="90" height="90" viewBox="0 0 90 90" fill="none" xmlns="http://www.w3.org/2000/svg"><path d="M1.662 52.58c-.01-.063-.014-15.38-.014-15.38 0-1.113.434-2.16 1.222-2.948l5.755-5.756a3.235 3.235 0 012.303-.953h2.44c1.303 0 2.477.773 2.992 1.97l1.896 4.406a2.784 2.784 0 002.56 1.686h1.756a2.79 2.79 0 002.787-2.787V30.63c0-1.248.506-2.468 1.39-3.35l2.685-2.679a4.037 4.037 0 014.814-.658l.7.393.603-.63a1.33 1.33 0 011.92 1.838l-.131.137 2.598 1.462.629-.657a1.33 1.33 0 111.92 1.839l-.157.163 2.634 1.482.625-.652a1.33 1.33 0 011.92 1.838l-.152.16 2.591 1.457.44-.458a1.33 1.33 0 011.95 1.803l22.87 12.863 9.475 1.168A6.066 6.066 0 0190 54.162v1.62a3.37 3.37 0 01-2.035 3.095l-17.886 7.718a1.329 1.329 0 01-.527.11H5.758A5.764 5.764 0 010 60.946v-3.529c0-1.776.584-3.462 1.662-4.839zm20.91-14.316h-1.757a5.44 5.44 0 01-5.002-3.294l-1.895-4.407a.597.597 0 00-.55-.362h-2.44c-.16 0-.31.062-.423.175l-5.756 5.756a1.502 1.502 0 00-.443 1.069v2.642h1.509a1.33 1.33 0 110 2.659H4.306v7.903a7.904 7.904 0 014.67-.779l2.405.341v-1.963c0-.353.14-.69.39-.94l1.734-1.735a.75.75 0 00.221-.534v-1.538a.756.756 0 00-.755-.755H11.48a1.33 1.33 0 110-2.659h1.492a3.418 3.418 0 013.414 3.414v1.538c0 .912-.355 1.769-1 2.414l-1.346 1.345v1.79l13.105 1.86 2.288-4.144a1.33 1.33 0 012.327 1.285l-1.8 3.26 4.72.67 6.227-11.281-3.922-2.115-2.487 4.506A1.329 1.329 0 1132.17 43.1l2.474-4.482-7.016-3.782a5.451 5.451 0 01-5.056 3.428zM42.265 54.35l4.837-9.018-3.855-2.078-5.751 10.419 4.769.677zm-9.68 1.311l-3.765-.534v3.703h3.355a.412.412 0 00.41-.411v-2.758zm-6.423-.912l-3.095-.439v4.52h3.095v-4.08zm-5.754-.816l-3.095-.44v5.337h3.095v-4.897zm-5.753-.817l-4.22-.599v5.902c0 .227.185.411.412.411h3.808v-5.714zm30.634-19.641a1.326 1.326 0 01-1.88.04 1.329 1.329 0 01-.28-1.528l-2.697-1.517-.165.173a1.325 1.325 0 01-1.88.04 1.33 1.33 0 01-.284-1.523l-2.662-1.497-.19.2c-.261.272-.61.409-.96.409a1.33 1.33 0 01-1.189-1.925l-.157-.088a1.37 1.37 0 00-1.633.223l-2.686 2.68c-.387.386-.61.92-.61 1.467v1.395l20.55 11.077 5.405-5.015-3.528-1.985-.355.37a1.325 1.325 0 01-1.88.041 1.329 1.329 0 01-.147-1.751l-2.602-1.464-.17.178zm39.068 17.311l-9.735-1.199a1.332 1.332 0 01-.489-.16L62.938 43.13l-1.218 1.13a1.326 1.326 0 01-1.879-.07 1.33 1.33 0 01.07-1.879l.593-.55-4.1-2.306-6.088 5.65c-.099.092-.18.198-.244.316l-5.004 9.328 5.174.735 4.2-7.828c.19-.355.436-.674.73-.947l.394-.365a1.33 1.33 0 111.809 1.948l-.394.366a.976.976 0 00-.197.254l-3.739 6.97 16.235 2.304 18.027-4.507a3.405 3.405 0 00-2.95-2.892zM2.66 60.947a3.103 3.103 0 003.099 3.099h63.52l17.176-7.413-16.78 4.195c-.167.042-.34.05-.51.027l-33.92-4.816v2.38a3.073 3.073 0 01-3.07 3.07H10.848a3.073 3.073 0 01-3.07-3.07v-6.21a5.241 5.241 0 00-3.592 1.523 5.178 5.178 0 00-1.526 3.686v3.528z" fill="#fff"/></svg>