<svg width="90" height="90" viewBox="0 0 90 90" fill="none" xmlns="http://www.w3.org/2000/svg"><path d="M7.031 73.125H82.97a4.224 4.224 0 004.219-4.147c.039-2.36-1.955-4.29-4.315-4.29H64.908l10.834-12.805a29.178 29.178 0 002.337-3.18c.074-.09 1.622-2.818 2.19-4.144l1.278-2.982a11.334 11.334 0 00.575-7.174l-1.386-5.54 1.789.596a1.406 1.406 0 001.439-.34l1.406-1.405a1.405 1.405 0 00.411-.995V22.5a1.407 1.407 0 00-.777-1.258l-2.609-1.304-3.22-3.221a4.26 4.26 0 00-3.014-1.248h-.18a4.251 4.251 0 00-3.17 1.417 5.93 5.93 0 00-3.368 1.257 5.857 5.857 0 00-1.88 2.701l-1.397 4.024a1.41 1.41 0 00.028.967l1.306 3.264v3.245a1.406 1.406 0 001.406 1.406h2.813v1.593l-1.372.196-5.119.731a5.544 5.544 0 00-4.76 5.488v5.665l-3.09 5.153L43.55 38.748a7.463 7.463 0 00-11.35.94L20.1 56.629l-3.802 2.535-5.389 1.347a1.406 1.406 0 00-1.065 1.364v2.813H7.127c-2.36 0-4.354 1.93-4.314 4.29a4.224 4.224 0 004.218 4.147zM71.72 20.018v1.9l-1.05-1.05a3.114 3.114 0 011.05-.85zm-1.406 10.92v-2.11c0-.179-.035-.356-.101-.522l-1.215-3.037.524-1.572 2.197 2.197v5.044h-1.406zm.514 10.77l.85-3.398.008-.033.02-.091 1.619-.231a1.407 1.407 0 001.207-1.392V19.73a1.451 1.451 0 011.45-1.45h.18a1.44 1.44 0 011.025.424l3.382 3.383c.107.107.23.196.366.264l2.035 1.017v2.767l-.38.38-.808-.269-2.66-2.612a1.406 1.406 0 00-2.334 1.402l2.605 10.049a8.506 8.506 0 01-.431 5.384l-1.278 2.981a26.391 26.391 0 01-1.494 2.955h-1.695a3.78 3.78 0 01-3.667-4.697zm-7.746 6.828c.13-.219.2-.469.2-.724v-6.054a2.731 2.731 0 012.345-2.704l3.076-.44-.603 2.413a6.59 6.59 0 006.185 8.185c-.224.29-.453.576-.689.854L62.764 62.867l-.254-1.52a13.728 13.728 0 00-3.106-6.683l3.677-6.128zM34.49 41.322a4.65 4.65 0 017.072-.585l15.1 15.101a10.943 10.943 0 013.074 5.973l.48 2.877h-7.48L39.138 45.626a1.407 1.407 0 00-2.376.057l-4.13 6.883-7.32 7.32-2.383-2.382 11.56-16.182zm14.73 23.365H25.857l.685-2.052 8.202-8.203a1.42 1.42 0 00.211-.271l3.076-5.126 11.188 15.653zm-36.563-1.714l4.56-1.14c.157-.039.305-.105.44-.194l3.259-2.173 2.789 2.789-.811 2.432H12.656v-1.714zM7.031 67.5H82.97a1.406 1.406 0 010 2.813H7.03a1.406 1.406 0 010-2.813z" fill="#fff"/><path d="M76.276 57.913l-1.406 1.64a1.405 1.405 0 102.135 1.83l1.407-1.64a1.408 1.408 0 00-1.176-2.317 1.406 1.406 0 00-.96.487zm7.031-8.203l-4.218 4.922a1.406 1.406 0 102.135 1.83l4.219-4.922a1.406 1.406 0 10-2.136-1.83z" fill="#fff"/></svg>