<svg width="180" height="185" viewBox="0 0 180 185" fill="none" xmlns="http://www.w3.org/2000/svg">
<path d="M78.8176 40.4773C79.7579 40.4773 80.6444 40.0342 81.2063 39.2818C81.7696 38.5294 81.9443 37.5576 81.6765 36.657C79.5396 29.3752 75.8465 22.6425 70.8492 16.9252C66.8229 12.6503 60.8299 10.82 55.096 12.1143C54.3041 12.4164 53.6797 13.041 53.3769 13.8312C53.2124 14.2757 53.0901 14.7347 53.013 15.2024C52.9213 15.7573 52.8718 16.318 52.863 16.8802V16.9281C52.8994 21.6722 54.8151 26.2101 58.1937 29.5495C63.9232 34.5319 70.6658 38.2156 77.9587 40.3465C78.2382 40.4293 78.5264 40.4743 78.8176 40.4773ZM62.4209 25.3371C61.2375 24.1547 60.3088 22.7413 59.6901 21.1871V21.158C59.5591 20.8283 59.4456 20.4971 59.348 20.179C59.2971 20.0061 59.2607 19.8434 59.217 19.6735C59.1719 19.5035 59.1326 19.3757 59.1035 19.2275C59.0729 19.0779 59.0671 19.0184 59.0467 18.9123C58.9594 18.4678 58.8982 18.019 58.8647 17.5672C61.8052 17.7895 64.5666 19.0561 66.6511 21.1377C69.6148 24.4815 72.0036 28.2916 73.7198 32.4155C69.5828 30.6971 65.7588 28.3047 62.4064 25.3371H62.4209Z" fill="#242424"/>
<path d="M170.311 45.7742H124.293C126.282 44.4175 128.152 42.8909 129.877 41.2131C140.541 30.5396 140.89 14.3565 134.078 7.55842C127.265 0.760365 111.053 1.10317 100.345 11.7564C95.9668 16.5121 92.4091 21.9592 89.818 27.877C87.227 21.9549 83.6664 16.5048 79.2834 11.7476C68.5872 1.10608 52.371 0.757461 45.5571 7.55551C38.7416 14.3536 39.0939 30.5367 49.7596 41.2131C51.486 42.8909 53.3551 44.4175 55.3435 45.7742H9.32553C7.67918 45.7742 6.34433 47.1062 6.34433 48.7491V78.4978C6.34433 80.1407 7.67918 81.4727 9.32553 81.4727H15.2879V167.744C15.2981 175.954 21.9665 182.608 30.194 182.618H149.442C157.671 182.608 164.339 175.954 164.348 167.744V81.4727H170.311C171.957 81.4727 173.292 80.1407 173.292 78.4978V48.7491C173.292 47.1062 171.957 45.7742 170.311 45.7742ZM104.564 15.9601C113.132 7.4364 125.629 7.53518 129.865 11.7622C134.101 15.9892 134.203 28.4537 125.661 37.0065C121.75 40.6147 117.284 43.5736 112.433 45.7742H94.6188C94.6188 45.7118 94.6188 45.6435 94.6188 45.581C94.6188 44.9027 94.5679 44.2156 94.5024 43.5242C94.4776 43.2961 94.4514 43.0695 94.4252 42.8371C94.3568 42.2662 94.2724 41.6968 94.1705 41.1303C94.1385 40.9313 94.105 40.7309 94.07 40.5348C93.9274 39.794 93.7716 39.0648 93.5926 38.3603C93.5693 38.2586 93.5416 38.17 93.5183 38.0625C93.3597 37.4466 93.1967 36.8728 93.0293 36.2787C93.006 36.1974 92.9841 36.1088 92.9608 36.0274C95.4034 28.6135 99.3541 21.7806 104.564 15.9601ZM101.743 75.523H77.8932V51.724H101.743V75.523ZM53.9781 37.0094C45.4348 28.4566 45.5352 15.9921 49.7727 11.7622C54.0087 7.53227 66.4997 7.4335 75.0649 15.9514C80.4887 22.0144 84.5544 29.164 86.9897 36.9208C87.3259 37.9652 87.5851 38.9674 87.8296 39.9407C87.898 40.2196 87.9548 40.4897 88.0145 40.7643C88.1761 41.4906 88.3056 42.1835 88.4031 42.8473C88.4352 43.0724 88.4774 43.3048 88.5036 43.5242C88.5982 44.2664 88.6491 45.0145 88.6564 45.7626H67.2028C62.3554 43.5663 57.8909 40.6118 53.9781 37.0094ZM12.3067 51.724H71.9308V75.523H12.3067V51.724ZM21.2503 167.744V81.4727H77.8932V176.669H30.194C25.2549 176.669 21.2503 172.673 21.2503 167.744ZM83.8556 176.669V81.4727H95.7805V176.669H83.8556ZM158.386 167.744C158.386 172.673 154.383 176.669 149.442 176.669H101.743V81.4727H158.386V167.744ZM167.329 75.523H107.705V51.724H167.329V75.523Z" fill="#242424"/>
<path d="M100.81 40.486C101.097 40.486 101.382 40.4454 101.657 40.364C108.959 38.2345 115.709 34.5435 121.437 29.5467C125.678 25.4984 127.507 19.5428 126.266 13.8182C125.967 13.0309 125.342 12.4092 124.553 12.1085C118.816 10.8709 112.848 12.6954 108.791 16.9282C103.785 22.644 100.086 29.3796 97.9508 36.6658C97.6845 37.5664 97.8577 38.5396 98.421 39.2906C98.9844 40.043 99.8694 40.486 100.81 40.486ZM113.007 21.1348C115.094 19.0547 117.859 17.7895 120.799 17.5644C120.576 20.5 119.307 23.2599 117.222 25.3429C113.869 28.3207 110.039 30.7175 105.893 32.4359C107.616 28.2989 110.021 24.4801 113.007 21.1348Z" fill="#242424"/>
</svg>
