<svg width="90" height="90" viewBox="0 0 90 90" fill="none" xmlns="http://www.w3.org/2000/svg">
<g clip-path="url(#clip0)">
<path d="M89.4141 22.061L71.2764 8.10837C70.2268 7.3003 69.0333 6.69878 67.7594 6.33596L59.2853 3.91457L56.5607 1.18996C56.0558 0.683002 55.2627 0.604428 54.6681 1.0024C51.7459 2.75916 48.4094 3.7075 45.0001 3.75039C41.5924 3.6973 38.2583 2.74967 35.3321 1.0024C34.7374 0.605131 33.9448 0.683705 33.4394 1.18996L30.7148 3.91457L22.2408 6.33596C20.9667 6.69878 19.7733 7.3003 18.7237 8.10837L0.585874 22.061C-0.0397324 22.5421 -0.185807 23.4258 0.251889 24.0825L12.252 42.0826C12.4849 42.4327 12.8544 42.6688 13.2701 42.7329C13.6855 42.7961 14.1084 42.6836 14.4376 42.4225L19.5001 38.3722V87.7506C19.5 88.1486 19.6578 88.5302 19.9392 88.8115C20.2207 89.0927 20.6023 89.2507 21.0001 89.2506H69.0002C69.3982 89.2507 69.7798 89.0929 70.0611 88.8115C70.3425 88.53 70.5003 88.1484 70.5002 87.7506V38.3722L75.5627 42.4225C75.8912 42.685 76.3147 42.7976 76.7302 42.7331C77.1458 42.6684 77.5149 42.4325 77.7483 42.0827L89.7484 24.0827C90.1858 23.4258 90.0397 22.5421 89.4141 22.061ZM67.5001 86.2507H45.0001H22.5V83.2506H67.5001V86.2507ZM76.1602 39.0577L73.2932 36.7636L80.7482 25.5826C81.203 24.8936 81.0152 23.9665 80.3283 23.5084C79.6413 23.0505 78.7134 23.2337 78.2521 23.9185L70.9421 34.8824L69.9377 34.0787C69.4873 33.7185 68.8701 33.6482 68.3504 33.8982C67.8306 34.1481 67.4999 34.6739 67.5001 35.2506V80.2507H22.5V35.2506C22.5 34.6739 22.1696 34.1481 21.6498 33.8983C21.13 33.6484 20.513 33.7185 20.0625 34.0789L19.0581 34.8825L11.748 23.9187C11.285 23.2386 10.3606 23.0584 9.67607 23.5147C8.99157 23.9711 8.80225 24.8938 9.25208 25.5826L16.7072 36.7636L13.84 39.0577L3.526 23.5845L20.552 10.4874C21.3017 9.91013 22.1543 9.48069 23.0643 9.22177L31.9119 6.6935C32.1571 6.62336 32.3805 6.4917 32.5607 6.31118L34.7448 4.12709C37.9043 5.80914 41.4212 6.70879 45.0002 6.75063C48.5793 6.70879 52.0962 5.80914 55.2557 4.12709L57.4398 6.31118C57.6201 6.4917 57.8434 6.62336 58.0888 6.6935L66.9364 9.22194C67.8464 9.48087 68.6989 9.91031 69.4486 10.4876L86.4745 23.5847L76.1602 39.0577Z" fill="white"/>
</g>
<defs>
<clipPath id="clip0">
<rect width="90" height="90" fill="white"/>
</clipPath>
</defs>
</svg>
