<svg width="90" height="90" viewBox="0 0 90 90" fill="none" xmlns="http://www.w3.org/2000/svg">
<path d="M1.66194 52.5792C1.6529 52.5168 1.64829 37.2008 1.64829 37.2008C1.64829 36.0867 2.08216 35.0395 2.86979 34.2518L8.62527 28.4965C9.24027 27.8814 10.0582 27.5425 10.9282 27.5425H13.3686C14.6711 27.5425 15.8454 28.3156 16.3605 29.5124L18.2558 33.9194C18.6962 34.9432 19.701 35.6048 20.8154 35.6048H22.5723C24.1086 35.6048 25.3586 34.3548 25.3586 32.8184V30.6299C25.3586 29.3824 25.8652 28.1616 26.7485 27.2804L29.4343 24.6013C30.7045 23.3339 32.684 23.0631 34.2483 23.9429L34.9473 24.336L35.551 23.7056C36.0582 23.1755 36.8997 23.157 37.4304 23.6648C37.9606 24.1724 37.9791 25.0139 37.4711 25.5442L37.3396 25.6815L39.938 27.143L40.5667 26.4864C41.0739 25.9561 41.9154 25.9376 42.4461 26.4454C42.9764 26.9532 42.9948 27.7945 42.4868 28.3248L42.3302 28.4884L44.9644 29.9701L45.5891 29.3177C46.0971 28.7874 46.9382 28.7693 47.4685 29.2769C47.9988 29.7847 48.0171 30.626 47.5093 31.1563L47.3567 31.3158L49.9484 32.7735L50.3876 32.3149C50.8955 31.7846 51.7367 31.7665 52.2669 32.2741C52.7857 32.7709 52.813 33.5863 52.3385 34.118L75.2075 46.9815L84.6825 48.1486C87.714 48.5222 90 51.1071 90 54.1616V55.7813C90 57.1281 89.201 58.3432 87.9645 58.8769L70.0789 66.5954C69.9127 66.6672 69.7333 66.7042 69.5522 66.7042H5.75764C2.58285 66.7042 2.28882e-05 64.1214 2.28882e-05 60.9466V57.4184C2.28882e-05 55.6424 0.584358 53.9562 1.66194 52.5792ZM22.5721 38.2635H20.8152C18.6374 38.2635 16.674 36.9708 15.8133 34.97L13.918 30.5633C13.8234 30.3431 13.6077 30.2012 13.3682 30.2012H10.9279C10.7682 30.2012 10.6179 30.2634 10.5048 30.3765L4.74918 36.1319C4.46365 36.4175 4.30644 36.7971 4.30644 37.201V39.8432H5.81452C6.54881 39.8432 7.14378 40.4384 7.14378 41.1725C7.14378 41.9066 6.54881 42.5017 5.81452 42.5017H4.30644V50.4049C5.73211 49.6831 7.36674 49.3975 8.97673 49.626L11.3811 49.9673V48.0038C11.3811 47.6512 11.5211 47.3131 11.7705 47.0637L13.5052 45.3291C13.6479 45.1865 13.7264 44.9968 13.7264 44.7951V43.2566C13.7264 42.8402 13.3877 42.5015 12.9712 42.5015H11.4793C10.745 42.5015 10.15 41.9064 10.15 41.1723C10.15 40.4382 10.745 39.843 11.4793 39.843H12.9712C14.8534 39.843 16.3849 41.3743 16.3849 43.2566V44.7951C16.3849 45.7068 16.0299 46.5639 15.385 47.209L14.0394 48.5544V50.3445L27.1437 52.2047L29.4316 48.0601C29.7868 47.4175 30.595 47.1841 31.2378 47.5389C31.8805 47.8937 32.1137 48.7022 31.7591 49.3449L29.9596 52.6044L34.6792 53.2743L40.9063 41.9936L36.9841 39.8792L34.4971 44.3845C34.2547 44.8237 33.8004 45.0716 33.3322 45.0716C33.1149 45.0716 32.8946 45.0183 32.691 44.9057C32.0483 44.5511 31.8151 43.7424 32.1697 43.0997L34.6439 38.6176L27.6276 34.8355C26.8247 36.8419 24.862 38.2635 22.5721 38.2635ZM42.2648 54.351L47.1025 45.3332L43.2473 43.2551L37.4959 53.674L42.2648 54.351ZM32.5857 55.6622L28.8203 55.1277V58.831H32.1745C32.4012 58.831 32.5857 58.6465 32.5857 58.4198V55.6622ZM26.1618 54.7503L23.0668 54.311V58.8311H26.1618V54.7503ZM20.4083 53.9336L17.3134 53.4943V58.8311H20.4083V53.9336ZM14.6549 53.117L10.4359 52.5181V58.4201C10.4359 58.6468 10.6202 58.8313 10.8469 58.8313H14.6548V53.117H14.6549ZM45.2891 33.4756C45.0278 33.7483 44.6787 33.8855 44.3288 33.8855C43.9985 33.8855 43.6674 33.763 43.4097 33.5163C42.9856 33.1103 42.8899 32.4909 43.1281 31.9879L40.432 30.4713L40.2666 30.6439C40.0056 30.9167 39.6564 31.0538 39.3064 31.0538C38.976 31.0538 38.6449 30.9314 38.3872 30.6847C37.9645 30.2799 37.8683 29.6634 38.1033 29.1613L35.4413 27.6641L35.2507 27.8631C34.9897 28.1359 34.6405 28.273 34.2905 28.273C33.9601 28.273 33.6291 28.1506 33.3714 27.9039C32.9396 27.4906 32.8473 26.8561 33.102 26.3483L32.9449 26.26C32.4141 25.9616 31.7426 26.0534 31.3117 26.4835L28.6259 29.1626C28.2388 29.5486 28.0169 30.0835 28.0169 30.6301V32.0249L48.5665 43.102L53.971 38.0865L50.4427 36.1018L50.0879 36.4724C49.8266 36.7452 49.4775 36.8823 49.1276 36.8823C48.7971 36.8823 48.4662 36.7599 48.2085 36.5132C47.7191 36.0446 47.6668 35.292 48.0608 34.7619L45.4587 33.2983L45.2891 33.4756ZM84.3574 50.7874L74.6221 49.5881C74.4502 49.5668 74.284 49.5122 74.133 49.4273L62.9375 43.1302L61.7202 44.2597C61.4643 44.4972 61.14 44.6145 60.8163 44.6145C60.4594 44.6145 60.1035 44.4717 59.8416 44.1895C59.3423 43.6514 59.3737 42.8103 59.9117 42.311L60.5039 41.7614L56.4039 39.4554L50.316 45.1053C50.2174 45.1966 50.1354 45.3029 50.0721 45.4211L45.0679 54.7491L50.2422 55.4836L54.4416 47.6557C54.632 47.301 54.878 46.9824 55.1727 46.7089L55.5662 46.3436C56.1042 45.8442 56.9454 45.8755 57.4446 46.4136C57.9441 46.9517 57.9127 47.7929 57.3746 48.2921L56.981 48.6576C56.9016 48.7313 56.8355 48.8169 56.7843 48.9124L53.0455 55.8816L69.2803 58.1862L87.3073 53.6795C87.0932 52.1822 85.8965 50.9769 84.3574 50.7874ZM2.65853 60.9464C2.65853 62.6553 4.04893 64.0455 5.75764 64.0455H69.2777L86.4543 56.6329L69.6734 60.828C69.507 60.8697 69.334 60.8784 69.1642 60.8546L35.2444 56.0395V58.4198C35.2444 60.1124 33.8673 61.4895 32.1747 61.4895H10.8473C9.15467 61.4895 7.77774 60.1124 7.77774 58.4198V52.2092C6.44157 52.2354 5.14157 52.7763 4.18539 53.7323C3.20086 54.7168 2.6587 56.0257 2.6587 57.4179V60.9464H2.65853Z" fill="white"/>
</svg>
