<svg width="90" height="90" viewBox="0 0 90 90" fill="none" xmlns="http://www.w3.org/2000/svg">
<path d="M7.03125 73.125H82.9688C84.0748 73.1239 85.1363 72.6889 85.9252 71.9135C86.714 71.1382 87.1672 70.0844 87.1875 68.9785C87.2267 66.6188 85.233 64.6875 82.8728 64.6875H64.9079L75.7422 51.8832C76.592 50.8772 77.3726 49.8147 78.0789 48.7032C78.1534 48.6123 79.7006 45.8847 80.2691 44.559L81.5467 41.5774C82.5126 39.312 82.7144 36.7936 82.1215 34.4034L80.7363 28.8633L82.5247 29.4594C82.7725 29.542 83.0383 29.554 83.2925 29.494C83.5467 29.434 83.7792 29.3044 83.9638 29.1197L85.3701 27.7135C85.5006 27.5828 85.6041 27.4277 85.6746 27.257C85.7452 27.0863 85.7814 26.9034 85.7813 26.7188V22.5C85.7813 22.2388 85.7086 21.9828 85.5713 21.7606C85.434 21.5385 85.2375 21.3589 85.0039 21.2421L82.3955 19.938L79.1743 16.7168C78.7787 16.3211 78.3089 16.0072 77.7919 15.7931C77.275 15.579 76.7209 15.4687 76.1613 15.4688H75.9809C75.3825 15.4686 74.7909 15.5948 74.2446 15.839C73.6983 16.0832 73.2097 16.4399 72.8107 16.8859C71.5853 16.9465 70.4088 17.3858 69.4434 18.1431C68.5712 18.8453 67.9184 19.7827 67.5626 20.8445L66.1658 24.8678C66.0607 25.1833 66.0708 25.5258 66.1943 25.8346L67.5 29.099V32.3438C67.5 32.7167 67.6482 33.0744 67.9119 33.3381C68.1756 33.6018 68.5333 33.75 68.9063 33.75H71.7188V35.3429L70.3468 35.5389L65.2284 36.27C63.9074 36.4587 62.6987 37.1176 61.8244 38.1257C60.9501 39.1338 60.4688 40.4235 60.4688 41.7579V47.423L57.3771 52.5762L43.5495 38.7485C42.7831 37.9822 41.8591 37.3919 40.8416 37.0189C39.8241 36.6458 38.7375 36.4989 37.6574 36.5882C36.5774 36.6776 35.5297 37.0012 34.5874 37.5365C33.645 38.0717 32.8306 38.8058 32.2007 39.6877L20.0992 56.6295L16.2977 59.1636L10.909 60.5108C10.6047 60.5868 10.3346 60.7624 10.1416 61.0096C9.9486 61.2568 9.84376 61.5614 9.84375 61.875V64.6875H7.12723C4.76701 64.6875 2.7733 66.6188 2.8125 68.9785C2.83275 70.0844 3.28599 71.1382 4.07483 71.9135C4.86368 72.6889 5.92517 73.1239 7.03125 73.125ZM71.7188 20.018V21.9175L70.6685 20.8672C70.9523 20.5107 71.3108 20.2208 71.7188 20.018ZM70.3125 30.9375V28.8281C70.3125 28.6492 70.2784 28.472 70.212 28.3059L68.9971 25.2686L69.5208 23.6971L71.718 25.8943V30.9375H70.3125ZM70.827 41.7088L71.6767 38.3098L71.6847 38.2771L71.705 38.1858L73.324 37.9545C73.659 37.9066 73.9656 37.7395 74.1874 37.4838C74.4091 37.2281 74.5312 36.901 74.5313 36.5625V19.7309C74.5317 19.3466 74.6845 18.9781 74.9563 18.7063C75.2281 18.4345 75.5966 18.2817 75.9809 18.2812H76.1613C76.3516 18.2807 76.5401 18.3179 76.7159 18.3907C76.8917 18.4635 77.0514 18.5705 77.1856 18.7054L80.5681 22.0881C80.6749 22.1951 80.7983 22.2842 80.9336 22.3518L82.9688 23.3691V26.1362L82.5891 26.5161L81.7815 26.247L79.1205 23.6352C78.8982 23.417 78.6097 23.2789 78.3004 23.2424C77.9911 23.2059 77.6784 23.2732 77.4114 23.4336C77.1444 23.594 76.9382 23.8386 76.8252 24.1288C76.7122 24.4191 76.6988 24.7387 76.7871 25.0374L79.3921 35.0858C79.837 36.8796 79.6855 38.7695 78.9606 40.4696L77.683 43.451C77.2473 44.4664 76.7483 45.4534 76.1889 46.4062H74.4943C73.9198 46.4063 73.3528 46.2754 72.8365 46.0235C72.3201 45.7715 71.868 45.4052 71.5144 44.9524C71.1608 44.4996 70.9151 43.9721 70.796 43.41C70.6768 42.848 70.6873 42.2662 70.8267 41.7088H70.827ZM63.0809 48.536C63.2119 48.3174 63.2812 48.0674 63.2813 47.8125V41.7579C63.2814 41.1005 63.5186 40.4653 63.9493 39.9687C64.38 39.4721 64.9753 39.1474 65.626 39.0542L68.7022 38.6147L68.0992 41.0265C67.8603 41.9811 67.8382 42.977 68.0345 43.9413C68.2309 44.9055 68.6407 45.8136 69.234 46.5987C69.8272 47.3838 70.5888 48.026 71.4628 48.4783C72.3367 48.9305 73.3009 49.1813 74.2845 49.2121C74.0596 49.5016 73.8309 49.7876 73.595 50.0662L62.7638 62.8671L62.5097 61.3477C62.1028 58.8784 61.0287 56.5673 59.4035 54.6643L63.0809 48.536ZM34.4892 41.3221C34.8817 40.7726 35.3891 40.3152 35.9763 39.9816C36.5635 39.6481 37.2163 39.4465 37.8893 39.3908C38.5623 39.3351 39.2394 39.4267 39.8734 39.6592C40.5074 39.8916 41.0832 40.2594 41.5607 40.737L56.6619 55.8381C58.2872 57.4576 59.3624 59.5469 59.7354 61.8108L60.2151 64.6875H52.7344L39.1388 45.6261C39.0072 45.4288 38.8278 45.268 38.6174 45.1586C38.407 45.0492 38.1723 44.9948 37.9352 45.0004C37.6981 45.0061 37.4663 45.0716 37.2614 45.1909C37.0564 45.3102 36.8849 45.4794 36.7629 45.6827L32.6331 52.5656L25.3125 59.8862L22.9305 57.5042L34.4892 41.3221ZM49.2188 64.6875H25.8574L26.5417 62.6346L34.7444 54.4319C34.8254 54.3505 34.8963 54.2595 34.9553 54.161L38.0306 49.0352L49.2188 64.6875ZM12.6563 62.9729L17.216 61.833C17.3726 61.794 17.5212 61.7283 17.6555 61.6388L20.9148 59.4657L23.7039 62.2549L22.8927 64.6875H12.6563V62.9729ZM7.03125 67.5H82.9688C83.3417 67.5 83.6994 67.6482 83.9631 67.9119C84.2268 68.1756 84.375 68.5333 84.375 68.9062C84.375 69.2792 84.2268 69.6369 83.9631 69.9006C83.6994 70.1643 83.3417 70.3125 82.9688 70.3125H7.03125C6.65829 70.3125 6.30061 70.1643 6.03688 69.9006C5.77316 69.6369 5.625 69.2792 5.625 68.9062C5.625 68.5333 5.77316 68.1756 6.03688 67.9119C6.30061 67.6482 6.65829 67.5 7.03125 67.5Z" fill="white"/>
<path d="M76.2761 57.9128L74.8698 59.5536C74.7479 59.6935 74.6549 59.8562 74.5962 60.0323C74.5374 60.2084 74.5142 60.3944 74.5277 60.5795C74.5412 60.7646 74.5912 60.9452 74.6748 61.1109C74.7585 61.2766 74.8741 61.4241 75.015 61.5449C75.156 61.6657 75.3194 61.7574 75.496 61.8147C75.6725 61.872 75.8587 61.8938 76.0437 61.8789C76.2287 61.8639 76.4089 61.8124 76.5739 61.7275C76.739 61.6425 76.8855 61.5257 77.0052 61.3838L78.4115 59.7432C78.5316 59.603 78.623 59.4405 78.6804 59.265C78.7378 59.0894 78.76 58.9043 78.7459 58.7202C78.7317 58.5361 78.6814 58.3565 78.5979 58.1918C78.5143 58.0271 78.3992 57.8805 78.259 57.7603C78.1188 57.6401 77.9562 57.5487 77.7807 57.4914C77.6052 57.434 77.4201 57.4117 77.2359 57.4259C77.0518 57.4401 76.8723 57.4903 76.7076 57.5739C76.5429 57.6574 76.3962 57.7726 76.2761 57.9128Z" fill="white"/>
<path d="M83.3073 49.7098L79.0886 54.6316C78.8458 54.9148 78.7255 55.2828 78.7541 55.6547C78.7827 56.0266 78.9578 56.3719 79.241 56.6146C79.5241 56.8574 79.8921 56.9777 80.264 56.9491C80.6359 56.9205 80.9812 56.7454 81.2239 56.4622L85.4427 51.5404C85.6855 51.2572 85.8058 50.8892 85.7772 50.5173C85.7486 50.1454 85.5735 49.8001 85.2903 49.5574C85.0071 49.3146 84.6391 49.1943 84.2672 49.2229C83.8954 49.2515 83.5501 49.4266 83.3073 49.7098Z" fill="white"/>
</svg>
