<svg width="25" height="25" viewBox="0 0 25 25" fill="none" xmlns="http://www.w3.org/2000/svg"><path d="M7.505 16.46H21.28a2.842 2.842 0 002.836-2.836V7.768c0-.01 0-.02-.005-.03 0-.011-.005-.026-.005-.037 0-.01-.005-.02-.005-.03-.005-.01-.005-.021-.01-.037-.006-.01-.006-.02-.01-.03-.006-.01-.006-.02-.01-.031a.25.25 0 01-.016-.036c-.006-.01-.01-.02-.016-.026l-.015-.03-.016-.026c-.005-.01-.015-.02-.02-.031a.089.089 0 00-.02-.026c-.006-.01-.016-.015-.021-.026-.005-.01-.016-.015-.02-.025-.006-.01-.016-.016-.021-.02L23.88 7.3c-.01-.006-.015-.016-.026-.021-.01-.005-.02-.015-.03-.02l-.026-.016a.124.124 0 01-.031-.02l-.03-.016-.032-.015-.03-.016c-.01-.005-.021-.005-.031-.01a.095.095 0 00-.036-.01c-.01 0-.02-.005-.026-.005-.015-.006-.026-.006-.041-.006-.005 0-.01-.005-.02-.005L6.06 4.73V2.296c0-.026 0-.051-.005-.072 0-.005 0-.01-.005-.02 0-.016-.005-.031-.005-.047-.005-.015-.005-.025-.01-.04 0-.011-.006-.016-.006-.026l-.015-.047c0-.005-.005-.015-.005-.02a.153.153 0 00-.02-.041c-.006-.005-.006-.016-.01-.02a.107.107 0 00-.021-.032l-.016-.025-.015-.026c-.005-.01-.016-.02-.02-.03l-.016-.016-.031-.031-.015-.016a.228.228 0 00-.036-.03c-.006-.006-.016-.01-.021-.016-.01-.01-.02-.015-.03-.026l-.042-.025c-.005-.005-.01-.005-.015-.01l-.067-.031L1.848.055a.693.693 0 00-.91.37.693.693 0 00.37.91l3.36 1.417v15.199a2.84 2.84 0 002.472 2.81 2.81 2.81 0 00-.4 1.439c0 1.546 1.258 2.8 2.8 2.8 1.541 0 2.8-1.259 2.8-2.8 0-.514-.139-1.002-.385-1.413h6.237a2.76 2.76 0 00-.385 1.413c0 1.546 1.259 2.8 2.8 2.8s2.8-1.259 2.8-2.8c0-1.542-1.259-2.8-2.8-2.8H7.505a1.45 1.45 0 01-1.449-1.45v-1.88c.421.247.92.39 1.45.39zm3.453 5.735c0 .78-.637 1.413-1.413 1.413a1.419 1.419 0 01-1.413-1.413c0-.776.637-1.413 1.413-1.413s1.413.632 1.413 1.413zm11.067 0c0 .78-.637 1.413-1.413 1.413a1.419 1.419 0 01-1.413-1.413c0-.776.637-1.413 1.413-1.413s1.413.632 1.413 1.413zm-.745-7.122H7.505a1.45 1.45 0 01-1.449-1.449V6.128L22.73 8.425v5.194c0 .807-.652 1.454-1.449 1.454z" fill="#000"/></svg>