<svg width="25" height="25" viewBox="0 0 25 25" fill="none" xmlns="http://www.w3.org/2000/svg"><g clip-path="url(#clip0)" fill="#000"><path d="M3.654 11.346a1.304 1.304 0 00.377 1.452c.796.796 2.43 3.668 3.24 5.692.553 1.38 1.766 2.736 2.686 3.63.396.39.618.922.617 1.478v.152c0 .69.56 1.25 1.25 1.25h6.664c.69 0 1.25-.56 1.25-1.25v-1.28a.382.382 0 01.111-.283c1.538-1.406 1.555-3.753 1.555-3.852v-6.594a1.71 1.71 0 00-1.545-1.732 1.666 1.666 0 00-.954.227v-.648a1.656 1.656 0 00-2.517-1.425 1.647 1.647 0 00-2.482-1.26v-.689a3.29 3.29 0 001.667-2.874 3.332 3.332 0 00-6.665 0 3.29 3.29 0 001.666 2.874v6.706c.012.492-.055.982-.198 1.453a.421.421 0 01-.3.28.401.401 0 01-.376-.099 5.921 5.921 0 01-.86-1.032c-.724-1.081-2.543-3.1-3.681-3.1a1.632 1.632 0 00-1.505.924zM9.741 3.34a2.5 2.5 0 114.998 0c.004.713-.3 1.392-.833 1.865V3.34a1.666 1.666 0 00-3.332 0v1.865a2.475 2.475 0 01-.833-1.865zM8.145 13.985c.282.428.612.823.984 1.176.306.29.74.403 1.149.3.417-.104.751-.414.887-.822a5.424 5.424 0 00.242-1.719V3.34a.833.833 0 111.666 0v8.747a.417.417 0 10.833 0V8.338a.833.833 0 011.667 0v3.75a.417.417 0 10.833 0v-2.5a.833.833 0 011.666 0v2.916a.417.417 0 00.833 0v-.833a.83.83 0 01.244-.589.843.843 0 01.65-.242c.45.059.783.447.772.901v6.594c0 .02-.021 2.083-1.285 3.238a1.216 1.216 0 00-.381.898v1.28c0 .23-.187.416-.417.416h-6.664a.416.416 0 01-.417-.417v-.152c0-.78-.313-1.53-.87-2.076-.706-.685-1.968-2.031-2.492-3.341-.857-2.142-2.553-5.1-3.425-5.972-.198-.198-.264-.381-.197-.544a.821.821 0 01.736-.41c.566 0 2.101 1.402 2.986 2.73z"/><path d="M8.908 6.897a.417.417 0 00.304-.702A4.155 4.155 0 019.029.689a.417.417 0 10-.642-.53 4.989 4.989 0 00.217 6.607.417.417 0 00.304.13zm7.22-1.104a.416.416 0 00.56-.18 4.981 4.981 0 00-.595-5.454.416.416 0 10-.642.53 4.15 4.15 0 01.496 4.544.416.416 0 00.18.56z"/></g><defs><clipPath id="clip0"><path fill="#fff" d="M0 0h25v25H0z"/></clipPath></defs></svg>