<svg width="25" height="25" viewBox="0 0 25 25" fill="none" xmlns="http://www.w3.org/2000/svg"><path d="M22.41 18.215h0L10.952 8.84h0a.02.02 0 00-.03.002l11.489 9.373zm0 0c.005.003.007.009.007.015l-.006-.015zM10.957 24.49h0l4.014-6.018.148-.223h7.278a.02.02 0 00.021-.02l-11.461 6.26zm0 0a.02.02 0 01-.017.009.02.02 0 01-.021-.02V8.854m.038 15.636l-.038-15.636m0 0c0-.004.002-.01.005-.013l-.005.013z" stroke="#393939"/><path d="M7.948 17.155a.53.53 0 01-.187-.035 8.854 8.854 0 1111.442-5.085.521.521 0 01-.973-.374 7.812 7.812 0 10-10.097 4.484l.003.001a.52.52 0 01-.188 1.008z" fill="#455A64"/><path d="M9.07 14.238a.527.527 0 01-.188-.034 5.73 5.73 0 117.405-3.29.521.521 0 01-.973-.375 4.687 4.687 0 10-6.06 2.69h.003a.52.52 0 01-.187 1.008v.001z" fill="#455A64"/></svg>