<svg width="25" height="25" viewBox="0 0 25 25" fill="none" xmlns="http://www.w3.org/2000/svg"><path d="M22.07 0H2.93A2.933 2.933 0 000 2.93v19.14A2.933 2.933 0 002.93 25h19.14A2.933 2.933 0 0025 22.07V2.93A2.933 2.933 0 0022.07 0zm.977 22.07a.978.978 0 01-.977.977h-5.566v-7.96h3.017l.498-3.027h-3.515v-2.1a1.44 1.44 0 011.465-1.464h2.002V5.47h-2.002a4.492 4.492 0 00-4.491 4.5v2.091h-2.931v3.028h2.93v7.959H2.93a.978.978 0 01-.977-.977V2.93c0-.539.438-.977.977-.977h19.14c.539 0 .977.438.977.977v19.14z" fill="#fff"/></svg>