<svg width="512" height="512" viewBox="0 0 512 512" fill="none" xmlns="http://www.w3.org/2000/svg"><path d="M456.401 0H55.599C42.623 0 32.066 10.557 32.066 23.532v47.556a31.646 31.646 0 007.09 19.929L204.7 294.184a16.595 16.595 0 013.719 10.452V496.47a15.418 15.418 0 007.359 13.199 15.468 15.468 0 008.147 2.331c2.366 0 4.74-.548 6.949-1.652l59.697-29.849c8.024-4.012 13.009-12.077 13.009-21.048V304.636a16.59 16.59 0 013.72-10.453L472.843 91.016a31.642 31.642 0 007.091-19.929V23.532C479.934 10.557 469.377 0 456.401 0zm-167.82 304.636v154.816a8.487 8.487 0 01-4.718 7.632l-59.697 29.849c-.094.048-.257.129-.502-.022s-.245-.332-.245-.439V304.636c0-.353-.011-.705-.023-1.057h65.207c-.011.352-.022.704-.022 1.057zM464.934 64.128H440.37a7.499 7.499 0 00-7.5 7.5c0 4.143 3.357 7.5 7.5 7.5h22.474a16.52 16.52 0 01-1.629 2.413L295.673 284.707a31.414 31.414 0 00-2.689 3.872h-73.967a31.395 31.395 0 00-2.688-3.871L50.786 81.541a16.44 16.44 0 01-1.63-2.413h22.48c4.144 0 7.5-3.357 7.5-7.5s-3.356-7.5-7.5-7.5h-24.57V23.532c0-4.705 3.828-8.532 8.533-8.532h400.804c4.705 0 8.532 3.827 8.532 8.532v40.596h-.001z" fill="#fff"/><path d="M408.301 64.128H103.694a7.499 7.499 0 00-7.5 7.5c0 4.143 3.357 7.5 7.5 7.5H408.3c4.143 0 7.5-3.357 7.5-7.5s-3.357-7.5-7.499-7.5z" fill="#fff"/></svg>