<svg width="23" height="25" viewBox="0 0 23 25" fill="none" xmlns="http://www.w3.org/2000/svg"><path d="M11.066 10.714a5.357 5.357 0 100-10.714 5.357 5.357 0 000 10.714zm0-9.183a3.827 3.827 0 110 7.653 3.827 3.827 0 010-7.653zm10.625 15.982a14.615 14.615 0 00-4.836-3.442 14.383 14.383 0 00-11.558 0A14.615 14.615 0 00.46 17.513C.164 17.835 0 18.26 0 18.7v4.564c0 .46.18.901.499 1.227.32.325.753.508 1.204.508H20.44a1.69 1.69 0 001.205-.508 1.75 1.75 0 00.499-1.227V18.7a1.753 1.753 0 00-.452-1.188zM20.68 23.57H1.393v-5c1.207-1.294 2.562-2.805 4.286-3.214 1.61-.704 3.644-1.033 5.397-1.033 1.752 0 3.707.329 5.317 1.033 1.61.705 3.079 1.92 4.286 3.215v5z" fill="#242424"/></svg>