<svg width="19" height="25" viewBox="0 0 19 25" fill="none" xmlns="http://www.w3.org/2000/svg"><path fill-rule="evenodd" clip-rule="evenodd" d="M17.643 6.585H1.357v15.067c0 .444.143.87.398 1.184.254.314.6.49.96.49h13.57c.36 0 .706-.177.96-.49a1.89 1.89 0 00.398-1.184V6.585zM0 4.91v16.74c0 .889.286 1.74.795 2.368.509.628 1.2.981 1.92.981h13.57c.72 0 1.411-.353 1.92-.98.509-.629.795-1.48.795-2.368V4.91H0z" fill="#000"/><path d="M9.146 1.435c-.932 0-1.827.378-2.487 1.05a3.624 3.624 0 00-1.03 2.537H4.222c0-1.332.519-2.61 1.442-3.551A4.876 4.876 0 019.146 0c1.306 0 2.559.53 3.482 1.471a5.074 5.074 0 011.443 3.551h-1.407a3.62 3.62 0 00-1.03-2.536 3.483 3.483 0 00-2.488-1.051z" fill="#000"/></svg>