<svg width="15" height="21" viewBox="0 0 15 21" fill="none" xmlns="http://www.w3.org/2000/svg"><path d="M14.87 10.099a6.926 6.926 0 00-3.663-2.09 10.137 10.137 0 00-1.804-.338c1.53-1.863 1.257-4.686-.547-6.267C7.052-.177 4.32.105 2.79 1.968c-1.531 1.864-1.258 4.687.546 6.268.328.282.656.508.984.62V10.1l-.874-.847c-.766-.79-2.023-.79-2.843 0-.765.79-.82 2.033-.055 2.823l2.515 3.049c.11.79.383 1.524.765 2.202a6.632 6.632 0 001.039 1.412v1.072c0 .34.218.565.546.565h7.435c.273 0 .546-.282.546-.565v-1.468a7.355 7.355 0 001.586-4.573v-3.275c.054-.226 0-.339-.11-.395zM2.842 4.79c0-1.863 1.476-3.33 3.28-3.274 1.804 0 3.225 1.524 3.17 3.387A3.22 3.22 0 018.09 7.444V4.622a1.947 1.947 0 00-.582-1.285 1.827 1.827 0 00-1.277-.522c-.984-.056-1.858.79-1.858 1.807v2.936c-.93-.565-1.476-1.637-1.53-2.767zm11.097 8.922a5.941 5.941 0 01-1.367 4.008c-.109.113-.218.226-.218.395v1.186h-6.34v-.79c0-.17-.11-.339-.219-.452a4.419 4.419 0 01-.984-1.242c-.328-.565-.547-1.242-.656-1.92 0-.113-.054-.226-.11-.339L1.422 11.34a.95.95 0 01-.273-.677c0-.226.109-.509.273-.678a.974.974 0 011.312 0l1.585 1.637v1.694l1.039-.564v-8.13c.054-.396.382-.735.82-.678.382 0 .765.282.765.677v6.493l1.093.226V8.744c.055-.057.11-.057.164-.113.383 0 .766.056 1.148.113v2.88l.875.169V8.857l.656.17c.273.056.546.168.82.281v2.824l.874.169V9.704c.492.226.93.564 1.312.96l.055 3.049z" fill="#242424"/></svg>