<svg width="25" height="25" viewBox="0 0 25 25" fill="none" xmlns="http://www.w3.org/2000/svg"><path d="M24.925 7.346c-.061-1.33-.272-2.239-.581-3.034a6.127 6.127 0 00-1.442-2.214A6.129 6.129 0 0020.688.656c-.795-.309-1.704-.52-3.034-.58C16.32.013 15.894 0 12.5 0 9.105 0 8.68.014 7.346.075c-1.33.06-2.239.272-3.034.581a6.126 6.126 0 00-2.214 1.442A6.127 6.127 0 00.656 4.312c-.309.795-.52 1.704-.58 3.034C.014 8.68 0 9.106 0 12.5c0 3.395.014 3.82.076 5.154.06 1.33.272 2.239.58 3.034.314.834.806 1.59 1.442 2.214a6.124 6.124 0 002.214 1.441c.795.31 1.704.52 3.035.582 1.333.06 1.758.075 5.153.075 3.395 0 3.82-.015 5.154-.075 1.33-.061 2.239-.272 3.034-.582a6.39 6.39 0 003.656-3.655c.309-.795.52-1.704.58-3.034.061-1.334.076-1.76.076-5.154 0-3.395-.015-3.82-.075-5.154zm-2.25 10.205c-.056 1.219-.26 1.88-.43 2.321a4.14 4.14 0 01-2.373 2.373c-.44.17-1.102.374-2.321.43-1.318.06-1.713.073-5.051.073s-3.733-.013-5.051-.073c-1.219-.056-1.88-.26-2.321-.43a3.875 3.875 0 01-1.437-.936 3.872 3.872 0 01-.936-1.437c-.17-.44-.374-1.102-.43-2.32-.06-1.319-.073-1.714-.073-5.052 0-3.338.013-3.733.073-5.051.056-1.219.26-1.88.43-2.321.2-.543.52-1.034.936-1.438a3.87 3.87 0 011.437-.935c.44-.17 1.102-.374 2.321-.43 1.318-.06 1.713-.073 5.051-.073s3.733.013 5.051.073c1.219.056 1.88.26 2.321.43a3.88 3.88 0 011.437.935c.415.404.735.895.935 1.438.172.44.375 1.102.43 2.32.06 1.319.074 5.052.074 5.052s-.013 3.733-.073 5.051z" fill="#fff"/><path d="M12.5 6.081a6.419 6.419 0 100 12.838 6.419 6.419 0 000-12.838zm0 10.586a4.167 4.167 0 110-8.333 4.167 4.167 0 010 8.333zm8.172-10.84a1.5 1.5 0 11-3 0 1.5 1.5 0 013 0z" fill="#fff"/></svg>