<svg width="187" height="66" viewBox="0 0 187 66" fill="none" xmlns="http://www.w3.org/2000/svg"><path d="M88.768 24.154c0 2.61-.74 4.697-2.219 6.263-1.46 1.547-3.426 2.32-5.897 2.32-2.49 0-4.465-.773-5.925-2.32-1.46-1.547-2.19-3.635-2.19-6.263V12.86h2.162v11.294c0 1.995.543 3.598 1.629 4.81 1.085 1.192 2.527 1.788 4.324 1.788 1.797 0 3.239-.596 4.325-1.789 1.086-1.211 1.629-2.814 1.629-4.809V12.86h2.162v11.294zm1.144 8.276l8.172-19.57h2.611l8.06 19.57h-2.359l-2.471-6.15h-9.267l-2.5 6.15h-2.246zm5.504-7.996h7.751l-3.848-9.561-3.903 9.561zM85.54 61.782a10.26 10.26 0 004.134-.859 9.407 9.407 0 003.343-2.505l2.48 2.505c-1.222 1.336-2.731 2.398-4.529 3.185a13.86 13.86 0 01-5.535 1.145c-1.845 0-3.583-.334-5.212-1.002-1.606-.668-2.996-1.574-4.17-2.72a13.353 13.353 0 01-2.804-4.115 12.993 12.993 0 01-1.006-5.081c0-1.813.335-3.507 1.006-5.082.695-1.574 1.63-2.934 2.804-4.079 1.174-1.169 2.564-2.087 4.17-2.755 1.63-.668 3.367-1.002 5.212-1.002 1.965 0 3.846.393 5.643 1.18 1.822.764 3.32 1.814 4.493 3.15l-2.516 2.576a9.824 9.824 0 00-3.45-2.54 10.162 10.162 0 00-4.17-.895 9.566 9.566 0 00-3.703.715 8.869 8.869 0 00-2.983 2.004c-.815.835-1.462 1.837-1.941 3.006-.48 1.145-.719 2.386-.719 3.722 0 1.336.24 2.588.719 3.757a9.095 9.095 0 001.977 2.97 9.63 9.63 0 002.983 2.004 9.93 9.93 0 003.775.716zm20.803 3.399c-1.989 0-3.606-.512-4.852-1.538-1.247-1.026-1.87-2.362-1.87-4.008 0-1.718.659-3.066 1.977-4.044 1.318-1.002 3.128-1.503 5.428-1.503.887 0 1.749.096 2.588.287.839.167 1.642.405 2.408.715v-1.932c0-1.288-.383-2.255-1.15-2.899-.767-.644-1.869-.966-3.307-.966-.838 0-1.713.131-2.624.394-.91.238-1.929.62-3.055 1.145l-1.33-2.684c1.366-.644 2.66-1.11 3.882-1.396a14.712 14.712 0 013.631-.465c2.372 0 4.205.573 5.499 1.718 1.318 1.121 1.977 2.72 1.977 4.795v12.06h-3.523v-1.575a8.545 8.545 0 01-2.624 1.431c-.934.31-1.953.466-3.055.466zm-3.271-5.618c0 .883.372 1.599 1.114 2.147.767.55 1.762.823 2.984.823.958 0 1.845-.143 2.66-.429a6.555 6.555 0 002.192-1.288v-3.15a8.105 8.105 0 00-2.192-.822 10.41 10.41 0 00-2.516-.287c-1.294 0-2.325.275-3.092.823-.766.55-1.15 1.277-1.15 2.183zm16.687 2.935l1.941-2.362c.958.74 1.929 1.312 2.911 1.717a8.56 8.56 0 003.056.573c1.294 0 2.348-.25 3.163-.751s1.222-1.157 1.222-1.968c0-.645-.239-1.158-.719-1.54-.479-.381-1.222-.643-2.228-.787l-3.307-.465c-1.798-.262-3.164-.81-4.098-1.646-.911-.859-1.366-1.992-1.366-3.4 0-1.645.659-2.97 1.977-3.971 1.318-1.026 3.043-1.54 5.176-1.54 1.342 0 2.612.192 3.81.573 1.222.382 2.409.967 3.559 1.754l-1.833 2.362c-1.007-.668-1.989-1.145-2.948-1.432a8.961 8.961 0 00-2.84-.465c-1.102 0-1.988.227-2.659.68-.671.453-1.007 1.05-1.007 1.79 0 .667.228 1.18.683 1.538.479.334 1.258.584 2.336.751l3.307.466c1.798.262 3.164.823 4.098 1.681.959.86 1.438 1.992 1.438 3.4a4.56 4.56 0 01-.611 2.29 5.462 5.462 0 01-1.618 1.79c-.671.5-1.473.906-2.408 1.216a10.26 10.26 0 01-3.019.43c-1.582 0-3.068-.227-4.458-.68-1.365-.454-2.552-1.122-3.558-2.004zm23.754-15.853v10.807c0 1.431.407 2.565 1.222 3.4.839.835 1.941 1.252 3.307 1.252.959 0 1.821-.203 2.588-.608a5.446 5.446 0 001.905-1.79v-13.06h3.595v18.213h-3.595v-1.825a7.5 7.5 0 01-2.48 1.646c-.911.358-1.917.537-3.019.537-2.085 0-3.799-.668-5.14-2.004-1.318-1.336-1.977-3.053-1.977-5.153V46.645h3.594zm24.457 18.536c-1.989 0-3.607-.512-4.853-1.538-1.246-1.026-1.869-2.362-1.869-4.008 0-1.718.659-3.066 1.977-4.044 1.318-1.002 3.127-1.503 5.428-1.503.886 0 1.749.096 2.588.287a13.4 13.4 0 012.408.715v-1.932c0-1.288-.383-2.255-1.15-2.899-.767-.644-1.869-.966-3.307-.966-.839 0-1.714.131-2.624.394-.911.238-1.929.62-3.056 1.145l-1.33-2.684c1.366-.644 2.66-1.11 3.882-1.396a14.724 14.724 0 013.631-.465c2.372 0 4.206.573 5.5 1.718 1.318 1.121 1.977 2.72 1.977 4.795v12.06h-3.523v-1.575a8.557 8.557 0 01-2.624 1.431c-.935.31-1.953.466-3.055.466zm-3.271-5.618c0 .883.371 1.599 1.114 2.147.767.55 1.761.823 2.983.823.959 0 1.846-.143 2.66-.429a6.56 6.56 0 002.193-1.288v-3.15a8.124 8.124 0 00-2.193-.822 10.403 10.403 0 00-2.516-.287c-1.294 0-2.324.275-3.091.823-.767.55-1.15 1.277-1.15 2.183zm22.006-20.54v25.836h-3.594V39.81l3.594-.787zM56.893 11.196c-.717-3.33-3.647-5.756-7.037-5.922A29.22 29.22 0 0033.064 0h-.837a29.232 29.232 0 00-16.793 5.273c-3.39.166-6.32 2.592-7.037 5.921L.076 49.86a3.409 3.409 0 002.521 4.024l7.656 1.905 3.364-13.876c.044 1.07.073 2.13.073 3.167 0 .783-.412 2.104-.847 3.503-.59 1.895-1.26 4.042-1.26 5.932 0 2.903 2.18 4.977 3.161 5.764V65H50.55v-4.72c.982-.789 3.16-2.863 3.16-5.764 0-1.89-.67-4.038-1.26-5.932-.436-1.399-.848-2.72-.848-3.503 0-1.039.03-2.1.073-3.17l3.364 13.88 7.656-1.907a3.411 3.411 0 002.521-4.027l-8.322-38.66zM25.519 15.89a21.642 21.642 0 01-8.376-9.229 27.502 27.502 0 012.543-1.507c1.148 3.574 3.497 7.448 5.833 10.736zm-1.481-6.22c2.652-.834 5.399-1.283 8.19-1.283h.837c2.793 0 5.537.449 8.189 1.282-2.84 5.03-6.92 9.893-8.608 11.819-1.689-1.925-5.768-6.787-8.608-11.818zm21.567-4.516c.87.452 1.717.96 2.543 1.507a21.636 21.636 0 01-8.376 9.23c2.337-3.289 4.684-7.162 5.833-10.737zM33.064 2.097c3.69 0 7.278.741 10.612 2.15-.347 1.146-.837 2.336-1.43 3.54a29.314 29.314 0 00-9.182-1.497h-.837c-3.133 0-6.215.52-9.184 1.496-.592-1.203-1.081-2.393-1.428-3.539a27.194 27.194 0 0110.613-2.15h.836zm15.378 60.806H16.849v-2.097h31.593v2.097zm-3.16-4.194H20.01v-7.426a6.322 6.322 0 005.178-5.154h14.918a6.322 6.322 0 005.178 5.154v7.426zm16.903-6.86l-5.596 1.393-7.124-29.376-2.046.492 2.652 10.937a87.112 87.112 0 00-.576 9.785c0 1.102.436 2.503.941 4.123.546 1.752 1.165 3.74 1.165 5.313 0 2.081-1.8 3.68-2.454 4.193H47.39v-9.435h-1.053c-2.323 0-4.213-1.881-4.213-4.194v-1.048H23.168v1.048c0 2.313-1.89 4.194-4.212 4.194h-1.054v9.435h-1.76c-.656-.515-2.453-2.114-2.453-4.194 0-1.572.62-3.56 1.165-5.312.504-1.62.941-3.021.941-4.123 0-3.138-.195-6.427-.575-9.782l2.653-10.94-2.046-.492-7.123 29.376-5.597-1.392a1.317 1.317 0 01-.972-1.553l8.321-38.662c.49-2.272 2.402-3.976 4.676-4.257 2.594 5.584 7.356 9.981 13.136 12.16l.164.204V33.35h2.106V22.275a57.598 57.598 0 001.334 1.5l.774.836.773-.835a62.71 62.71 0 001.333-1.5v17.302h2.106V19.743c.056-.07.11-.136.166-.208 5.779-2.177 10.54-6.573 13.133-12.155 2.274.28 4.187 1.984 4.676 4.256l8.322 38.66a1.317 1.317 0 01-.97 1.553z" fill="#242424"/></svg>