<svg width="71" height="58" viewBox="0 0 71 58" fill="none" xmlns="http://www.w3.org/2000/svg"><path d="M17.51 50.702v-2.89a1.714 1.714 0 00-1.812-1.83 1.782 1.782 0 00-1.618.819 1.69 1.69 0 00-1.522-.82 1.522 1.522 0 00-1.35.685v-.569h-1.001v4.605h1.011V48.17a1.08 1.08 0 011.128-1.224c.664 0 1.002.434 1.002 1.214v2.562h1.011V48.17a1.084 1.084 0 011.127-1.224c.684 0 1.012.434 1.012 1.214v2.562l1.011-.019zm14.965-4.605h-1.647V44.7h-1.011v1.397H28.9v.915h.935v2.12c0 1.07.414 1.705 1.599 1.705a2.35 2.35 0 001.252-.356l-.289-.858a1.85 1.85 0 01-.886.26c-.482 0-.665-.308-.665-.77v-2.1h1.638l-.01-.916zm8.545-.115a1.358 1.358 0 00-1.213.674v-.559h-.993v4.605h1.002V48.12c0-.76.328-1.185.964-1.185.214-.003.427.037.626.116l.308-.963a2.141 2.141 0 00-.713-.126l.02.02zm-12.918.481a3.444 3.444 0 00-1.879-.481c-1.166 0-1.927.558-1.927 1.474 0 .751.56 1.213 1.59 1.358l.482.067c.549.078.809.222.809.482 0 .356-.366.559-1.05.559a2.451 2.451 0 01-1.532-.482l-.482.78a3.323 3.323 0 001.995.598c1.329 0 2.1-.626 2.1-1.503 0-.877-.607-1.233-1.61-1.378l-.48-.067c-.434-.058-.781-.145-.781-.453 0-.308.327-.54.876-.54a2.967 2.967 0 011.445.396l.444-.81zm26.835-.481a1.358 1.358 0 00-1.214.674v-.559h-.993v4.605h1.002V48.12c0-.76.328-1.185.964-1.185a1.63 1.63 0 01.626.116l.308-.963a2.142 2.142 0 00-.713-.126l.02.02zm-12.91 2.408a2.326 2.326 0 002.457 2.408 2.408 2.408 0 001.657-.549l-.482-.809c-.346.264-.768.41-1.204.414a1.479 1.479 0 010-2.947c.436.004.858.15 1.204.414l.482-.81a2.408 2.408 0 00-1.657-.549 2.325 2.325 0 00-2.457 2.409v.02zm9.383 0v-2.293h-1v.559a1.748 1.748 0 00-1.445-.674 2.408 2.408 0 000 4.816 1.75 1.75 0 001.445-.674v.559h1.002V48.39zm-3.728 0a1.392 1.392 0 111.397 1.474 1.381 1.381 0 01-1.397-1.474zm-12.09-2.408a2.41 2.41 0 00.067 4.816 2.798 2.798 0 001.913-.626l-.482-.741a2.19 2.19 0 01-1.34.481 1.276 1.276 0 01-1.377-1.127h3.42V48.4c0-1.445-.896-2.409-2.187-2.409l-.014-.01zm0 .896a1.14 1.14 0 011.166 1.117h-2.409a1.185 1.185 0 011.224-1.117h.019zm25.1 1.522v-4.152h-.963v2.408a1.75 1.75 0 00-1.445-.674 2.408 2.408 0 100 4.816 1.75 1.75 0 001.445-.674v.559h.964V48.4zm1.672 1.633a.483.483 0 01.333.13.448.448 0 01-.15.742.452.452 0 01-.183.038.481.481 0 01-.433-.28.453.453 0 01.1-.5.483.483 0 01.348-.13h-.015zm0 .814a.343.343 0 00.344-.347.357.357 0 00-.093-.241.348.348 0 00-.39-.077.352.352 0 00-.116.077.356.356 0 000 .482.358.358 0 00.27.106h-.015zm.029-.574a.192.192 0 01.125.039.12.12 0 01.044.101.116.116 0 01-.034.087.17.17 0 01-.101.043l.14.16h-.111l-.13-.16h-.044v.16h-.091v-.425l.202-.005zm-.106.082v.116h.106a.102.102 0 00.058 0 .048.048 0 000-.043.048.048 0 000-.044.1.1 0 00-.058 0l-.106-.029zM56.989 48.4a1.39 1.39 0 012.4-.876 1.392 1.392 0 01-1.004 2.35A1.383 1.383 0 0156.99 48.4zm-33.83 0v-2.303h-1.001v.559a1.748 1.748 0 00-1.445-.674 2.409 2.409 0 000 4.816 1.75 1.75 0 001.445-.674v.559h1.002V48.4zm-3.728 0a1.39 1.39 0 012.4-.876 1.392 1.392 0 01-1.003 2.35 1.384 1.384 0 01-1.406-1.474h.01z" fill="#242424"/><path d="M42.943 11.006H27.769v27.269h15.174V11.006z" fill="#FF5F00"/><path d="M28.733 24.645a17.312 17.312 0 016.623-13.637 17.34 17.34 0 100 27.269 17.312 17.312 0 01-6.623-13.632z" fill="#EB001B"/><path d="M63.414 24.643a17.342 17.342 0 01-28.058 13.632 17.342 17.342 0 000-27.268 17.34 17.34 0 0128.058 13.631v.005zm-1.657 10.742v-.559h.227v-.116h-.574v.116h.246v.559h.101zm1.113 0v-.675h-.173l-.203.482-.202-.482h-.154v.675h.125v-.506l.188.438h.13l.188-.438v.51l.1-.004z" fill="#F79E1B"/></svg>