<svg width="199" height="560" viewBox="0 0 199 560" fill="none" xmlns="http://www.w3.org/2000/svg"><path d="M.976 49.744l7.04-7.552c2.432 2.517 4.843 4.373 7.232 5.568a17.866 17.866 0 007.744 1.728c2.219 0 3.968-.405 5.248-1.216 1.28-.81 1.92-1.941 1.92-3.392 0-.981-.427-1.792-1.28-2.432-.81-.64-2.197-1.216-4.16-1.728l-9.344-2.432c-3.072-.81-5.44-2.197-7.104-4.16-1.621-1.963-2.432-4.352-2.432-7.168 0-4.437 1.579-7.936 4.736-10.496 3.2-2.603 7.51-3.904 12.928-3.904 3.712 0 7.317.683 10.816 2.048 3.541 1.365 6.528 3.264 8.96 5.696l-6.784 7.68c-2.176-2.133-4.416-3.712-6.72-4.736-2.261-1.024-4.672-1.536-7.232-1.536-1.963 0-3.52.363-4.672 1.088-1.152.725-1.728 1.685-1.728 2.88 0 .939.363 1.707 1.088 2.304.768.597 2.005 1.11 3.712 1.536l8.768 2.112c3.627.853 6.4 2.283 8.32 4.288 1.92 2.005 2.88 4.48 2.88 7.424 0 2.304-.448 4.416-1.344 6.336a13.79 13.79 0 01-3.776 4.8c-1.621 1.323-3.605 2.347-5.952 3.072-2.347.725-4.928 1.088-7.744 1.088-4.181 0-8.085-.768-11.712-2.304C6.757 54.8 3.621 52.603.976 49.744zM35.753 58l27.328-44.8h12.352L83.881 58H72.745l-1.792-10.816H53.801L47.529 58H35.753zm23.104-19.584h10.688L67.177 24.08l-8.32 14.336zM83.259 58l9.536-44.8h10.752l-7.488 35.072h23.168L117.179 58h-33.92zm36.223 0l9.536-44.8h34.624l-2.048 9.536h-23.872l-1.728 8.064h15.744l-1.92 9.216h-15.744l-1.792 8.448h24.128L154.362 58h-34.88zm37.071-8.256l7.04-7.552c2.432 2.517 4.843 4.373 7.233 5.568a17.86 17.86 0 007.743 1.728c2.219 0 3.969-.405 5.249-1.216 1.28-.81 1.92-1.941 1.92-3.392 0-.981-.427-1.792-1.28-2.432-.811-.64-2.198-1.216-4.16-1.728l-9.345-2.432c-3.072-.81-5.44-2.197-7.104-4.16-1.621-1.963-2.432-4.352-2.432-7.168 0-4.437 1.579-7.936 4.736-10.496 3.2-2.603 7.51-3.904 12.929-3.904 3.712 0 7.317.683 10.815 2.048 3.542 1.365 6.529 3.264 8.961 5.696l-6.784 7.68c-2.176-2.133-4.416-3.712-6.72-4.736-2.262-1.024-4.672-1.536-7.232-1.536-1.963 0-3.521.363-4.672 1.088-1.152.725-1.728 1.685-1.728 2.88 0 .939.362 1.707 1.087 2.304.769.597 2.006 1.11 3.712 1.536l8.769 2.112c3.626.853 6.4 2.283 8.32 4.288 1.92 2.005 2.88 4.48 2.88 7.424 0 2.304-.448 4.416-1.344 6.336a13.784 13.784 0 01-3.777 4.8c-1.621 1.323-3.605 2.347-5.951 3.072-2.347.725-4.928 1.088-7.744 1.088-4.182 0-8.086-.768-11.712-2.304-3.627-1.536-6.763-3.733-9.409-6.592zM1 119.744l7.04-7.552c2.432 2.517 4.842 4.373 7.232 5.568a17.866 17.866 0 007.744 1.728c2.218 0 3.968-.405 5.248-1.216 1.28-.811 1.92-1.941 1.92-3.392 0-.981-.427-1.792-1.28-2.432-.81-.64-2.198-1.216-4.16-1.728l-9.344-2.432c-3.072-.811-5.44-2.197-7.104-4.16-1.622-1.963-2.432-4.352-2.432-7.168 0-4.437 1.578-7.936 4.736-10.496 3.2-2.603 7.51-3.904 12.928-3.904 3.712 0 7.317.683 10.816 2.048 3.541 1.365 6.528 3.264 8.96 5.696l-6.784 7.68c-2.176-2.133-4.416-3.712-6.72-4.736-2.262-1.024-4.672-1.536-7.232-1.536-1.963 0-3.52.363-4.672 1.088-1.152.725-1.728 1.685-1.728 2.88 0 .939.362 1.707 1.088 2.304.768.597 2.005 1.11 3.712 1.536l8.768 2.112c3.626.853 6.4 2.283 8.32 4.288 1.92 2.005 2.88 4.48 2.88 7.424 0 2.304-.448 4.416-1.344 6.336a13.795 13.795 0 01-3.776 4.8c-1.622 1.323-3.606 2.347-5.952 3.072-2.347.725-4.928 1.088-7.744 1.088-4.182 0-8.086-.768-11.712-2.304C6.78 124.8 3.645 122.603 1 119.744zM35.777 128l27.328-44.8h12.352l8.448 44.8H72.769l-1.792-10.816H53.825L47.553 128H35.777zm23.104-19.584h10.688L67.2 94.08l-8.32 14.336zM83.283 128l9.536-44.8h10.752l-7.488 35.072h23.168L117.203 128h-33.92zm36.222 0l9.536-44.8h34.624l-2.048 9.536h-23.872l-1.728 8.064h15.744l-1.92 9.216h-15.744l-1.792 8.448h24.128L154.385 128h-34.88zm37.072-8.256l7.04-7.552c2.432 2.517 4.843 4.373 7.232 5.568a17.868 17.868 0 007.744 1.728c2.219 0 3.968-.405 5.248-1.216 1.28-.811 1.92-1.941 1.92-3.392 0-.981-.426-1.792-1.28-2.432-.81-.64-2.197-1.216-4.16-1.728l-9.344-2.432c-3.072-.811-5.44-2.197-7.104-4.16-1.621-1.963-2.432-4.352-2.432-7.168 0-4.437 1.579-7.936 4.736-10.496 3.2-2.603 7.51-3.904 12.928-3.904 3.712 0 7.318.683 10.816 2.048 3.542 1.365 6.528 3.264 8.96 5.696l-6.784 7.68c-2.176-2.133-4.416-3.712-6.72-4.736-2.261-1.024-4.672-1.536-7.232-1.536-1.962 0-3.52.363-4.672 1.088-1.152.725-1.728 1.685-1.728 2.88 0 .939.363 1.707 1.088 2.304.768.597 2.006 1.11 3.712 1.536l8.768 2.112c3.627.853 6.4 2.283 8.32 4.288 1.92 2.005 2.88 4.48 2.88 7.424 0 2.304-.448 4.416-1.344 6.336a13.787 13.787 0 01-3.776 4.8c-1.621 1.323-3.605 2.347-5.952 3.072-2.346.725-4.928 1.088-7.744 1.088-4.181 0-8.085-.768-11.712-2.304-3.626-1.536-6.762-3.733-9.408-6.592zM1 189.744l7.04-7.552c2.432 2.517 4.842 4.373 7.232 5.568a17.866 17.866 0 007.744 1.728c2.218 0 3.968-.405 5.248-1.216 1.28-.811 1.92-1.941 1.92-3.392 0-.981-.427-1.792-1.28-2.432-.81-.64-2.198-1.216-4.16-1.728l-9.344-2.432c-3.072-.811-5.44-2.197-7.104-4.16-1.622-1.963-2.432-4.352-2.432-7.168 0-4.437 1.578-7.936 4.736-10.496 3.2-2.603 7.51-3.904 12.928-3.904 3.712 0 7.317.683 10.816 2.048 3.541 1.365 6.528 3.264 8.96 5.696l-6.784 7.68c-2.176-2.133-4.416-3.712-6.72-4.736-2.262-1.024-4.672-1.536-7.232-1.536-1.963 0-3.52.363-4.672 1.088-1.152.725-1.728 1.685-1.728 2.88 0 .939.362 1.707 1.088 2.304.768.597 2.005 1.109 3.712 1.536l8.768 2.112c3.626.853 6.4 2.283 8.32 4.288 1.92 2.005 2.88 4.48 2.88 7.424 0 2.304-.448 4.416-1.344 6.336a13.795 13.795 0 01-3.776 4.8c-1.622 1.323-3.606 2.347-5.952 3.072-2.347.725-4.928 1.088-7.744 1.088-4.182 0-8.086-.768-11.712-2.304C6.78 194.8 3.645 192.603 1 189.744zM35.777 198l27.328-44.8h12.352l8.448 44.8H72.769l-1.792-10.816H53.825L47.553 198H35.777zm23.104-19.584h10.688L67.2 164.08l-8.32 14.336zM83.283 198l9.536-44.8h10.752l-7.488 35.072h23.168L117.203 198h-33.92zm36.222 0l9.536-44.8h34.624l-2.048 9.536h-23.872l-1.728 8.064h15.744l-1.92 9.216h-15.744l-1.792 8.448h24.128L154.385 198h-34.88zm37.072-8.256l7.04-7.552c2.432 2.517 4.843 4.373 7.232 5.568a17.868 17.868 0 007.744 1.728c2.219 0 3.968-.405 5.248-1.216 1.28-.811 1.92-1.941 1.92-3.392 0-.981-.426-1.792-1.28-2.432-.81-.64-2.197-1.216-4.16-1.728l-9.344-2.432c-3.072-.811-5.44-2.197-7.104-4.16-1.621-1.963-2.432-4.352-2.432-7.168 0-4.437 1.579-7.936 4.736-10.496 3.2-2.603 7.51-3.904 12.928-3.904 3.712 0 7.318.683 10.816 2.048 3.542 1.365 6.528 3.264 8.96 5.696l-6.784 7.68c-2.176-2.133-4.416-3.712-6.72-4.736-2.261-1.024-4.672-1.536-7.232-1.536-1.962 0-3.52.363-4.672 1.088-1.152.725-1.728 1.685-1.728 2.88 0 .939.363 1.707 1.088 2.304.768.597 2.006 1.109 3.712 1.536l8.768 2.112c3.627.853 6.4 2.283 8.32 4.288 1.92 2.005 2.88 4.48 2.88 7.424 0 2.304-.448 4.416-1.344 6.336a13.787 13.787 0 01-3.776 4.8c-1.621 1.323-3.605 2.347-5.952 3.072-2.346.725-4.928 1.088-7.744 1.088-4.181 0-8.085-.768-11.712-2.304-3.626-1.536-6.762-3.733-9.408-6.592zM1 259.744l7.04-7.552c2.432 2.517 4.842 4.373 7.232 5.568a17.866 17.866 0 007.744 1.728c2.218 0 3.968-.405 5.248-1.216 1.28-.811 1.92-1.941 1.92-3.392 0-.981-.427-1.792-1.28-2.432-.81-.64-2.198-1.216-4.16-1.728l-9.344-2.432c-3.072-.811-5.44-2.197-7.104-4.16-1.622-1.963-2.432-4.352-2.432-7.168 0-4.437 1.578-7.936 4.736-10.496 3.2-2.603 7.51-3.904 12.928-3.904 3.712 0 7.317.683 10.816 2.048 3.541 1.365 6.528 3.264 8.96 5.696l-6.784 7.68c-2.176-2.133-4.416-3.712-6.72-4.736-2.262-1.024-4.672-1.536-7.232-1.536-1.963 0-3.52.363-4.672 1.088-1.152.725-1.728 1.685-1.728 2.88 0 .939.362 1.707 1.088 2.304.768.597 2.005 1.109 3.712 1.536l8.768 2.112c3.626.853 6.4 2.283 8.32 4.288 1.92 2.005 2.88 4.48 2.88 7.424 0 2.304-.448 4.416-1.344 6.336a13.795 13.795 0 01-3.776 4.8c-1.622 1.323-3.606 2.347-5.952 3.072-2.347.725-4.928 1.088-7.744 1.088-4.182 0-8.086-.768-11.712-2.304C6.78 264.8 3.645 262.603 1 259.744zM35.777 268l27.328-44.8h12.352l8.448 44.8H72.769l-1.792-10.816H53.825L47.553 268H35.777zm23.104-19.584h10.688L67.2 234.08l-8.32 14.336zM83.283 268l9.536-44.8h10.752l-7.488 35.072h23.168L117.203 268h-33.92zm36.222 0l9.536-44.8h34.624l-2.048 9.536h-23.872l-1.728 8.064h15.744l-1.92 9.216h-15.744l-1.792 8.448h24.128L154.385 268h-34.88zm37.072-8.256l7.04-7.552c2.432 2.517 4.843 4.373 7.232 5.568a17.868 17.868 0 007.744 1.728c2.219 0 3.968-.405 5.248-1.216 1.28-.811 1.92-1.941 1.92-3.392 0-.981-.426-1.792-1.28-2.432-.81-.64-2.197-1.216-4.16-1.728l-9.344-2.432c-3.072-.811-5.44-2.197-7.104-4.16-1.621-1.963-2.432-4.352-2.432-7.168 0-4.437 1.579-7.936 4.736-10.496 3.2-2.603 7.51-3.904 12.928-3.904 3.712 0 7.318.683 10.816 2.048 3.542 1.365 6.528 3.264 8.96 5.696l-6.784 7.68c-2.176-2.133-4.416-3.712-6.72-4.736-2.261-1.024-4.672-1.536-7.232-1.536-1.962 0-3.52.363-4.672 1.088-1.152.725-1.728 1.685-1.728 2.88 0 .939.363 1.707 1.088 2.304.768.597 2.006 1.109 3.712 1.536l8.768 2.112c3.627.853 6.4 2.283 8.32 4.288 1.92 2.005 2.88 4.48 2.88 7.424 0 2.304-.448 4.416-1.344 6.336a13.787 13.787 0 01-3.776 4.8c-1.621 1.323-3.605 2.347-5.952 3.072-2.346.725-4.928 1.088-7.744 1.088-4.181 0-8.085-.768-11.712-2.304-3.626-1.536-6.762-3.733-9.408-6.592zM1 329.744l7.04-7.552c2.432 2.517 4.842 4.373 7.232 5.568a17.866 17.866 0 007.744 1.728c2.218 0 3.968-.405 5.248-1.216 1.28-.811 1.92-1.941 1.92-3.392 0-.981-.427-1.792-1.28-2.432-.81-.64-2.198-1.216-4.16-1.728l-9.344-2.432c-3.072-.811-5.44-2.197-7.104-4.16-1.622-1.963-2.432-4.352-2.432-7.168 0-4.437 1.578-7.936 4.736-10.496 3.2-2.603 7.51-3.904 12.928-3.904 3.712 0 7.317.683 10.816 2.048 3.541 1.365 6.528 3.264 8.96 5.696l-6.784 7.68c-2.176-2.133-4.416-3.712-6.72-4.736-2.262-1.024-4.672-1.536-7.232-1.536-1.963 0-3.52.363-4.672 1.088-1.152.725-1.728 1.685-1.728 2.88 0 .939.362 1.707 1.088 2.304.768.597 2.005 1.109 3.712 1.536l8.768 2.112c3.626.853 6.4 2.283 8.32 4.288 1.92 2.005 2.88 4.48 2.88 7.424 0 2.304-.448 4.416-1.344 6.336a13.795 13.795 0 01-3.776 4.8c-1.622 1.323-3.606 2.347-5.952 3.072-2.347.725-4.928 1.088-7.744 1.088-4.182 0-8.086-.768-11.712-2.304C6.78 334.8 3.645 332.603 1 329.744zM35.777 338l27.328-44.8h12.352l8.448 44.8H72.769l-1.792-10.816H53.825L47.553 338H35.777zm23.104-19.584h10.688L67.2 304.08l-8.32 14.336zM83.283 338l9.536-44.8h10.752l-7.488 35.072h23.168L117.203 338h-33.92zm36.222 0l9.536-44.8h34.624l-2.048 9.536h-23.872l-1.728 8.064h15.744l-1.92 9.216h-15.744l-1.792 8.448h24.128L154.385 338h-34.88zm37.072-8.256l7.04-7.552c2.432 2.517 4.843 4.373 7.232 5.568a17.868 17.868 0 007.744 1.728c2.219 0 3.968-.405 5.248-1.216 1.28-.811 1.92-1.941 1.92-3.392 0-.981-.426-1.792-1.28-2.432-.81-.64-2.197-1.216-4.16-1.728l-9.344-2.432c-3.072-.811-5.44-2.197-7.104-4.16-1.621-1.963-2.432-4.352-2.432-7.168 0-4.437 1.579-7.936 4.736-10.496 3.2-2.603 7.51-3.904 12.928-3.904 3.712 0 7.318.683 10.816 2.048 3.542 1.365 6.528 3.264 8.96 5.696l-6.784 7.68c-2.176-2.133-4.416-3.712-6.72-4.736-2.261-1.024-4.672-1.536-7.232-1.536-1.962 0-3.52.363-4.672 1.088-1.152.725-1.728 1.685-1.728 2.88 0 .939.363 1.707 1.088 2.304.768.597 2.006 1.109 3.712 1.536l8.768 2.112c3.627.853 6.4 2.283 8.32 4.288 1.92 2.005 2.88 4.48 2.88 7.424 0 2.304-.448 4.416-1.344 6.336a13.787 13.787 0 01-3.776 4.8c-1.621 1.323-3.605 2.347-5.952 3.072-2.346.725-4.928 1.088-7.744 1.088-4.181 0-8.085-.768-11.712-2.304-3.626-1.536-6.762-3.733-9.408-6.592zM1 399.744l7.04-7.552c2.432 2.517 4.842 4.373 7.232 5.568a17.866 17.866 0 007.744 1.728c2.218 0 3.968-.405 5.248-1.216 1.28-.811 1.92-1.941 1.92-3.392 0-.981-.427-1.792-1.28-2.432-.81-.64-2.198-1.216-4.16-1.728l-9.344-2.432c-3.072-.811-5.44-2.197-7.104-4.16-1.622-1.963-2.432-4.352-2.432-7.168 0-4.437 1.578-7.936 4.736-10.496 3.2-2.603 7.51-3.904 12.928-3.904 3.712 0 7.317.683 10.816 2.048 3.541 1.365 6.528 3.264 8.96 5.696l-6.784 7.68c-2.176-2.133-4.416-3.712-6.72-4.736-2.262-1.024-4.672-1.536-7.232-1.536-1.963 0-3.52.363-4.672 1.088-1.152.725-1.728 1.685-1.728 2.88 0 .939.362 1.707 1.088 2.304.768.597 2.005 1.109 3.712 1.536l8.768 2.112c3.626.853 6.4 2.283 8.32 4.288 1.92 2.005 2.88 4.48 2.88 7.424 0 2.304-.448 4.416-1.344 6.336a13.795 13.795 0 01-3.776 4.8c-1.622 1.323-3.606 2.347-5.952 3.072-2.347.725-4.928 1.088-7.744 1.088-4.182 0-8.086-.768-11.712-2.304C6.78 404.8 3.645 402.603 1 399.744zM35.777 408l27.328-44.8h12.352l8.448 44.8H72.769l-1.792-10.816H53.825L47.553 408H35.777zm23.104-19.584h10.688L67.2 374.08l-8.32 14.336zM83.283 408l9.536-44.8h10.752l-7.488 35.072h23.168L117.203 408h-33.92zm36.222 0l9.536-44.8h34.624l-2.048 9.536h-23.872l-1.728 8.064h15.744l-1.92 9.216h-15.744l-1.792 8.448h24.128L154.385 408h-34.88zm37.072-8.256l7.04-7.552c2.432 2.517 4.843 4.373 7.232 5.568a17.868 17.868 0 007.744 1.728c2.219 0 3.968-.405 5.248-1.216 1.28-.811 1.92-1.941 1.92-3.392 0-.981-.426-1.792-1.28-2.432-.81-.64-2.197-1.216-4.16-1.728l-9.344-2.432c-3.072-.811-5.44-2.197-7.104-4.16-1.621-1.963-2.432-4.352-2.432-7.168 0-4.437 1.579-7.936 4.736-10.496 3.2-2.603 7.51-3.904 12.928-3.904 3.712 0 7.318.683 10.816 2.048 3.542 1.365 6.528 3.264 8.96 5.696l-6.784 7.68c-2.176-2.133-4.416-3.712-6.72-4.736-2.261-1.024-4.672-1.536-7.232-1.536-1.962 0-3.52.363-4.672 1.088-1.152.725-1.728 1.685-1.728 2.88 0 .939.363 1.707 1.088 2.304.768.597 2.006 1.109 3.712 1.536l8.768 2.112c3.627.853 6.4 2.283 8.32 4.288 1.92 2.005 2.88 4.48 2.88 7.424 0 2.304-.448 4.416-1.344 6.336a13.787 13.787 0 01-3.776 4.8c-1.621 1.323-3.605 2.347-5.952 3.072-2.346.725-4.928 1.088-7.744 1.088-4.181 0-8.085-.768-11.712-2.304-3.626-1.536-6.762-3.733-9.408-6.592zM1 469.744l7.04-7.552c2.432 2.517 4.842 4.373 7.232 5.568a17.866 17.866 0 007.744 1.728c2.218 0 3.968-.405 5.248-1.216 1.28-.811 1.92-1.941 1.92-3.392 0-.981-.427-1.792-1.28-2.432-.81-.64-2.198-1.216-4.16-1.728l-9.344-2.432c-3.072-.811-5.44-2.197-7.104-4.16-1.622-1.963-2.432-4.352-2.432-7.168 0-4.437 1.578-7.936 4.736-10.496 3.2-2.603 7.51-3.904 12.928-3.904 3.712 0 7.317.683 10.816 2.048 3.541 1.365 6.528 3.264 8.96 5.696l-6.784 7.68c-2.176-2.133-4.416-3.712-6.72-4.736-2.262-1.024-4.672-1.536-7.232-1.536-1.963 0-3.52.363-4.672 1.088-1.152.725-1.728 1.685-1.728 2.88 0 .939.362 1.707 1.088 2.304.768.597 2.005 1.109 3.712 1.536l8.768 2.112c3.626.853 6.4 2.283 8.32 4.288 1.92 2.005 2.88 4.48 2.88 7.424 0 2.304-.448 4.416-1.344 6.336a13.795 13.795 0 01-3.776 4.8c-1.622 1.323-3.606 2.347-5.952 3.072-2.347.725-4.928 1.088-7.744 1.088-4.182 0-8.086-.768-11.712-2.304C6.78 474.8 3.645 472.603 1 469.744zM35.777 478l27.328-44.8h12.352l8.448 44.8H72.769l-1.792-10.816H53.825L47.553 478H35.777zm23.104-19.584h10.688L67.2 444.08l-8.32 14.336zM83.283 478l9.536-44.8h10.752l-7.488 35.072h23.168L117.203 478h-33.92zm36.222 0l9.536-44.8h34.624l-2.048 9.536h-23.872l-1.728 8.064h15.744l-1.92 9.216h-15.744l-1.792 8.448h24.128L154.385 478h-34.88zm37.072-8.256l7.04-7.552c2.432 2.517 4.843 4.373 7.232 5.568a17.868 17.868 0 007.744 1.728c2.219 0 3.968-.405 5.248-1.216 1.28-.811 1.92-1.941 1.92-3.392 0-.981-.426-1.792-1.28-2.432-.81-.64-2.197-1.216-4.16-1.728l-9.344-2.432c-3.072-.811-5.44-2.197-7.104-4.16-1.621-1.963-2.432-4.352-2.432-7.168 0-4.437 1.579-7.936 4.736-10.496 3.2-2.603 7.51-3.904 12.928-3.904 3.712 0 7.318.683 10.816 2.048 3.542 1.365 6.528 3.264 8.96 5.696l-6.784 7.68c-2.176-2.133-4.416-3.712-6.72-4.736-2.261-1.024-4.672-1.536-7.232-1.536-1.962 0-3.52.363-4.672 1.088-1.152.725-1.728 1.685-1.728 2.88 0 .939.363 1.707 1.088 2.304.768.597 2.006 1.109 3.712 1.536l8.768 2.112c3.627.853 6.4 2.283 8.32 4.288 1.92 2.005 2.88 4.48 2.88 7.424 0 2.304-.448 4.416-1.344 6.336a13.787 13.787 0 01-3.776 4.8c-1.621 1.323-3.605 2.347-5.952 3.072-2.346.725-4.928 1.088-7.744 1.088-4.181 0-8.085-.768-11.712-2.304-3.626-1.536-6.762-3.733-9.408-6.592zM1 539.744l7.04-7.552c2.432 2.517 4.842 4.373 7.232 5.568a17.866 17.866 0 007.744 1.728c2.218 0 3.968-.405 5.248-1.216 1.28-.811 1.92-1.941 1.92-3.392 0-.981-.427-1.792-1.28-2.432-.81-.64-2.198-1.216-4.16-1.728l-9.344-2.432c-3.072-.811-5.44-2.197-7.104-4.16-1.622-1.963-2.432-4.352-2.432-7.168 0-4.437 1.578-7.936 4.736-10.496 3.2-2.603 7.51-3.904 12.928-3.904 3.712 0 7.317.683 10.816 2.048 3.541 1.365 6.528 3.264 8.96 5.696l-6.784 7.68c-2.176-2.133-4.416-3.712-6.72-4.736-2.262-1.024-4.672-1.536-7.232-1.536-1.963 0-3.52.363-4.672 1.088-1.152.725-1.728 1.685-1.728 2.88 0 .939.362 1.707 1.088 2.304.768.597 2.005 1.109 3.712 1.536l8.768 2.112c3.626.853 6.4 2.283 8.32 4.288 1.92 2.005 2.88 4.48 2.88 7.424 0 2.304-.448 4.416-1.344 6.336a13.795 13.795 0 01-3.776 4.8c-1.622 1.323-3.606 2.347-5.952 3.072-2.347.725-4.928 1.088-7.744 1.088-4.182 0-8.086-.768-11.712-2.304C6.78 544.8 3.645 542.603 1 539.744zM35.777 548l27.328-44.8h12.352l8.448 44.8H72.769l-1.792-10.816H53.825L47.553 548H35.777zm23.104-19.584h10.688L67.2 514.08l-8.32 14.336zM83.283 548l9.536-44.8h10.752l-7.488 35.072h23.168L117.203 548h-33.92zm36.222 0l9.536-44.8h34.624l-2.048 9.536h-23.872l-1.728 8.064h15.744l-1.92 9.216h-15.744l-1.792 8.448h24.128L154.385 548h-34.88zm37.072-8.256l7.04-7.552c2.432 2.517 4.843 4.373 7.232 5.568a17.868 17.868 0 007.744 1.728c2.219 0 3.968-.405 5.248-1.216 1.28-.811 1.92-1.941 1.92-3.392 0-.981-.426-1.792-1.28-2.432-.81-.64-2.197-1.216-4.16-1.728l-9.344-2.432c-3.072-.811-5.44-2.197-7.104-4.16-1.621-1.963-2.432-4.352-2.432-7.168 0-4.437 1.579-7.936 4.736-10.496 3.2-2.603 7.51-3.904 12.928-3.904 3.712 0 7.318.683 10.816 2.048 3.542 1.365 6.528 3.264 8.96 5.696l-6.784 7.68c-2.176-2.133-4.416-3.712-6.72-4.736-2.261-1.024-4.672-1.536-7.232-1.536-1.962 0-3.52.363-4.672 1.088-1.152.725-1.728 1.685-1.728 2.88 0 .939.363 1.707 1.088 2.304.768.597 2.006 1.109 3.712 1.536l8.768 2.112c3.627.853 6.4 2.283 8.32 4.288 1.92 2.005 2.88 4.48 2.88 7.424 0 2.304-.448 4.416-1.344 6.336a13.787 13.787 0 01-3.776 4.8c-1.621 1.323-3.605 2.347-5.952 3.072-2.346.725-4.928 1.088-7.744 1.088-4.181 0-8.085-.768-11.712-2.304-3.626-1.536-6.762-3.733-9.408-6.592z" opacity=".08" fill="#242424"/></svg>