<svg width="382" height="560" viewBox="0 0 382 560" fill="none" xmlns="http://www.w3.org/2000/svg"><path d="M9.6 13.2h20.352c4.096 0 7.403 1.003 9.92 3.008 2.517 2.005 3.776 4.672 3.776 8 0 2.304-.619 4.437-1.856 6.4s-2.88 3.563-4.928 4.8c1.45.939 2.603 2.112 3.456 3.52.853 1.408 1.28 2.965 1.28 4.672 0 2.048-.448 3.947-1.344 5.696a15.163 15.163 0 01-3.648 4.608c-1.536 1.28-3.37 2.283-5.504 3.008-2.09.725-4.352 1.088-6.784 1.088H.064L9.6 13.2zm18.496 9.024h-9.664l-1.856 8.832h10.24c1.664 0 3.05-.47 4.16-1.408 1.11-.981 1.664-2.197 1.664-3.648 0-1.195-.405-2.112-1.216-2.752-.81-.683-1.92-1.024-3.328-1.024zm-3.52 26.752c1.792 0 3.264-.512 4.416-1.536 1.195-1.024 1.792-2.325 1.792-3.904 0-1.237-.448-2.219-1.344-2.944-.853-.725-2.048-1.088-3.584-1.088H14.784l-2.048 9.472h11.84zM40.474 58l9.536-44.8h34.624l-2.048 9.536H58.714L56.986 30.8H72.73l-1.92 9.216H55.066l-1.792 8.448h24.128L75.354 58h-34.88zm37.072-8.256l7.04-7.552c2.432 2.517 4.843 4.373 7.232 5.568a17.866 17.866 0 007.744 1.728c2.219 0 3.968-.405 5.248-1.216 1.28-.81 1.92-1.941 1.92-3.392 0-.981-.427-1.792-1.28-2.432-.811-.64-2.197-1.216-4.16-1.728l-9.344-2.432c-3.072-.81-5.44-2.197-7.104-4.16-1.621-1.963-2.432-4.352-2.432-7.168 0-4.437 1.579-7.936 4.736-10.496 3.2-2.603 7.51-3.904 12.928-3.904 3.712 0 7.317.683 10.816 2.048 3.541 1.365 6.528 3.264 8.96 5.696l-6.784 7.68c-2.176-2.133-4.416-3.712-6.72-4.736-2.261-1.024-4.672-1.536-7.232-1.536-1.963 0-3.52.363-4.672 1.088-1.152.725-1.728 1.685-1.728 2.88 0 .939.363 1.707 1.088 2.304.768.597 2.005 1.11 3.712 1.536l8.768 2.112c3.627.853 6.4 2.283 8.32 4.288 1.92 2.005 2.88 4.48 2.88 7.424 0 2.304-.448 4.416-1.344 6.336a13.793 13.793 0 01-3.776 4.8c-1.621 1.323-3.605 2.347-5.952 3.072-2.347.725-4.928 1.088-7.744 1.088-4.181 0-8.085-.768-11.712-2.304-3.627-1.536-6.763-3.733-9.408-6.592zm39.989-26.816l2.112-9.728h39.488l-2.112 9.728h-14.272L135.263 58h-10.816l7.488-35.072h-14.4zm33.893 26.816l7.04-7.552c2.432 2.517 4.843 4.373 7.233 5.568a17.86 17.86 0 007.743 1.728c2.219 0 3.969-.405 5.249-1.216 1.28-.81 1.92-1.941 1.92-3.392 0-.981-.427-1.792-1.28-2.432-.811-.64-2.198-1.216-4.16-1.728l-9.345-2.432c-3.072-.81-5.44-2.197-7.104-4.16-1.621-1.963-2.432-4.352-2.432-7.168 0-4.437 1.579-7.936 4.736-10.496 3.2-2.603 7.51-3.904 12.929-3.904 3.712 0 7.317.683 10.815 2.048 3.542 1.365 6.529 3.264 8.961 5.696l-6.784 7.68c-2.176-2.133-4.416-3.712-6.72-4.736-2.262-1.024-4.672-1.536-7.232-1.536-1.963 0-3.521.363-4.672 1.088-1.152.725-1.728 1.685-1.728 2.88 0 .939.362 1.707 1.087 2.304.769.597 2.006 1.11 3.712 1.536l8.769 2.112c3.626.853 6.4 2.283 8.32 4.288 1.92 2.005 2.88 4.48 2.88 7.424 0 2.304-.448 4.416-1.344 6.336a13.784 13.784 0 01-3.777 4.8c-1.621 1.323-3.605 2.347-5.951 3.072-2.347.725-4.928 1.088-7.744 1.088-4.182 0-8.086-.768-11.712-2.304-3.627-1.536-6.763-3.733-9.409-6.592zM189.052 58l9.536-44.8h34.624l-2.048 9.536h-23.872l-1.728 8.064h15.744l-1.92 9.216h-15.744l-1.792 8.448h24.128L223.932 58h-34.88zm37.535 0l9.536-44.8h10.752l-7.488 35.072h23.168L260.507 58h-33.92zm36.222 0l9.536-44.8h10.752l-7.488 35.072h23.168L296.729 58h-33.92zm36.222 0l9.536-44.8h34.625l-2.048 9.536h-23.873l-1.728 8.064h15.744l-1.919 9.216h-15.745l-1.792 8.448h24.128L333.911 58h-34.88zm37.536 0l9.536-44.8h20.864c4.181 0 7.573 1.216 10.176 3.648 2.645 2.39 3.968 5.504 3.968 9.344 0 3.37-1.088 6.379-3.264 9.024-2.134 2.645-4.864 4.48-8.192 5.504L376.503 58h-11.392l-5.824-16.448h-8.448L347.319 58h-10.752zm28.48-35.392h-10.176l-2.112 9.984h11.2c1.749 0 3.2-.512 4.352-1.536 1.194-1.024 1.792-2.304 1.792-3.84 0-1.408-.47-2.517-1.408-3.328-.896-.853-2.112-1.28-3.648-1.28zM9.63 83.2h20.352c4.096 0 7.403 1.003 9.92 3.008 2.517 2.005 3.776 4.672 3.776 8 0 2.304-.619 4.437-1.856 6.4s-2.88 3.563-4.928 4.8c1.45.939 2.603 2.112 3.456 3.52.853 1.408 1.28 2.965 1.28 4.672 0 2.048-.448 3.947-1.344 5.696a15.17 15.17 0 01-3.648 4.608c-1.536 1.28-3.37 2.283-5.504 3.008-2.09.725-4.352 1.088-6.784 1.088H.094L9.63 83.2zm18.496 9.024h-9.664l-1.856 8.832h10.24c1.664 0 3.05-.469 4.16-1.408 1.11-.981 1.664-2.197 1.664-3.648 0-1.195-.405-2.112-1.216-2.752-.81-.683-1.92-1.024-3.328-1.024zm-3.52 26.752c1.792 0 3.264-.512 4.416-1.536 1.195-1.024 1.792-2.325 1.792-3.904 0-1.237-.448-2.219-1.344-2.944-.853-.725-2.048-1.088-3.584-1.088H14.814l-2.048 9.472h11.84zM40.504 128l9.536-44.8h34.624l-2.048 9.536H58.744l-1.728 8.064H72.76l-1.92 9.216H55.096l-1.792 8.448h24.128L75.384 128h-34.88zm37.072-8.256l7.04-7.552c2.432 2.517 4.843 4.373 7.232 5.568a17.866 17.866 0 007.744 1.728c2.219 0 3.968-.405 5.248-1.216 1.28-.811 1.92-1.941 1.92-3.392 0-.981-.427-1.792-1.28-2.432-.811-.64-2.197-1.216-4.16-1.728l-9.344-2.432c-3.072-.811-5.44-2.197-7.104-4.16-1.621-1.963-2.432-4.352-2.432-7.168 0-4.437 1.579-7.936 4.736-10.496 3.2-2.603 7.51-3.904 12.928-3.904 3.712 0 7.317.683 10.816 2.048 3.541 1.365 6.528 3.264 8.96 5.696l-6.784 7.68c-2.176-2.133-4.416-3.712-6.72-4.736-2.261-1.024-4.672-1.536-7.232-1.536-1.963 0-3.52.363-4.672 1.088-1.152.725-1.728 1.685-1.728 2.88 0 .939.363 1.707 1.088 2.304.768.597 2.005 1.11 3.712 1.536l8.768 2.112c3.627.853 6.4 2.283 8.32 4.288 1.92 2.005 2.88 4.48 2.88 7.424 0 2.304-.448 4.416-1.344 6.336a13.798 13.798 0 01-3.776 4.8c-1.621 1.323-3.605 2.347-5.952 3.072-2.347.725-4.928 1.088-7.744 1.088-4.181 0-8.085-.768-11.712-2.304-3.627-1.536-6.763-3.733-9.408-6.592zm39.989-26.816l2.112-9.728h39.488l-2.112 9.728h-14.272L135.293 128h-10.816l7.488-35.072h-14.4zm33.893 26.816l7.04-7.552c2.432 2.517 4.843 4.373 7.232 5.568a17.868 17.868 0 007.744 1.728c2.219 0 3.968-.405 5.248-1.216 1.28-.811 1.92-1.941 1.92-3.392 0-.981-.426-1.792-1.28-2.432-.81-.64-2.197-1.216-4.16-1.728l-9.344-2.432c-3.072-.811-5.44-2.197-7.104-4.16-1.621-1.963-2.432-4.352-2.432-7.168 0-4.437 1.579-7.936 4.736-10.496 3.2-2.603 7.51-3.904 12.928-3.904 3.712 0 7.318.683 10.816 2.048 3.542 1.365 6.528 3.264 8.961 5.696l-6.784 7.68c-2.176-2.133-4.417-3.712-6.721-4.736-2.261-1.024-4.672-1.536-7.232-1.536-1.962 0-3.52.363-4.672 1.088-1.152.725-1.728 1.685-1.728 2.88 0 .939.363 1.707 1.088 2.304.768.597 2.006 1.11 3.712 1.536l8.768 2.112c3.627.853 6.4 2.283 8.32 4.288 1.921 2.005 2.881 4.48 2.881 7.424 0 2.304-.448 4.416-1.345 6.336a13.775 13.775 0 01-3.776 4.8c-1.621 1.323-3.605 2.347-5.951 3.072-2.347.725-4.929 1.088-7.745 1.088-4.181 0-8.085-.768-11.712-2.304-3.626-1.536-6.762-3.733-9.408-6.592zM189.082 128l9.536-44.8h34.624l-2.048 9.536h-23.872l-1.728 8.064h15.744l-1.92 9.216h-15.744l-1.792 8.448h24.128L223.962 128h-34.88zm37.535 0l9.536-44.8h10.752l-7.488 35.072h23.168L260.537 128h-33.92zm36.222 0l9.536-44.8h10.752l-7.488 35.072h23.168L296.759 128h-33.92zm36.222 0l9.536-44.8h34.625l-2.048 9.536h-23.873l-1.728 8.064h15.744l-1.92 9.216h-15.744l-1.792 8.448h24.128L333.941 128h-34.88zm37.536 0l9.536-44.8h20.864c4.181 0 7.573 1.216 10.176 3.648 2.645 2.39 3.968 5.504 3.968 9.344 0 3.37-1.088 6.379-3.264 9.024-2.134 2.645-4.864 4.48-8.192 5.504l6.848 17.28h-11.392l-5.824-16.448h-8.448L347.349 128h-10.752zm28.48-35.392h-10.176l-2.112 9.984h11.2c1.749 0 3.2-.512 4.352-1.536 1.194-1.024 1.792-2.304 1.792-3.84 0-1.408-.47-2.517-1.408-3.328-.896-.853-2.112-1.28-3.648-1.28zM9.63 153.2h20.352c4.096 0 7.403 1.003 9.92 3.008 2.517 2.005 3.776 4.672 3.776 8 0 2.304-.619 4.437-1.856 6.4s-2.88 3.563-4.928 4.8c1.45.939 2.603 2.112 3.456 3.52.853 1.408 1.28 2.965 1.28 4.672 0 2.048-.448 3.947-1.344 5.696a15.17 15.17 0 01-3.648 4.608c-1.536 1.28-3.37 2.283-5.504 3.008-2.09.725-4.352 1.088-6.784 1.088H.094l9.536-44.8zm18.496 9.024h-9.664l-1.856 8.832h10.24c1.664 0 3.05-.469 4.16-1.408 1.11-.981 1.664-2.197 1.664-3.648 0-1.195-.405-2.112-1.216-2.752-.81-.683-1.92-1.024-3.328-1.024zm-3.52 26.752c1.792 0 3.264-.512 4.416-1.536 1.195-1.024 1.792-2.325 1.792-3.904 0-1.237-.448-2.219-1.344-2.944-.853-.725-2.048-1.088-3.584-1.088H14.814l-2.048 9.472h11.84zM40.504 198l9.536-44.8h34.624l-2.048 9.536H58.744l-1.728 8.064H72.76l-1.92 9.216H55.096l-1.792 8.448h24.128L75.384 198h-34.88zm37.072-8.256l7.04-7.552c2.432 2.517 4.843 4.373 7.232 5.568a17.866 17.866 0 007.744 1.728c2.219 0 3.968-.405 5.248-1.216 1.28-.811 1.92-1.941 1.92-3.392 0-.981-.427-1.792-1.28-2.432-.811-.64-2.197-1.216-4.16-1.728l-9.344-2.432c-3.072-.811-5.44-2.197-7.104-4.16-1.621-1.963-2.432-4.352-2.432-7.168 0-4.437 1.579-7.936 4.736-10.496 3.2-2.603 7.51-3.904 12.928-3.904 3.712 0 7.317.683 10.816 2.048 3.541 1.365 6.528 3.264 8.96 5.696l-6.784 7.68c-2.176-2.133-4.416-3.712-6.72-4.736-2.261-1.024-4.672-1.536-7.232-1.536-1.963 0-3.52.363-4.672 1.088-1.152.725-1.728 1.685-1.728 2.88 0 .939.363 1.707 1.088 2.304.768.597 2.005 1.109 3.712 1.536l8.768 2.112c3.627.853 6.4 2.283 8.32 4.288 1.92 2.005 2.88 4.48 2.88 7.424 0 2.304-.448 4.416-1.344 6.336a13.798 13.798 0 01-3.776 4.8c-1.621 1.323-3.605 2.347-5.952 3.072-2.347.725-4.928 1.088-7.744 1.088-4.181 0-8.085-.768-11.712-2.304-3.627-1.536-6.763-3.733-9.408-6.592zm39.989-26.816l2.112-9.728h39.488l-2.112 9.728h-14.272L135.293 198h-10.816l7.488-35.072h-14.4zm33.893 26.816l7.04-7.552c2.432 2.517 4.843 4.373 7.232 5.568a17.868 17.868 0 007.744 1.728c2.219 0 3.968-.405 5.248-1.216 1.28-.811 1.92-1.941 1.92-3.392 0-.981-.426-1.792-1.28-2.432-.81-.64-2.197-1.216-4.16-1.728l-9.344-2.432c-3.072-.811-5.44-2.197-7.104-4.16-1.621-1.963-2.432-4.352-2.432-7.168 0-4.437 1.579-7.936 4.736-10.496 3.2-2.603 7.51-3.904 12.928-3.904 3.712 0 7.318.683 10.816 2.048 3.542 1.365 6.528 3.264 8.961 5.696l-6.784 7.68c-2.176-2.133-4.417-3.712-6.721-4.736-2.261-1.024-4.672-1.536-7.232-1.536-1.962 0-3.52.363-4.672 1.088-1.152.725-1.728 1.685-1.728 2.88 0 .939.363 1.707 1.088 2.304.768.597 2.006 1.109 3.712 1.536l8.768 2.112c3.627.853 6.4 2.283 8.32 4.288 1.921 2.005 2.881 4.48 2.881 7.424 0 2.304-.448 4.416-1.345 6.336a13.775 13.775 0 01-3.776 4.8c-1.621 1.323-3.605 2.347-5.951 3.072-2.347.725-4.929 1.088-7.745 1.088-4.181 0-8.085-.768-11.712-2.304-3.626-1.536-6.762-3.733-9.408-6.592zM189.082 198l9.536-44.8h34.624l-2.048 9.536h-23.872l-1.728 8.064h15.744l-1.92 9.216h-15.744l-1.792 8.448h24.128L223.962 198h-34.88zm37.535 0l9.536-44.8h10.752l-7.488 35.072h23.168L260.537 198h-33.92zm36.222 0l9.536-44.8h10.752l-7.488 35.072h23.168L296.759 198h-33.92zm36.222 0l9.536-44.8h34.625l-2.048 9.536h-23.873l-1.728 8.064h15.744l-1.92 9.216h-15.744l-1.792 8.448h24.128L333.941 198h-34.88zm37.536 0l9.536-44.8h20.864c4.181 0 7.573 1.216 10.176 3.648 2.645 2.389 3.968 5.504 3.968 9.344 0 3.371-1.088 6.379-3.264 9.024-2.134 2.645-4.864 4.48-8.192 5.504l6.848 17.28h-11.392l-5.824-16.448h-8.448L347.349 198h-10.752zm28.48-35.392h-10.176l-2.112 9.984h11.2c1.749 0 3.2-.512 4.352-1.536 1.194-1.024 1.792-2.304 1.792-3.84 0-1.408-.47-2.517-1.408-3.328-.896-.853-2.112-1.28-3.648-1.28zM9.63 223.2h20.352c4.096 0 7.403 1.003 9.92 3.008 2.517 2.005 3.776 4.672 3.776 8 0 2.304-.619 4.437-1.856 6.4s-2.88 3.563-4.928 4.8c1.45.939 2.603 2.112 3.456 3.52.853 1.408 1.28 2.965 1.28 4.672 0 2.048-.448 3.947-1.344 5.696a15.17 15.17 0 01-3.648 4.608c-1.536 1.28-3.37 2.283-5.504 3.008-2.09.725-4.352 1.088-6.784 1.088H.094l9.536-44.8zm18.496 9.024h-9.664l-1.856 8.832h10.24c1.664 0 3.05-.469 4.16-1.408 1.11-.981 1.664-2.197 1.664-3.648 0-1.195-.405-2.112-1.216-2.752-.81-.683-1.92-1.024-3.328-1.024zm-3.52 26.752c1.792 0 3.264-.512 4.416-1.536 1.195-1.024 1.792-2.325 1.792-3.904 0-1.237-.448-2.219-1.344-2.944-.853-.725-2.048-1.088-3.584-1.088H14.814l-2.048 9.472h11.84zM40.504 268l9.536-44.8h34.624l-2.048 9.536H58.744l-1.728 8.064H72.76l-1.92 9.216H55.096l-1.792 8.448h24.128L75.384 268h-34.88zm37.072-8.256l7.04-7.552c2.432 2.517 4.843 4.373 7.232 5.568a17.866 17.866 0 007.744 1.728c2.219 0 3.968-.405 5.248-1.216 1.28-.811 1.92-1.941 1.92-3.392 0-.981-.427-1.792-1.28-2.432-.811-.64-2.197-1.216-4.16-1.728l-9.344-2.432c-3.072-.811-5.44-2.197-7.104-4.16-1.621-1.963-2.432-4.352-2.432-7.168 0-4.437 1.579-7.936 4.736-10.496 3.2-2.603 7.51-3.904 12.928-3.904 3.712 0 7.317.683 10.816 2.048 3.541 1.365 6.528 3.264 8.96 5.696l-6.784 7.68c-2.176-2.133-4.416-3.712-6.72-4.736-2.261-1.024-4.672-1.536-7.232-1.536-1.963 0-3.52.363-4.672 1.088-1.152.725-1.728 1.685-1.728 2.88 0 .939.363 1.707 1.088 2.304.768.597 2.005 1.109 3.712 1.536l8.768 2.112c3.627.853 6.4 2.283 8.32 4.288 1.92 2.005 2.88 4.48 2.88 7.424 0 2.304-.448 4.416-1.344 6.336a13.798 13.798 0 01-3.776 4.8c-1.621 1.323-3.605 2.347-5.952 3.072-2.347.725-4.928 1.088-7.744 1.088-4.181 0-8.085-.768-11.712-2.304-3.627-1.536-6.763-3.733-9.408-6.592zm39.989-26.816l2.112-9.728h39.488l-2.112 9.728h-14.272L135.293 268h-10.816l7.488-35.072h-14.4zm33.893 26.816l7.04-7.552c2.432 2.517 4.843 4.373 7.232 5.568a17.868 17.868 0 007.744 1.728c2.219 0 3.968-.405 5.248-1.216 1.28-.811 1.92-1.941 1.92-3.392 0-.981-.426-1.792-1.28-2.432-.81-.64-2.197-1.216-4.16-1.728l-9.344-2.432c-3.072-.811-5.44-2.197-7.104-4.16-1.621-1.963-2.432-4.352-2.432-7.168 0-4.437 1.579-7.936 4.736-10.496 3.2-2.603 7.51-3.904 12.928-3.904 3.712 0 7.318.683 10.816 2.048 3.542 1.365 6.528 3.264 8.961 5.696l-6.784 7.68c-2.176-2.133-4.417-3.712-6.721-4.736-2.261-1.024-4.672-1.536-7.232-1.536-1.962 0-3.52.363-4.672 1.088-1.152.725-1.728 1.685-1.728 2.88 0 .939.363 1.707 1.088 2.304.768.597 2.006 1.109 3.712 1.536l8.768 2.112c3.627.853 6.4 2.283 8.32 4.288 1.921 2.005 2.881 4.48 2.881 7.424 0 2.304-.448 4.416-1.345 6.336a13.775 13.775 0 01-3.776 4.8c-1.621 1.323-3.605 2.347-5.951 3.072-2.347.725-4.929 1.088-7.745 1.088-4.181 0-8.085-.768-11.712-2.304-3.626-1.536-6.762-3.733-9.408-6.592zM189.082 268l9.536-44.8h34.624l-2.048 9.536h-23.872l-1.728 8.064h15.744l-1.92 9.216h-15.744l-1.792 8.448h24.128L223.962 268h-34.88zm37.535 0l9.536-44.8h10.752l-7.488 35.072h23.168L260.537 268h-33.92zm36.222 0l9.536-44.8h10.752l-7.488 35.072h23.168L296.759 268h-33.92zm36.222 0l9.536-44.8h34.625l-2.048 9.536h-23.873l-1.728 8.064h15.744l-1.92 9.216h-15.744l-1.792 8.448h24.128L333.941 268h-34.88zm37.536 0l9.536-44.8h20.864c4.181 0 7.573 1.216 10.176 3.648 2.645 2.389 3.968 5.504 3.968 9.344 0 3.371-1.088 6.379-3.264 9.024-2.134 2.645-4.864 4.48-8.192 5.504l6.848 17.28h-11.392l-5.824-16.448h-8.448L347.349 268h-10.752zm28.48-35.392h-10.176l-2.112 9.984h11.2c1.749 0 3.2-.512 4.352-1.536 1.194-1.024 1.792-2.304 1.792-3.84 0-1.408-.47-2.517-1.408-3.328-.896-.853-2.112-1.28-3.648-1.28zM9.63 293.2h20.352c4.096 0 7.403 1.003 9.92 3.008 2.517 2.005 3.776 4.672 3.776 8 0 2.304-.619 4.437-1.856 6.4s-2.88 3.563-4.928 4.8c1.45.939 2.603 2.112 3.456 3.52.853 1.408 1.28 2.965 1.28 4.672 0 2.048-.448 3.947-1.344 5.696a15.17 15.17 0 01-3.648 4.608c-1.536 1.28-3.37 2.283-5.504 3.008-2.09.725-4.352 1.088-6.784 1.088H.094l9.536-44.8zm18.496 9.024h-9.664l-1.856 8.832h10.24c1.664 0 3.05-.469 4.16-1.408 1.11-.981 1.664-2.197 1.664-3.648 0-1.195-.405-2.112-1.216-2.752-.81-.683-1.92-1.024-3.328-1.024zm-3.52 26.752c1.792 0 3.264-.512 4.416-1.536 1.195-1.024 1.792-2.325 1.792-3.904 0-1.237-.448-2.219-1.344-2.944-.853-.725-2.048-1.088-3.584-1.088H14.814l-2.048 9.472h11.84zM40.504 338l9.536-44.8h34.624l-2.048 9.536H58.744l-1.728 8.064H72.76l-1.92 9.216H55.096l-1.792 8.448h24.128L75.384 338h-34.88zm37.072-8.256l7.04-7.552c2.432 2.517 4.843 4.373 7.232 5.568a17.866 17.866 0 007.744 1.728c2.219 0 3.968-.405 5.248-1.216 1.28-.811 1.92-1.941 1.92-3.392 0-.981-.427-1.792-1.28-2.432-.811-.64-2.197-1.216-4.16-1.728l-9.344-2.432c-3.072-.811-5.44-2.197-7.104-4.16-1.621-1.963-2.432-4.352-2.432-7.168 0-4.437 1.579-7.936 4.736-10.496 3.2-2.603 7.51-3.904 12.928-3.904 3.712 0 7.317.683 10.816 2.048 3.541 1.365 6.528 3.264 8.96 5.696l-6.784 7.68c-2.176-2.133-4.416-3.712-6.72-4.736-2.261-1.024-4.672-1.536-7.232-1.536-1.963 0-3.52.363-4.672 1.088-1.152.725-1.728 1.685-1.728 2.88 0 .939.363 1.707 1.088 2.304.768.597 2.005 1.109 3.712 1.536l8.768 2.112c3.627.853 6.4 2.283 8.32 4.288 1.92 2.005 2.88 4.48 2.88 7.424 0 2.304-.448 4.416-1.344 6.336a13.798 13.798 0 01-3.776 4.8c-1.621 1.323-3.605 2.347-5.952 3.072-2.347.725-4.928 1.088-7.744 1.088-4.181 0-8.085-.768-11.712-2.304-3.627-1.536-6.763-3.733-9.408-6.592zm39.989-26.816l2.112-9.728h39.488l-2.112 9.728h-14.272L135.293 338h-10.816l7.488-35.072h-14.4zm33.893 26.816l7.04-7.552c2.432 2.517 4.843 4.373 7.232 5.568a17.868 17.868 0 007.744 1.728c2.219 0 3.968-.405 5.248-1.216 1.28-.811 1.92-1.941 1.92-3.392 0-.981-.426-1.792-1.28-2.432-.81-.64-2.197-1.216-4.16-1.728l-9.344-2.432c-3.072-.811-5.44-2.197-7.104-4.16-1.621-1.963-2.432-4.352-2.432-7.168 0-4.437 1.579-7.936 4.736-10.496 3.2-2.603 7.51-3.904 12.928-3.904 3.712 0 7.318.683 10.816 2.048 3.542 1.365 6.528 3.264 8.961 5.696l-6.784 7.68c-2.176-2.133-4.417-3.712-6.721-4.736-2.261-1.024-4.672-1.536-7.232-1.536-1.962 0-3.52.363-4.672 1.088-1.152.725-1.728 1.685-1.728 2.88 0 .939.363 1.707 1.088 2.304.768.597 2.006 1.109 3.712 1.536l8.768 2.112c3.627.853 6.4 2.283 8.32 4.288 1.921 2.005 2.881 4.48 2.881 7.424 0 2.304-.448 4.416-1.345 6.336a13.775 13.775 0 01-3.776 4.8c-1.621 1.323-3.605 2.347-5.951 3.072-2.347.725-4.929 1.088-7.745 1.088-4.181 0-8.085-.768-11.712-2.304-3.626-1.536-6.762-3.733-9.408-6.592zM189.082 338l9.536-44.8h34.624l-2.048 9.536h-23.872l-1.728 8.064h15.744l-1.92 9.216h-15.744l-1.792 8.448h24.128L223.962 338h-34.88zm37.535 0l9.536-44.8h10.752l-7.488 35.072h23.168L260.537 338h-33.92zm36.222 0l9.536-44.8h10.752l-7.488 35.072h23.168L296.759 338h-33.92zm36.222 0l9.536-44.8h34.625l-2.048 9.536h-23.873l-1.728 8.064h15.744l-1.92 9.216h-15.744l-1.792 8.448h24.128L333.941 338h-34.88zm37.536 0l9.536-44.8h20.864c4.181 0 7.573 1.216 10.176 3.648 2.645 2.389 3.968 5.504 3.968 9.344 0 3.371-1.088 6.379-3.264 9.024-2.134 2.645-4.864 4.48-8.192 5.504l6.848 17.28h-11.392l-5.824-16.448h-8.448L347.349 338h-10.752zm28.48-35.392h-10.176l-2.112 9.984h11.2c1.749 0 3.2-.512 4.352-1.536 1.194-1.024 1.792-2.304 1.792-3.84 0-1.408-.47-2.517-1.408-3.328-.896-.853-2.112-1.28-3.648-1.28zM9.63 363.2h20.352c4.096 0 7.403 1.003 9.92 3.008 2.517 2.005 3.776 4.672 3.776 8 0 2.304-.619 4.437-1.856 6.4s-2.88 3.563-4.928 4.8c1.45.939 2.603 2.112 3.456 3.52.853 1.408 1.28 2.965 1.28 4.672 0 2.048-.448 3.947-1.344 5.696a15.17 15.17 0 01-3.648 4.608c-1.536 1.28-3.37 2.283-5.504 3.008-2.09.725-4.352 1.088-6.784 1.088H.094l9.536-44.8zm18.496 9.024h-9.664l-1.856 8.832h10.24c1.664 0 3.05-.469 4.16-1.408 1.11-.981 1.664-2.197 1.664-3.648 0-1.195-.405-2.112-1.216-2.752-.81-.683-1.92-1.024-3.328-1.024zm-3.52 26.752c1.792 0 3.264-.512 4.416-1.536 1.195-1.024 1.792-2.325 1.792-3.904 0-1.237-.448-2.219-1.344-2.944-.853-.725-2.048-1.088-3.584-1.088H14.814l-2.048 9.472h11.84zM40.504 408l9.536-44.8h34.624l-2.048 9.536H58.744l-1.728 8.064H72.76l-1.92 9.216H55.096l-1.792 8.448h24.128L75.384 408h-34.88zm37.072-8.256l7.04-7.552c2.432 2.517 4.843 4.373 7.232 5.568a17.866 17.866 0 007.744 1.728c2.219 0 3.968-.405 5.248-1.216 1.28-.811 1.92-1.941 1.92-3.392 0-.981-.427-1.792-1.28-2.432-.811-.64-2.197-1.216-4.16-1.728l-9.344-2.432c-3.072-.811-5.44-2.197-7.104-4.16-1.621-1.963-2.432-4.352-2.432-7.168 0-4.437 1.579-7.936 4.736-10.496 3.2-2.603 7.51-3.904 12.928-3.904 3.712 0 7.317.683 10.816 2.048 3.541 1.365 6.528 3.264 8.96 5.696l-6.784 7.68c-2.176-2.133-4.416-3.712-6.72-4.736-2.261-1.024-4.672-1.536-7.232-1.536-1.963 0-3.52.363-4.672 1.088-1.152.725-1.728 1.685-1.728 2.88 0 .939.363 1.707 1.088 2.304.768.597 2.005 1.109 3.712 1.536l8.768 2.112c3.627.853 6.4 2.283 8.32 4.288 1.92 2.005 2.88 4.48 2.88 7.424 0 2.304-.448 4.416-1.344 6.336a13.798 13.798 0 01-3.776 4.8c-1.621 1.323-3.605 2.347-5.952 3.072-2.347.725-4.928 1.088-7.744 1.088-4.181 0-8.085-.768-11.712-2.304-3.627-1.536-6.763-3.733-9.408-6.592zm39.989-26.816l2.112-9.728h39.488l-2.112 9.728h-14.272L135.293 408h-10.816l7.488-35.072h-14.4zm33.893 26.816l7.04-7.552c2.432 2.517 4.843 4.373 7.232 5.568a17.868 17.868 0 007.744 1.728c2.219 0 3.968-.405 5.248-1.216 1.28-.811 1.92-1.941 1.92-3.392 0-.981-.426-1.792-1.28-2.432-.81-.64-2.197-1.216-4.16-1.728l-9.344-2.432c-3.072-.811-5.44-2.197-7.104-4.16-1.621-1.963-2.432-4.352-2.432-7.168 0-4.437 1.579-7.936 4.736-10.496 3.2-2.603 7.51-3.904 12.928-3.904 3.712 0 7.318.683 10.816 2.048 3.542 1.365 6.528 3.264 8.961 5.696l-6.784 7.68c-2.176-2.133-4.417-3.712-6.721-4.736-2.261-1.024-4.672-1.536-7.232-1.536-1.962 0-3.52.363-4.672 1.088-1.152.725-1.728 1.685-1.728 2.88 0 .939.363 1.707 1.088 2.304.768.597 2.006 1.109 3.712 1.536l8.768 2.112c3.627.853 6.4 2.283 8.32 4.288 1.921 2.005 2.881 4.48 2.881 7.424 0 2.304-.448 4.416-1.345 6.336a13.775 13.775 0 01-3.776 4.8c-1.621 1.323-3.605 2.347-5.951 3.072-2.347.725-4.929 1.088-7.745 1.088-4.181 0-8.085-.768-11.712-2.304-3.626-1.536-6.762-3.733-9.408-6.592zM189.082 408l9.536-44.8h34.624l-2.048 9.536h-23.872l-1.728 8.064h15.744l-1.92 9.216h-15.744l-1.792 8.448h24.128L223.962 408h-34.88zm37.535 0l9.536-44.8h10.752l-7.488 35.072h23.168L260.537 408h-33.92zm36.222 0l9.536-44.8h10.752l-7.488 35.072h23.168L296.759 408h-33.92zm36.222 0l9.536-44.8h34.625l-2.048 9.536h-23.873l-1.728 8.064h15.744l-1.92 9.216h-15.744l-1.792 8.448h24.128L333.941 408h-34.88zm37.536 0l9.536-44.8h20.864c4.181 0 7.573 1.216 10.176 3.648 2.645 2.389 3.968 5.504 3.968 9.344 0 3.371-1.088 6.379-3.264 9.024-2.134 2.645-4.864 4.48-8.192 5.504l6.848 17.28h-11.392l-5.824-16.448h-8.448L347.349 408h-10.752zm28.48-35.392h-10.176l-2.112 9.984h11.2c1.749 0 3.2-.512 4.352-1.536 1.194-1.024 1.792-2.304 1.792-3.84 0-1.408-.47-2.517-1.408-3.328-.896-.853-2.112-1.28-3.648-1.28zM9.63 433.2h20.352c4.096 0 7.403 1.003 9.92 3.008 2.517 2.005 3.776 4.672 3.776 8 0 2.304-.619 4.437-1.856 6.4s-2.88 3.563-4.928 4.8c1.45.939 2.603 2.112 3.456 3.52.853 1.408 1.28 2.965 1.28 4.672 0 2.048-.448 3.947-1.344 5.696a15.17 15.17 0 01-3.648 4.608c-1.536 1.28-3.37 2.283-5.504 3.008-2.09.725-4.352 1.088-6.784 1.088H.094l9.536-44.8zm18.496 9.024h-9.664l-1.856 8.832h10.24c1.664 0 3.05-.469 4.16-1.408 1.11-.981 1.664-2.197 1.664-3.648 0-1.195-.405-2.112-1.216-2.752-.81-.683-1.92-1.024-3.328-1.024zm-3.52 26.752c1.792 0 3.264-.512 4.416-1.536 1.195-1.024 1.792-2.325 1.792-3.904 0-1.237-.448-2.219-1.344-2.944-.853-.725-2.048-1.088-3.584-1.088H14.814l-2.048 9.472h11.84zM40.504 478l9.536-44.8h34.624l-2.048 9.536H58.744l-1.728 8.064H72.76l-1.92 9.216H55.096l-1.792 8.448h24.128L75.384 478h-34.88zm37.072-8.256l7.04-7.552c2.432 2.517 4.843 4.373 7.232 5.568a17.866 17.866 0 007.744 1.728c2.219 0 3.968-.405 5.248-1.216 1.28-.811 1.92-1.941 1.92-3.392 0-.981-.427-1.792-1.28-2.432-.811-.64-2.197-1.216-4.16-1.728l-9.344-2.432c-3.072-.811-5.44-2.197-7.104-4.16-1.621-1.963-2.432-4.352-2.432-7.168 0-4.437 1.579-7.936 4.736-10.496 3.2-2.603 7.51-3.904 12.928-3.904 3.712 0 7.317.683 10.816 2.048 3.541 1.365 6.528 3.264 8.96 5.696l-6.784 7.68c-2.176-2.133-4.416-3.712-6.72-4.736-2.261-1.024-4.672-1.536-7.232-1.536-1.963 0-3.52.363-4.672 1.088-1.152.725-1.728 1.685-1.728 2.88 0 .939.363 1.707 1.088 2.304.768.597 2.005 1.109 3.712 1.536l8.768 2.112c3.627.853 6.4 2.283 8.32 4.288 1.92 2.005 2.88 4.48 2.88 7.424 0 2.304-.448 4.416-1.344 6.336a13.798 13.798 0 01-3.776 4.8c-1.621 1.323-3.605 2.347-5.952 3.072-2.347.725-4.928 1.088-7.744 1.088-4.181 0-8.085-.768-11.712-2.304-3.627-1.536-6.763-3.733-9.408-6.592zm39.989-26.816l2.112-9.728h39.488l-2.112 9.728h-14.272L135.293 478h-10.816l7.488-35.072h-14.4zm33.893 26.816l7.04-7.552c2.432 2.517 4.843 4.373 7.232 5.568a17.868 17.868 0 007.744 1.728c2.219 0 3.968-.405 5.248-1.216 1.28-.811 1.92-1.941 1.92-3.392 0-.981-.426-1.792-1.28-2.432-.81-.64-2.197-1.216-4.16-1.728l-9.344-2.432c-3.072-.811-5.44-2.197-7.104-4.16-1.621-1.963-2.432-4.352-2.432-7.168 0-4.437 1.579-7.936 4.736-10.496 3.2-2.603 7.51-3.904 12.928-3.904 3.712 0 7.318.683 10.816 2.048 3.542 1.365 6.528 3.264 8.961 5.696l-6.784 7.68c-2.176-2.133-4.417-3.712-6.721-4.736-2.261-1.024-4.672-1.536-7.232-1.536-1.962 0-3.52.363-4.672 1.088-1.152.725-1.728 1.685-1.728 2.88 0 .939.363 1.707 1.088 2.304.768.597 2.006 1.109 3.712 1.536l8.768 2.112c3.627.853 6.4 2.283 8.32 4.288 1.921 2.005 2.881 4.48 2.881 7.424 0 2.304-.448 4.416-1.345 6.336a13.775 13.775 0 01-3.776 4.8c-1.621 1.323-3.605 2.347-5.951 3.072-2.347.725-4.929 1.088-7.745 1.088-4.181 0-8.085-.768-11.712-2.304-3.626-1.536-6.762-3.733-9.408-6.592zM189.082 478l9.536-44.8h34.624l-2.048 9.536h-23.872l-1.728 8.064h15.744l-1.92 9.216h-15.744l-1.792 8.448h24.128L223.962 478h-34.88zm37.535 0l9.536-44.8h10.752l-7.488 35.072h23.168L260.537 478h-33.92zm36.222 0l9.536-44.8h10.752l-7.488 35.072h23.168L296.759 478h-33.92zm36.222 0l9.536-44.8h34.625l-2.048 9.536h-23.873l-1.728 8.064h15.744l-1.92 9.216h-15.744l-1.792 8.448h24.128L333.941 478h-34.88zm37.536 0l9.536-44.8h20.864c4.181 0 7.573 1.216 10.176 3.648 2.645 2.389 3.968 5.504 3.968 9.344 0 3.371-1.088 6.379-3.264 9.024-2.134 2.645-4.864 4.48-8.192 5.504l6.848 17.28h-11.392l-5.824-16.448h-8.448L347.349 478h-10.752zm28.48-35.392h-10.176l-2.112 9.984h11.2c1.749 0 3.2-.512 4.352-1.536 1.194-1.024 1.792-2.304 1.792-3.84 0-1.408-.47-2.517-1.408-3.328-.896-.853-2.112-1.28-3.648-1.28zM9.63 503.2h20.352c4.096 0 7.403 1.003 9.92 3.008 2.517 2.005 3.776 4.672 3.776 8 0 2.304-.619 4.437-1.856 6.4s-2.88 3.563-4.928 4.8c1.45.939 2.603 2.112 3.456 3.52.853 1.408 1.28 2.965 1.28 4.672 0 2.048-.448 3.947-1.344 5.696a15.17 15.17 0 01-3.648 4.608c-1.536 1.28-3.37 2.283-5.504 3.008-2.09.725-4.352 1.088-6.784 1.088H.094l9.536-44.8zm18.496 9.024h-9.664l-1.856 8.832h10.24c1.664 0 3.05-.469 4.16-1.408 1.11-.981 1.664-2.197 1.664-3.648 0-1.195-.405-2.112-1.216-2.752-.81-.683-1.92-1.024-3.328-1.024zm-3.52 26.752c1.792 0 3.264-.512 4.416-1.536 1.195-1.024 1.792-2.325 1.792-3.904 0-1.237-.448-2.219-1.344-2.944-.853-.725-2.048-1.088-3.584-1.088H14.814l-2.048 9.472h11.84zM40.504 548l9.536-44.8h34.624l-2.048 9.536H58.744l-1.728 8.064H72.76l-1.92 9.216H55.096l-1.792 8.448h24.128L75.384 548h-34.88zm37.072-8.256l7.04-7.552c2.432 2.517 4.843 4.373 7.232 5.568a17.866 17.866 0 007.744 1.728c2.219 0 3.968-.405 5.248-1.216 1.28-.811 1.92-1.941 1.92-3.392 0-.981-.427-1.792-1.28-2.432-.811-.64-2.197-1.216-4.16-1.728l-9.344-2.432c-3.072-.811-5.44-2.197-7.104-4.16-1.621-1.963-2.432-4.352-2.432-7.168 0-4.437 1.579-7.936 4.736-10.496 3.2-2.603 7.51-3.904 12.928-3.904 3.712 0 7.317.683 10.816 2.048 3.541 1.365 6.528 3.264 8.96 5.696l-6.784 7.68c-2.176-2.133-4.416-3.712-6.72-4.736-2.261-1.024-4.672-1.536-7.232-1.536-1.963 0-3.52.363-4.672 1.088-1.152.725-1.728 1.685-1.728 2.88 0 .939.363 1.707 1.088 2.304.768.597 2.005 1.109 3.712 1.536l8.768 2.112c3.627.853 6.4 2.283 8.32 4.288 1.92 2.005 2.88 4.48 2.88 7.424 0 2.304-.448 4.416-1.344 6.336a13.798 13.798 0 01-3.776 4.8c-1.621 1.323-3.605 2.347-5.952 3.072-2.347.725-4.928 1.088-7.744 1.088-4.181 0-8.085-.768-11.712-2.304-3.627-1.536-6.763-3.733-9.408-6.592zm39.989-26.816l2.112-9.728h39.488l-2.112 9.728h-14.272L135.293 548h-10.816l7.488-35.072h-14.4zm33.893 26.816l7.04-7.552c2.432 2.517 4.843 4.373 7.232 5.568a17.868 17.868 0 007.744 1.728c2.219 0 3.968-.405 5.248-1.216 1.28-.811 1.92-1.941 1.92-3.392 0-.981-.426-1.792-1.28-2.432-.81-.64-2.197-1.216-4.16-1.728l-9.344-2.432c-3.072-.811-5.44-2.197-7.104-4.16-1.621-1.963-2.432-4.352-2.432-7.168 0-4.437 1.579-7.936 4.736-10.496 3.2-2.603 7.51-3.904 12.928-3.904 3.712 0 7.318.683 10.816 2.048 3.542 1.365 6.528 3.264 8.961 5.696l-6.784 7.68c-2.176-2.133-4.417-3.712-6.721-4.736-2.261-1.024-4.672-1.536-7.232-1.536-1.962 0-3.52.363-4.672 1.088-1.152.725-1.728 1.685-1.728 2.88 0 .939.363 1.707 1.088 2.304.768.597 2.006 1.109 3.712 1.536l8.768 2.112c3.627.853 6.4 2.283 8.32 4.288 1.921 2.005 2.881 4.48 2.881 7.424 0 2.304-.448 4.416-1.345 6.336a13.775 13.775 0 01-3.776 4.8c-1.621 1.323-3.605 2.347-5.951 3.072-2.347.725-4.929 1.088-7.745 1.088-4.181 0-8.085-.768-11.712-2.304-3.626-1.536-6.762-3.733-9.408-6.592zM189.082 548l9.536-44.8h34.624l-2.048 9.536h-23.872l-1.728 8.064h15.744l-1.92 9.216h-15.744l-1.792 8.448h24.128L223.962 548h-34.88zm37.535 0l9.536-44.8h10.752l-7.488 35.072h23.168L260.537 548h-33.92zm36.222 0l9.536-44.8h10.752l-7.488 35.072h23.168L296.759 548h-33.92zm36.222 0l9.536-44.8h34.625l-2.048 9.536h-23.873l-1.728 8.064h15.744l-1.92 9.216h-15.744l-1.792 8.448h24.128L333.941 548h-34.88zm37.536 0l9.536-44.8h20.864c4.181 0 7.573 1.216 10.176 3.648 2.645 2.389 3.968 5.504 3.968 9.344 0 3.371-1.088 6.379-3.264 9.024-2.134 2.645-4.864 4.48-8.192 5.504l6.848 17.28h-11.392l-5.824-16.448h-8.448L347.349 548h-10.752zm28.48-35.392h-10.176l-2.112 9.984h11.2c1.749 0 3.2-.512 4.352-1.536 1.194-1.024 1.792-2.304 1.792-3.84 0-1.408-.47-2.517-1.408-3.328-.896-.853-2.112-1.28-3.648-1.28z" opacity=".08" fill="#242424"/></svg>