<svg width="147" height="560" viewBox="0 0 147 560" fill="none" xmlns="http://www.w3.org/2000/svg"><path d="M9.6 13.2h10.176l14.208 26.944L39.68 13.2h10.176L40.32 58h-9.536L16.192 30.032 10.24 58H.064L9.6 13.2zM43.786 58l9.536-44.8h34.624L85.9 22.736H62.025L60.298 30.8h15.745l-1.92 9.216H58.378l-1.791 8.448h24.127L78.668 58h-34.88zm55.918 0H88.313l-.257-44.8h10.689l-.513 27.712L111.737 13.2h10.112l1.792 27.584 11.2-27.584h11.072L126.649 58h-11.456l-1.665-28.608L99.704 58zM9.877 83.2h10.176l14.208 26.944L39.959 83.2h10.175L40.597 128h-9.536L16.47 100.032 10.518 128H.34l9.537-44.8zM44.064 128L53.6 83.2h34.624l-2.048 9.536H62.304l-1.728 8.064H76.32l-1.92 9.216H58.656l-1.792 8.448h24.128L78.944 128h-34.88zm55.918 0H88.59l-.256-44.8h10.688l-.512 27.712L112.014 83.2h10.112l1.792 27.584 11.2-27.584h11.072L126.926 128H115.47l-1.664-28.608L99.982 128zM9.877 153.2h10.176l14.208 26.944 5.697-26.944h10.175L40.597 198h-9.536L16.47 170.032 10.518 198H.34l9.537-44.8zM44.064 198l9.536-44.8h34.624l-2.048 9.536H62.304l-1.728 8.064H76.32l-1.92 9.216H58.656l-1.792 8.448h24.128L78.944 198h-34.88zm55.918 0H88.59l-.256-44.8h10.688l-.512 27.712 13.504-27.712h10.112l1.792 27.584 11.2-27.584h11.072L126.926 198H115.47l-1.664-28.608L99.982 198zM9.877 223.2h10.176l14.208 26.944 5.697-26.944h10.175L40.597 268h-9.536L16.47 240.032 10.518 268H.34l9.537-44.8zM44.064 268l9.536-44.8h34.624l-2.048 9.536H62.304l-1.728 8.064H76.32l-1.92 9.216H58.656l-1.792 8.448h24.128L78.944 268h-34.88zm55.918 0H88.59l-.256-44.8h10.688l-.512 27.712 13.504-27.712h10.112l1.792 27.584 11.2-27.584h11.072L126.926 268H115.47l-1.664-28.608L99.982 268zM9.877 293.2h10.176l14.208 26.944 5.697-26.944h10.175L40.597 338h-9.536L16.47 310.032 10.518 338H.34l9.537-44.8zM44.064 338l9.536-44.8h34.624l-2.048 9.536H62.304l-1.728 8.064H76.32l-1.92 9.216H58.656l-1.792 8.448h24.128L78.944 338h-34.88zm55.918 0H88.59l-.256-44.8h10.688l-.512 27.712 13.504-27.712h10.112l1.792 27.584 11.2-27.584h11.072L126.926 338H115.47l-1.664-28.608L99.982 338zM9.877 363.2h10.176l14.208 26.944 5.697-26.944h10.175L40.597 408h-9.536L16.47 380.032 10.518 408H.34l9.537-44.8zM44.064 408l9.536-44.8h34.624l-2.048 9.536H62.304l-1.728 8.064H76.32l-1.92 9.216H58.656l-1.792 8.448h24.128L78.944 408h-34.88zm55.918 0H88.59l-.256-44.8h10.688l-.512 27.712 13.504-27.712h10.112l1.792 27.584 11.2-27.584h11.072L126.926 408H115.47l-1.664-28.608L99.982 408zM9.877 433.2h10.176l14.208 26.944 5.697-26.944h10.175L40.597 478h-9.536L16.47 450.032 10.518 478H.34l9.537-44.8zM44.064 478l9.536-44.8h34.624l-2.048 9.536H62.304l-1.728 8.064H76.32l-1.92 9.216H58.656l-1.792 8.448h24.128L78.944 478h-34.88zm55.918 0H88.59l-.256-44.8h10.688l-.512 27.712 13.504-27.712h10.112l1.792 27.584 11.2-27.584h11.072L126.926 478H115.47l-1.664-28.608L99.982 478zM9.877 503.2h10.176l14.208 26.944 5.697-26.944h10.175L40.597 548h-9.536L16.47 520.032 10.518 548H.34l9.537-44.8zM44.064 548l9.536-44.8h34.624l-2.048 9.536H62.304l-1.728 8.064H76.32l-1.92 9.216H58.656l-1.792 8.448h24.128L78.944 548h-34.88zm55.918 0H88.59l-.256-44.8h10.688l-.512 27.712 13.504-27.712h10.112l1.792 27.584 11.2-27.584h11.072L126.926 548H115.47l-1.664-28.608L99.982 548z" opacity=".08" fill="#242424"/></svg>