<svg width="198" height="560" viewBox="0 0 198 560" fill="none" xmlns="http://www.w3.org/2000/svg"><path d="M.976 49.744l7.04-7.552c2.432 2.517 4.843 4.373 7.232 5.568a17.866 17.866 0 007.744 1.728c2.219 0 3.968-.405 5.248-1.216 1.28-.81 1.92-1.941 1.92-3.392 0-.981-.427-1.792-1.28-2.432-.81-.64-2.197-1.216-4.16-1.728l-9.344-2.432c-3.072-.81-5.44-2.197-7.104-4.16-1.621-1.963-2.432-4.352-2.432-7.168 0-4.437 1.579-7.936 4.736-10.496 3.2-2.603 7.51-3.904 12.928-3.904 3.712 0 7.317.683 10.816 2.048 3.541 1.365 6.528 3.264 8.96 5.696l-6.784 7.68c-2.176-2.133-4.416-3.712-6.72-4.736-2.261-1.024-4.672-1.536-7.232-1.536-1.963 0-3.52.363-4.672 1.088-1.152.725-1.728 1.685-1.728 2.88 0 .939.363 1.707 1.088 2.304.768.597 2.005 1.11 3.712 1.536l8.768 2.112c3.627.853 6.4 2.283 8.32 4.288 1.92 2.005 2.88 4.48 2.88 7.424 0 2.304-.448 4.416-1.344 6.336a13.79 13.79 0 01-3.776 4.8c-1.621 1.323-3.605 2.347-5.952 3.072-2.347.725-4.928 1.088-7.744 1.088-4.181 0-8.085-.768-11.712-2.304C6.757 54.8 3.621 52.603.976 49.744zm39.989-26.816l2.111-9.728h39.488l-2.111 9.728H66.18L58.692 58H47.877l7.489-35.072h-14.4zM88.522 58l3.52-16.768L79.882 13.2h11.456l7.744 18.368L114.378 13.2h12.672l-24.192 28.16L99.338 58H88.522zm28.147 0l9.536-44.8h10.752l-7.488 35.072h23.168L150.589 58h-33.92zm36.222 0l9.536-44.8h34.625l-2.048 9.536h-23.872l-1.729 8.064h15.744l-1.919 9.216h-15.744l-1.793 8.448h24.128L187.771 58h-34.88zM1.375 119.744l7.04-7.552c2.432 2.517 4.842 4.373 7.232 5.568a17.866 17.866 0 007.744 1.728c2.218 0 3.968-.405 5.248-1.216 1.28-.811 1.92-1.941 1.92-3.392 0-.981-.427-1.792-1.28-2.432-.81-.64-2.198-1.216-4.16-1.728l-9.344-2.432c-3.072-.811-5.44-2.197-7.104-4.16-1.622-1.963-2.432-4.352-2.432-7.168 0-4.437 1.578-7.936 4.736-10.496 3.2-2.603 7.51-3.904 12.928-3.904 3.712 0 7.317.683 10.816 2.048 3.541 1.365 6.528 3.264 8.96 5.696l-6.784 7.68c-2.176-2.133-4.416-3.712-6.72-4.736-2.262-1.024-4.672-1.536-7.232-1.536-1.963 0-3.52.363-4.672 1.088-1.152.725-1.728 1.685-1.728 2.88 0 .939.362 1.707 1.088 2.304.768.597 2.005 1.11 3.712 1.536l8.768 2.112c3.626.853 6.4 2.283 8.32 4.288 1.92 2.005 2.88 4.48 2.88 7.424 0 2.304-.448 4.416-1.344 6.336a13.795 13.795 0 01-3.776 4.8c-1.622 1.323-3.606 2.347-5.952 3.072-2.347.725-4.928 1.088-7.744 1.088-4.182 0-8.086-.768-11.712-2.304-3.627-1.536-6.763-3.733-9.408-6.592zm39.988-26.816l2.112-9.728h39.488l-2.112 9.728H66.58L59.091 128H48.275l7.488-35.072h-14.4zM88.921 128l3.52-16.768L80.28 83.2h11.456l7.744 18.368L114.777 83.2h12.672l-24.192 28.16-3.52 16.64H88.92zm28.147 0l9.536-44.8h10.752l-7.488 35.072h23.168L150.988 128h-33.92zm36.222 0l9.536-44.8h34.624l-2.048 9.536H171.53l-1.728 8.064h15.744l-1.92 9.216h-15.744l-1.792 8.448h24.128L188.17 128h-34.88zM1.375 189.744l7.04-7.552c2.432 2.517 4.842 4.373 7.232 5.568a17.866 17.866 0 007.744 1.728c2.218 0 3.968-.405 5.248-1.216 1.28-.811 1.92-1.941 1.92-3.392 0-.981-.427-1.792-1.28-2.432-.81-.64-2.198-1.216-4.16-1.728l-9.344-2.432c-3.072-.811-5.44-2.197-7.104-4.16-1.622-1.963-2.432-4.352-2.432-7.168 0-4.437 1.578-7.936 4.736-10.496 3.2-2.603 7.51-3.904 12.928-3.904 3.712 0 7.317.683 10.816 2.048 3.541 1.365 6.528 3.264 8.96 5.696l-6.784 7.68c-2.176-2.133-4.416-3.712-6.72-4.736-2.262-1.024-4.672-1.536-7.232-1.536-1.963 0-3.52.363-4.672 1.088-1.152.725-1.728 1.685-1.728 2.88 0 .939.362 1.707 1.088 2.304.768.597 2.005 1.109 3.712 1.536l8.768 2.112c3.626.853 6.4 2.283 8.32 4.288 1.92 2.005 2.88 4.48 2.88 7.424 0 2.304-.448 4.416-1.344 6.336a13.795 13.795 0 01-3.776 4.8c-1.622 1.323-3.606 2.347-5.952 3.072-2.347.725-4.928 1.088-7.744 1.088-4.182 0-8.086-.768-11.712-2.304-3.627-1.536-6.763-3.733-9.408-6.592zm39.988-26.816l2.112-9.728h39.488l-2.112 9.728H66.58L59.091 198H48.275l7.488-35.072h-14.4zM88.921 198l3.52-16.768L80.28 153.2h11.456l7.744 18.368 15.296-18.368h12.672l-24.192 28.16-3.52 16.64H88.92zm28.147 0l9.536-44.8h10.752l-7.488 35.072h23.168L150.988 198h-33.92zm36.222 0l9.536-44.8h34.624l-2.048 9.536H171.53l-1.728 8.064h15.744l-1.92 9.216h-15.744l-1.792 8.448h24.128L188.17 198h-34.88zM1.375 259.744l7.04-7.552c2.432 2.517 4.842 4.373 7.232 5.568a17.866 17.866 0 007.744 1.728c2.218 0 3.968-.405 5.248-1.216 1.28-.811 1.92-1.941 1.92-3.392 0-.981-.427-1.792-1.28-2.432-.81-.64-2.198-1.216-4.16-1.728l-9.344-2.432c-3.072-.811-5.44-2.197-7.104-4.16-1.622-1.963-2.432-4.352-2.432-7.168 0-4.437 1.578-7.936 4.736-10.496 3.2-2.603 7.51-3.904 12.928-3.904 3.712 0 7.317.683 10.816 2.048 3.541 1.365 6.528 3.264 8.96 5.696l-6.784 7.68c-2.176-2.133-4.416-3.712-6.72-4.736-2.262-1.024-4.672-1.536-7.232-1.536-1.963 0-3.52.363-4.672 1.088-1.152.725-1.728 1.685-1.728 2.88 0 .939.362 1.707 1.088 2.304.768.597 2.005 1.109 3.712 1.536l8.768 2.112c3.626.853 6.4 2.283 8.32 4.288 1.92 2.005 2.88 4.48 2.88 7.424 0 2.304-.448 4.416-1.344 6.336a13.795 13.795 0 01-3.776 4.8c-1.622 1.323-3.606 2.347-5.952 3.072-2.347.725-4.928 1.088-7.744 1.088-4.182 0-8.086-.768-11.712-2.304-3.627-1.536-6.763-3.733-9.408-6.592zm39.988-26.816l2.112-9.728h39.488l-2.112 9.728H66.58L59.091 268H48.275l7.488-35.072h-14.4zM88.921 268l3.52-16.768L80.28 223.2h11.456l7.744 18.368 15.296-18.368h12.672l-24.192 28.16-3.52 16.64H88.92zm28.147 0l9.536-44.8h10.752l-7.488 35.072h23.168L150.988 268h-33.92zm36.222 0l9.536-44.8h34.624l-2.048 9.536H171.53l-1.728 8.064h15.744l-1.92 9.216h-15.744l-1.792 8.448h24.128L188.17 268h-34.88zM1.375 329.744l7.04-7.552c2.432 2.517 4.842 4.373 7.232 5.568a17.866 17.866 0 007.744 1.728c2.218 0 3.968-.405 5.248-1.216 1.28-.811 1.92-1.941 1.92-3.392 0-.981-.427-1.792-1.28-2.432-.81-.64-2.198-1.216-4.16-1.728l-9.344-2.432c-3.072-.811-5.44-2.197-7.104-4.16-1.622-1.963-2.432-4.352-2.432-7.168 0-4.437 1.578-7.936 4.736-10.496 3.2-2.603 7.51-3.904 12.928-3.904 3.712 0 7.317.683 10.816 2.048 3.541 1.365 6.528 3.264 8.96 5.696l-6.784 7.68c-2.176-2.133-4.416-3.712-6.72-4.736-2.262-1.024-4.672-1.536-7.232-1.536-1.963 0-3.52.363-4.672 1.088-1.152.725-1.728 1.685-1.728 2.88 0 .939.362 1.707 1.088 2.304.768.597 2.005 1.109 3.712 1.536l8.768 2.112c3.626.853 6.4 2.283 8.32 4.288 1.92 2.005 2.88 4.48 2.88 7.424 0 2.304-.448 4.416-1.344 6.336a13.795 13.795 0 01-3.776 4.8c-1.622 1.323-3.606 2.347-5.952 3.072-2.347.725-4.928 1.088-7.744 1.088-4.182 0-8.086-.768-11.712-2.304-3.627-1.536-6.763-3.733-9.408-6.592zm39.988-26.816l2.112-9.728h39.488l-2.112 9.728H66.58L59.091 338H48.275l7.488-35.072h-14.4zM88.921 338l3.52-16.768L80.28 293.2h11.456l7.744 18.368 15.296-18.368h12.672l-24.192 28.16-3.52 16.64H88.92zm28.147 0l9.536-44.8h10.752l-7.488 35.072h23.168L150.988 338h-33.92zm36.222 0l9.536-44.8h34.624l-2.048 9.536H171.53l-1.728 8.064h15.744l-1.92 9.216h-15.744l-1.792 8.448h24.128L188.17 338h-34.88zM1.375 399.744l7.04-7.552c2.432 2.517 4.842 4.373 7.232 5.568a17.866 17.866 0 007.744 1.728c2.218 0 3.968-.405 5.248-1.216 1.28-.811 1.92-1.941 1.92-3.392 0-.981-.427-1.792-1.28-2.432-.81-.64-2.198-1.216-4.16-1.728l-9.344-2.432c-3.072-.811-5.44-2.197-7.104-4.16-1.622-1.963-2.432-4.352-2.432-7.168 0-4.437 1.578-7.936 4.736-10.496 3.2-2.603 7.51-3.904 12.928-3.904 3.712 0 7.317.683 10.816 2.048 3.541 1.365 6.528 3.264 8.96 5.696l-6.784 7.68c-2.176-2.133-4.416-3.712-6.72-4.736-2.262-1.024-4.672-1.536-7.232-1.536-1.963 0-3.52.363-4.672 1.088-1.152.725-1.728 1.685-1.728 2.88 0 .939.362 1.707 1.088 2.304.768.597 2.005 1.109 3.712 1.536l8.768 2.112c3.626.853 6.4 2.283 8.32 4.288 1.92 2.005 2.88 4.48 2.88 7.424 0 2.304-.448 4.416-1.344 6.336a13.795 13.795 0 01-3.776 4.8c-1.622 1.323-3.606 2.347-5.952 3.072-2.347.725-4.928 1.088-7.744 1.088-4.182 0-8.086-.768-11.712-2.304-3.627-1.536-6.763-3.733-9.408-6.592zm39.988-26.816l2.112-9.728h39.488l-2.112 9.728H66.58L59.091 408H48.275l7.488-35.072h-14.4zM88.921 408l3.52-16.768L80.28 363.2h11.456l7.744 18.368 15.296-18.368h12.672l-24.192 28.16-3.52 16.64H88.92zm28.147 0l9.536-44.8h10.752l-7.488 35.072h23.168L150.988 408h-33.92zm36.222 0l9.536-44.8h34.624l-2.048 9.536H171.53l-1.728 8.064h15.744l-1.92 9.216h-15.744l-1.792 8.448h24.128L188.17 408h-34.88zM1.375 469.744l7.04-7.552c2.432 2.517 4.842 4.373 7.232 5.568a17.866 17.866 0 007.744 1.728c2.218 0 3.968-.405 5.248-1.216 1.28-.811 1.92-1.941 1.92-3.392 0-.981-.427-1.792-1.28-2.432-.81-.64-2.198-1.216-4.16-1.728l-9.344-2.432c-3.072-.811-5.44-2.197-7.104-4.16-1.622-1.963-2.432-4.352-2.432-7.168 0-4.437 1.578-7.936 4.736-10.496 3.2-2.603 7.51-3.904 12.928-3.904 3.712 0 7.317.683 10.816 2.048 3.541 1.365 6.528 3.264 8.96 5.696l-6.784 7.68c-2.176-2.133-4.416-3.712-6.72-4.736-2.262-1.024-4.672-1.536-7.232-1.536-1.963 0-3.52.363-4.672 1.088-1.152.725-1.728 1.685-1.728 2.88 0 .939.362 1.707 1.088 2.304.768.597 2.005 1.109 3.712 1.536l8.768 2.112c3.626.853 6.4 2.283 8.32 4.288 1.92 2.005 2.88 4.48 2.88 7.424 0 2.304-.448 4.416-1.344 6.336a13.795 13.795 0 01-3.776 4.8c-1.622 1.323-3.606 2.347-5.952 3.072-2.347.725-4.928 1.088-7.744 1.088-4.182 0-8.086-.768-11.712-2.304-3.627-1.536-6.763-3.733-9.408-6.592zm39.988-26.816l2.112-9.728h39.488l-2.112 9.728H66.58L59.091 478H48.275l7.488-35.072h-14.4zM88.921 478l3.52-16.768L80.28 433.2h11.456l7.744 18.368 15.296-18.368h12.672l-24.192 28.16-3.52 16.64H88.92zm28.147 0l9.536-44.8h10.752l-7.488 35.072h23.168L150.988 478h-33.92zm36.222 0l9.536-44.8h34.624l-2.048 9.536H171.53l-1.728 8.064h15.744l-1.92 9.216h-15.744l-1.792 8.448h24.128L188.17 478h-34.88zM1.375 539.744l7.04-7.552c2.432 2.517 4.842 4.373 7.232 5.568a17.866 17.866 0 007.744 1.728c2.218 0 3.968-.405 5.248-1.216 1.28-.811 1.92-1.941 1.92-3.392 0-.981-.427-1.792-1.28-2.432-.81-.64-2.198-1.216-4.16-1.728l-9.344-2.432c-3.072-.811-5.44-2.197-7.104-4.16-1.622-1.963-2.432-4.352-2.432-7.168 0-4.437 1.578-7.936 4.736-10.496 3.2-2.603 7.51-3.904 12.928-3.904 3.712 0 7.317.683 10.816 2.048 3.541 1.365 6.528 3.264 8.96 5.696l-6.784 7.68c-2.176-2.133-4.416-3.712-6.72-4.736-2.262-1.024-4.672-1.536-7.232-1.536-1.963 0-3.52.363-4.672 1.088-1.152.725-1.728 1.685-1.728 2.88 0 .939.362 1.707 1.088 2.304.768.597 2.005 1.109 3.712 1.536l8.768 2.112c3.626.853 6.4 2.283 8.32 4.288 1.92 2.005 2.88 4.48 2.88 7.424 0 2.304-.448 4.416-1.344 6.336a13.795 13.795 0 01-3.776 4.8c-1.622 1.323-3.606 2.347-5.952 3.072-2.347.725-4.928 1.088-7.744 1.088-4.182 0-8.086-.768-11.712-2.304-3.627-1.536-6.763-3.733-9.408-6.592zm39.988-26.816l2.112-9.728h39.488l-2.112 9.728H66.58L59.091 548H48.275l7.488-35.072h-14.4zM88.921 548l3.52-16.768L80.28 503.2h11.456l7.744 18.368 15.296-18.368h12.672l-24.192 28.16-3.52 16.64H88.92zm28.147 0l9.536-44.8h10.752l-7.488 35.072h23.168L150.988 548h-33.92zm36.222 0l9.536-44.8h34.624l-2.048 9.536H171.53l-1.728 8.064h15.744l-1.92 9.216h-15.744l-1.792 8.448h24.128L188.17 548h-34.88z" opacity=".08" fill="#242424"/></svg>