<svg width="25" height="25" viewBox="0 0 25 25" fill="none" xmlns="http://www.w3.org/2000/svg"><path d="M12.5 25C19.393 25 25 19.393 25 12.5S19.393 0 12.5 0 0 5.607 0 12.5 5.607 25 12.5 25zm0-23.438c6.031 0 10.938 4.907 10.938 10.938 0 6.031-4.907 10.938-10.938 10.938-6.031 0-10.938-4.907-10.938-10.938C1.563 6.469 6.47 1.562 12.5 1.562z" fill="#fff"/><path d="M8.225 14.745l1.633-.71-.458.46a.781.781 0 00-.23.552v3.057c0 .7.847 1.04 1.334.552l1.64-1.64 3.573 1.787a.781.781 0 001.117-.56l2.039-11.208a.783.783 0 00-1.054-.868L4.573 11.35a.782.782 0 00-.136 1.387l3.057 1.95a.78.78 0 00.731.057zm8.86-6.611l-1.6 8.807-3.146-1.572a.78.78 0 00-.902.147l-.704.704v-.847l3.133-3.132c.607-.607-.076-1.61-.864-1.269l-5.018 2.177-1.41-.9 10.511-4.116z" fill="#fff"/></svg>