<svg width="93" height="30" viewBox="0 0 93 30" fill="none" xmlns="http://www.w3.org/2000/svg"><path d="M48.046 9.59c-.053 4.18 3.724 6.512 6.57 7.898 2.923 1.423 3.906 2.335 3.894 3.607-.022 1.948-2.332 2.807-4.494 2.84-3.771.059-5.964-1.018-7.708-1.832L44.95 28.46c1.749.806 4.988 1.51 8.346 1.54 7.884 0 13.042-3.892 13.07-9.926.03-7.657-10.592-8.081-10.52-11.504.025-1.038 1.016-2.145 3.186-2.427 1.074-.142 4.04-.251 7.401 1.297l1.32-6.151C65.944.63 63.62 0 60.727 0c-7.42 0-12.64 3.945-12.682 9.59zM80.432.53c-1.44 0-2.654.84-3.195 2.129l-11.262 26.89h7.879l1.567-4.333h9.627l.91 4.332H92.9L86.842.53h-6.41zm1.101 7.839l2.274 10.896H77.58L81.533 8.37zM38.495.53l-6.21 29.018h7.507L45.999.53h-7.505zm-11.106 0l-7.814 19.75-3.16-16.793C16.042 1.612 14.578.53 12.951.53H.18L0 1.373c2.622.569 5.602 1.486 7.407 2.468 1.104.6 1.42 1.125 1.782 2.55l5.987 23.157h7.934L35.273.53h-7.884z" fill="url(#paint0_linear)"/><defs><linearGradient id="paint0_linear" x1="42.711" y1="30.602" x2="43.579" y2="-.209" gradientUnits="userSpaceOnUse"><stop stop-color="#222357"/><stop offset="1" stop-color="#254AA5"/></linearGradient></defs></svg>