<svg width="25" height="25" viewBox="0 0 25 25" fill="none" xmlns="http://www.w3.org/2000/svg">
<g clip-path="url(#clip0)">
<path d="M3.65414 11.3458C3.46098 11.861 3.61181 12.4422 4.03149 12.7982C4.82661 13.5939 6.46185 16.4663 7.27127 18.4903C7.82367 19.8708 9.03656 21.2257 9.95677 22.1196C10.3528 22.5094 10.5751 23.0421 10.574 23.598V23.7503C10.574 24.4406 11.1334 25 11.8237 25H18.4882C19.1785 25 19.7379 24.4406 19.7379 23.7503V22.4707C19.7341 22.3649 19.7743 22.2621 19.8491 22.1871C21.3865 20.7813 21.404 18.4344 21.404 18.3353V11.7411C21.4195 10.8491 20.747 10.095 19.8592 10.0088C19.5255 9.98688 19.193 10.066 18.9048 10.2357V9.58799C18.9083 8.98774 18.5868 8.43268 18.0643 8.13694C17.5421 7.8412 16.9006 7.85111 16.3877 8.16306C16.3343 7.60114 15.9968 7.10576 15.4936 6.85044C14.9903 6.59513 14.3913 6.61515 13.9063 6.90383V6.21396C14.9401 5.62725 15.577 4.52857 15.5726 3.3399C15.5726 1.49948 14.0805 0.00762939 12.2401 0.00762939C10.3997 0.00762939 8.90785 1.49948 8.90785 3.3399C8.90347 4.52857 9.54033 5.62725 10.574 6.21396V12.9203C10.5858 13.412 10.5189 13.9022 10.3757 14.3728C10.3311 14.5118 10.2172 14.6178 10.0754 14.6527C9.94189 14.6865 9.80041 14.6493 9.7005 14.5544C9.3752 14.2441 9.08614 13.8979 8.83921 13.5222C8.11635 12.4409 6.29749 10.4211 5.15896 10.4211C4.51943 10.4077 3.93119 10.7692 3.65414 11.3458V11.3458ZM9.74092 3.3399C9.74092 1.95959 10.8598 0.840696 12.2401 0.840696C13.6204 0.840696 14.7393 1.95959 14.7393 3.3399C14.7433 4.05264 14.4398 4.73241 13.9063 5.20529V3.3399C13.9063 2.41969 13.1603 1.67376 12.2401 1.67376C11.3199 1.67376 10.574 2.41969 10.574 3.3399V5.20529C10.0407 4.73241 9.73692 4.05264 9.74092 3.3399ZM8.14477 13.9846C8.42716 14.4129 8.75741 14.8076 9.12904 15.1613C9.43546 15.4511 9.86886 15.5642 10.2779 15.4608C10.6947 15.3569 11.0293 15.0469 11.1651 14.6394C11.3375 14.083 11.4193 13.5026 11.4071 12.9203V3.3399C11.4071 2.87979 11.78 2.50683 12.2401 2.50683C12.7002 2.50683 13.0732 2.87979 13.0732 3.3399V12.0872C13.0732 12.3173 13.2597 12.5038 13.4898 12.5038C13.7198 12.5038 13.9063 12.3173 13.9063 12.0872V8.33848C13.9063 7.87838 14.2794 7.50542 14.7393 7.50542C15.1994 7.50542 15.5726 7.87838 15.5726 8.33848V12.0872C15.5726 12.3173 15.7591 12.5038 15.989 12.5038C16.2192 12.5038 16.4056 12.3173 16.4056 12.0872V9.58799C16.4056 9.12789 16.7786 8.75492 17.2387 8.75492C17.6988 8.75492 18.0718 9.12789 18.0718 9.58799V12.5038C18.0718 12.7338 18.2583 12.9203 18.4882 12.9203C18.7184 12.9203 18.9048 12.7338 18.9048 12.5038V11.6708C18.9043 11.4498 18.9924 11.2377 19.1493 11.0821C19.3211 10.9119 19.5577 10.8236 19.7991 10.8398C20.2491 10.8985 20.582 11.2875 20.571 11.7411V18.3353C20.571 18.3557 20.5498 20.418 19.2864 21.5728C19.0395 21.8056 18.901 22.1313 18.9048 22.4707V23.7503C18.9048 23.9805 18.7184 24.1669 18.4882 24.1669H11.8237C11.5935 24.1669 11.4071 23.9805 11.4071 23.7503V23.598C11.4076 22.8171 11.094 22.0689 10.537 21.5219C9.8313 20.8368 8.56921 19.4908 8.04523 18.1805C7.18795 16.0386 5.49188 13.0806 4.62049 12.2092C4.42218 12.0111 4.35583 11.8277 4.42333 11.6645C4.57434 11.4028 4.85693 11.2452 5.15896 11.2541C5.72508 11.2541 7.26002 12.6575 8.14477 13.9846V13.9846Z" fill="black"/>
<path d="M8.90779 6.89679C9.07406 6.89679 9.22431 6.79821 9.29029 6.64567C9.35626 6.49313 9.32537 6.31599 9.21154 6.19491C7.76831 4.66949 7.68994 2.30719 9.02906 0.68949C9.12802 0.575275 9.15738 0.416441 9.1059 0.274386C9.05423 0.132332 8.92972 0.0293663 8.78042 0.00534102C8.63112 -0.0186843 8.48067 0.0400442 8.38705 0.158836C6.7808 2.09993 6.87385 4.93415 8.60423 6.7656C8.68298 6.84931 8.79281 6.89679 8.90779 6.89679Z" fill="black"/>
<path d="M16.1278 5.79334C16.226 5.84367 16.3404 5.85302 16.4455 5.81908C16.5507 5.78514 16.6381 5.71096 16.6884 5.61257C17.5991 3.83928 17.3649 1.69378 16.0931 0.158836C15.9997 0.0400442 15.8491 -0.0186842 15.6997 0.00534101C15.5506 0.0293663 15.4261 0.132332 15.3745 0.274386C15.3228 0.41644 15.3521 0.575274 15.4513 0.689489C16.5111 1.96817 16.7061 3.75557 15.9474 5.23275C15.8424 5.43734 15.9232 5.68827 16.1278 5.79334Z" fill="black"/>
</g>
<defs>
<clipPath id="clip0">
<rect width="25" height="25" fill="white"/>
</clipPath>
</defs>
</svg>
