<svg width="25" height="25" viewBox="0 0 25 25" fill="none" xmlns="http://www.w3.org/2000/svg">
<path d="M22.4106 18.2145L22.4105 18.2145L10.9523 8.83964L10.9519 8.83933C10.943 8.832 10.9299 8.83334 10.9226 8.8422L22.4106 18.2145ZM22.4106 18.2145C22.4147 18.2184 22.4171 18.2239 22.4171 18.2296L22.4106 18.2145ZM10.9559 24.4908L10.956 24.4906L14.9695 18.473L15.1179 18.2504H15.3855H22.3963C22.4078 18.2504 22.4171 18.2411 22.4171 18.2296L10.9559 24.4908ZM10.9559 24.4908C10.9522 24.4964 10.9457 24.5 10.9387 24.5C10.9272 24.5 10.9179 24.4907 10.9178 24.4792V8.85538M10.9559 24.4908L10.9178 8.85538M10.9178 8.85538C10.9179 8.85051 10.9196 8.84587 10.9226 8.84221L10.9178 8.85538Z" stroke="#393939"/>
<path d="M7.94814 17.1547C7.88408 17.1547 7.82056 17.143 7.76065 17.1203C3.19668 15.3647 0.919991 10.2417 2.67554 5.67777C4.43109 1.11381 9.55404 -1.16288 14.1181 0.592669C18.6819 2.34817 20.9587 7.47102 19.2033 12.0349C19.1 12.3036 18.7985 12.4377 18.5298 12.3344C18.2612 12.2311 18.1271 11.9296 18.2304 11.661C19.7804 7.6343 17.7727 3.11354 13.7461 1.56351C9.71946 0.0134756 5.19861 2.02117 3.64858 6.04779C2.09854 10.0744 4.10624 14.5952 8.13286 16.1452C8.13379 16.1456 8.13471 16.146 8.13564 16.1463C8.40429 16.2491 8.53881 16.5502 8.43603 16.8189C8.35874 17.021 8.16455 17.1542 7.94814 17.1536V17.1547Z" fill="#455A64"/>
<path d="M9.06994 14.238C9.00588 14.2381 8.94235 14.2264 8.88244 14.2037C5.9293 13.0677 4.45617 9.75284 5.59209 6.79969C6.72802 3.84655 10.0429 2.37342 12.9961 3.50935C15.9491 4.64527 17.4223 7.95999 16.2865 10.9131C16.1833 11.1817 15.8817 11.3158 15.6131 11.2125C15.3444 11.1093 15.2104 10.8078 15.3136 10.5391C16.2441 8.12327 15.0399 5.4106 12.6241 4.48019C10.2083 3.54977 7.49559 4.75391 6.56518 7.16971C5.63472 9.58556 6.83891 12.2982 9.2547 13.2286C9.25563 13.229 9.25656 13.2293 9.25744 13.2297C9.52609 13.3325 9.66061 13.6336 9.55783 13.9022C9.48053 14.1043 9.2863 14.2376 9.06994 14.237V14.238Z" fill="#455A64"/>
</svg>
