<svg width="15" height="16" viewBox="0 0 15 16" fill="none" xmlns="http://www.w3.org/2000/svg">
<path d="M8.72462 7.70133L14.7996 1.61577C14.9361 1.45607 15.0075 1.25065 14.9994 1.04056C14.9913 0.830461 14.9043 0.631166 14.7559 0.482495C14.6075 0.333825 14.4086 0.24673 14.1988 0.238615C13.9891 0.2305 13.784 0.301962 13.6246 0.438722L7.54962 6.52429L1.47462 0.430374C1.3152 0.293614 1.11014 0.222152 0.900409 0.230267C0.690679 0.238382 0.49173 0.325477 0.343318 0.474147C0.194905 0.622818 0.107961 0.822113 0.0998603 1.03221C0.0917594 1.2423 0.163098 1.44772 0.29962 1.60742L6.37462 7.70133L0.291287 13.7869C0.204052 13.8617 0.133202 13.9538 0.0831822 14.0574C0.0331627 14.161 0.00505389 14.2738 0.000620983 14.3887C-0.00381193 14.5037 0.0155264 14.6183 0.0574218 14.7255C0.0993173 14.8326 0.162866 14.9299 0.244078 15.0112C0.32529 15.0926 0.422413 15.1562 0.529351 15.1982C0.636288 15.2402 0.750732 15.2596 0.865498 15.2551C0.980264 15.2507 1.09287 15.2225 1.19626 15.1724C1.29965 15.1223 1.39158 15.0513 1.46629 14.9639L7.54962 8.87838L13.6246 14.9639C13.784 15.1007 13.9891 15.1722 14.1988 15.1641C14.4086 15.1559 14.6075 15.0688 14.7559 14.9202C14.9043 14.7715 14.9913 14.5722 14.9994 14.3621C15.0075 14.152 14.9361 13.9466 14.7996 13.7869L8.72462 7.70133Z" fill="#242424"/>
</svg>
