<svg width="512" height="512" viewBox="0 0 512 512" fill="none" xmlns="http://www.w3.org/2000/svg">
<path d="M456.401 0H55.5989C42.6229 0 32.0659 10.557 32.0659 23.532V71.088C32.0659 78.327 34.5849 85.404 39.1569 91.017L204.7 294.184C207.097 297.126 208.419 300.838 208.419 304.636V496.47C208.419 501.887 211.17 506.821 215.778 509.669C218.286 511.219 221.1 512 223.925 512C226.291 512 228.665 511.452 230.874 510.348L290.571 480.499C298.595 476.487 303.58 468.422 303.58 459.451V304.636C303.58 300.838 304.901 297.126 307.3 294.183L472.843 91.016C477.415 85.404 479.934 78.327 479.934 71.087V23.532C479.934 10.557 469.377 0 456.401 0ZM288.581 304.636V459.452C288.581 462.705 286.773 465.629 283.863 467.084L224.166 496.933C224.072 496.981 223.909 497.062 223.664 496.911C223.419 496.76 223.419 496.579 223.419 496.472V304.636C223.419 304.283 223.408 303.931 223.396 303.579H288.603C288.592 303.931 288.581 304.283 288.581 304.636ZM464.934 64.128H440.37C436.227 64.128 432.87 67.485 432.87 71.628C432.87 75.771 436.227 79.128 440.37 79.128H462.844C462.374 79.975 461.831 80.784 461.215 81.541L295.673 284.707C294.675 285.931 293.782 287.229 292.984 288.579H219.017C218.22 287.229 217.326 285.932 216.329 284.708L50.7859 81.541C50.1689 80.784 49.6269 79.975 49.1569 79.128H71.6369C75.7799 79.128 79.1369 75.771 79.1369 71.628C79.1369 67.485 75.7799 64.128 71.6369 64.128H47.0669V23.532C47.0669 18.827 50.8939 15 55.5989 15H456.403C461.108 15 464.935 18.827 464.935 23.532V64.128H464.934Z" fill="white"/>
<path d="M408.301 64.128H103.694C99.5511 64.128 96.1941 67.485 96.1941 71.628C96.1941 75.771 99.5511 79.128 103.694 79.128H408.3C412.443 79.128 415.8 75.771 415.8 71.628C415.8 67.485 412.443 64.128 408.301 64.128Z" fill="white"/>
</svg>
