<svg width="26" height="25" viewBox="0 0 26 25" fill="none" xmlns="http://www.w3.org/2000/svg">
<path d="M9.63032 1.51863C11.235 1.51716 12.804 1.99166 14.139 2.88209C15.4739 3.77252 16.5147 5.03888 17.1298 6.52097C17.7449 8.00306 17.9066 9.63428 17.5945 11.2083C17.2823 12.7823 16.5103 14.2283 15.3762 15.3635C14.242 16.4987 12.7967 17.272 11.223 17.5856C9.64925 17.8992 8.01789 17.739 6.53524 17.1253C5.05259 16.5115 3.78527 15.4718 2.89362 14.1377C2.00197 12.8036 1.52604 11.235 1.52604 9.63032C1.53577 7.48324 2.3925 5.42677 3.91003 3.90785C5.42757 2.38893 7.48326 1.53032 9.63032 1.51863ZM9.63032 0C7.72563 0 5.8637 0.564808 4.28 1.623C2.69631 2.68119 1.46196 4.18525 0.733069 5.94496C0.0041728 7.70467 -0.18654 9.641 0.185048 11.5091C0.556636 13.3772 1.47384 15.0932 2.82066 16.44C4.16748 17.7868 5.88344 18.704 7.75154 19.0756C9.61964 19.4472 11.556 19.2565 13.3157 18.5276C15.0754 17.7987 16.5794 16.5643 17.6376 14.9806C18.6958 13.3969 19.2606 11.535 19.2606 9.63032C19.2606 7.0762 18.246 4.62669 16.44 2.82066C14.634 1.01462 12.1844 0 9.63032 0Z" fill="#242424"/>
<path d="M24.7385 23.3369L18.3121 16.4298L17.0961 17.7626L23.5225 24.6698C23.6032 24.7565 23.6989 24.8253 23.804 24.872C23.9092 24.9187 24.0217 24.9424 24.1353 24.9419C24.2488 24.9414 24.3611 24.9166 24.4658 24.869C24.5705 24.8213 24.6654 24.7518 24.7453 24.6643C24.8251 24.5768 24.8883 24.473 24.9312 24.3589C24.974 24.2449 24.9958 24.1227 24.9951 23.9995C24.9945 23.8762 24.9715 23.7543 24.9275 23.6406C24.8835 23.5269 24.8193 23.4237 24.7385 23.3369Z" fill="#242424"/>
</svg>
