<svg width="23" height="25" viewBox="0 0 23 25" fill="none" xmlns="http://www.w3.org/2000/svg">
<path d="M11.0663 10.7143C12.1259 10.7143 13.1616 10.4001 14.0426 9.81145C14.9236 9.22279 15.6102 8.38612 16.0157 7.40723C16.4211 6.42834 16.5272 5.3512 16.3205 4.31202C16.1138 3.27283 15.6036 2.31828 14.8544 1.56907C14.1052 0.819863 13.1506 0.309645 12.1114 0.102938C11.0723 -0.103768 9.99511 0.00232118 9.01622 0.407791C8.03733 0.81326 7.20066 1.4999 6.61201 2.38088C6.02336 3.26185 5.70917 4.2976 5.70917 5.35714C5.70917 6.77795 6.27358 8.14056 7.27824 9.14522C8.2829 10.1499 9.64551 10.7143 11.0663 10.7143ZM11.0663 1.53061C11.8231 1.53061 12.5629 1.75504 13.1922 2.1755C13.8215 2.59597 14.3119 3.19359 14.6016 3.89279C14.8912 4.592 14.967 5.36139 14.8193 6.10366C14.6717 6.84594 14.3072 7.52776 13.7721 8.06291C13.2369 8.59806 12.5551 8.9625 11.8128 9.11015C11.0706 9.2578 10.3012 9.18202 9.60196 8.8924C8.90275 8.60278 8.30513 8.11232 7.88467 7.48305C7.4642 6.85378 7.23978 6.11396 7.23978 5.35714C7.23978 4.34229 7.64293 3.36899 8.36054 2.65138C9.07816 1.93377 10.0514 1.53061 11.0663 1.53061Z" fill="#242424"/>
<path d="M21.6914 17.5129C20.3257 16.0424 18.6798 14.8711 16.8546 14.0706C15.0293 13.27 13.0629 12.8572 11.0757 12.8572C9.08842 12.8572 7.12206 13.27 5.29678 14.0706C3.47151 14.8711 1.82567 16.0424 0.459891 17.5129C0.163784 17.8351 -0.000670171 18.2601 2.05273e-06 18.7015V23.2649C2.05273e-06 23.7251 0.179456 24.1664 0.498885 24.4918C0.818314 24.8172 1.25155 25 1.7033 25H20.4395C20.8913 25 21.3245 24.8172 21.6439 24.4918C21.9634 24.1664 22.1428 23.7251 22.1428 23.2649V18.7015C22.1458 18.2613 21.9844 17.8364 21.6914 17.5129ZM20.6788 23.5715H1.39304V18.5715C2.60002 17.2768 3.95518 15.766 5.67875 15.3572C7.28928 14.6527 9.32294 14.3243 11.0757 14.3243C12.8284 14.3243 14.7825 14.6527 16.393 15.3572C18.0036 16.0617 19.4718 17.2768 20.6788 18.5715V21.0715V23.5715Z" fill="#242424"/>
</svg>
