<svg width="19" height="25" viewBox="0 0 19 25" fill="none" xmlns="http://www.w3.org/2000/svg">
<path fill-rule="evenodd" clip-rule="evenodd" d="M17.6429 6.58484H1.35714V21.6518C1.35714 22.0958 1.50013 22.5216 1.75464 22.8356C2.00915 23.1495 2.35435 23.3259 2.71429 23.3259H16.2857C16.6457 23.3259 16.9908 23.1495 17.2454 22.8356C17.4999 22.5216 17.6429 22.0958 17.6429 21.6518V6.58484ZM0 4.91074V21.6518C0 22.5398 0.285969 23.3914 0.794996 24.0194C1.30402 24.6473 1.99441 25 2.71429 25H16.2857C17.0056 25 17.696 24.6473 18.205 24.0194C18.714 23.3914 19 22.5398 19 21.6518V4.91074H0Z" fill="black"/>
<path d="M9.1464 1.43495C8.21353 1.43495 7.31887 1.8129 6.65923 2.48567C5.99959 3.15843 5.629 4.07089 5.629 5.02232H4.22205C4.22205 3.69032 4.74086 2.41287 5.66436 1.471C6.58785 0.529136 7.84038 0 9.1464 0C10.4524 0 11.705 0.529136 12.6284 1.471C13.5519 2.41287 14.0708 3.69032 14.0708 5.02232H12.6638C12.6638 4.07089 12.2932 3.15843 11.6336 2.48567C10.9739 1.8129 10.0793 1.43495 9.1464 1.43495Z" fill="black"/>
</svg>
