<svg width="15" height="21" viewBox="0 0 15 21" fill="none" xmlns="http://www.w3.org/2000/svg">
<path d="M14.8692 10.0989C13.8853 9.02611 12.5734 8.2921 11.2068 8.00979C10.6055 7.8404 10.0042 7.72748 9.40287 7.67102C10.9334 5.80777 10.6601 2.98466 8.85623 1.40372C7.05233 -0.17722 4.31916 0.105091 2.78857 1.96834C1.25799 3.83159 1.53131 6.6547 3.33521 8.23564C3.66319 8.51795 3.99117 8.7438 4.31916 8.85672V10.0989L3.44454 9.25196C2.67925 8.46149 1.42198 8.46149 0.602031 9.25196C-0.163259 10.0424 -0.217923 11.2846 0.547367 12.0751L3.06189 15.124C3.17122 15.9145 3.44454 16.6485 3.82718 17.326C4.1005 17.8342 4.48315 18.3424 4.86579 18.7376V19.8104C4.86579 20.1492 5.08445 20.375 5.41243 20.375H12.8467C13.12 20.375 13.3933 20.0927 13.3933 19.8104V18.3424C14.4319 17.0437 14.9786 15.4063 14.9786 13.7689V10.4941C15.0332 10.2683 14.9786 10.1554 14.8692 10.0989ZM2.84324 4.79145C2.84324 2.9282 4.31916 1.46018 6.12305 1.51664C7.92695 1.51664 9.34821 3.04112 9.29354 4.90437C9.29354 5.92069 8.85623 6.82409 8.09094 7.44517V4.62206C8.06303 4.13275 7.85496 3.67299 7.50939 3.33705C7.16382 3.00111 6.70693 2.81442 6.23238 2.81527C5.24844 2.75881 4.37382 3.60574 4.37382 4.62206V7.55809C3.44454 6.99347 2.8979 5.92069 2.84324 4.79145ZM13.9399 13.7125C13.9946 15.1805 13.5026 16.592 12.5734 17.7213C12.464 17.8342 12.3547 17.9471 12.3547 18.1165V19.3022H6.01373V18.5117C6.01373 18.3424 5.9044 18.173 5.79507 18.0601C5.41243 17.7213 5.08445 17.326 4.81113 16.8179C4.48315 16.2533 4.26449 15.5757 4.15516 14.8982C4.15516 14.7852 4.1005 14.6723 4.04584 14.5594L1.42198 11.3411C1.25799 11.1717 1.14867 10.9458 1.14867 10.6635C1.14867 10.4377 1.25799 10.1554 1.42198 9.98597C1.80463 9.64719 2.35127 9.64719 2.73391 9.98597L4.31916 11.6234V13.3172L5.35776 12.7526V4.62206C5.41243 4.22683 5.74041 3.88805 6.17772 3.94452C6.56036 3.94452 6.94301 4.22683 6.94301 4.62206V11.1152L8.03628 11.3411V8.7438C8.09094 8.68734 8.14561 8.68734 8.20027 8.63087C8.58292 8.63087 8.96556 8.68734 9.3482 8.7438V11.6234L10.2228 11.7928V8.85672L10.8788 9.02611C11.1521 9.08257 11.4254 9.1955 11.6987 9.30842V12.1315L12.5734 12.3009V9.70366C13.0653 9.9295 13.5026 10.2683 13.8853 10.6635L13.9399 13.7125Z" fill="#242424"/>
</svg>
