<svg width="25" height="25" viewBox="0 0 25 25" fill="none" xmlns="http://www.w3.org/2000/svg">
<path d="M24.9249 7.34629C24.864 6.01572 24.6527 5.10706 24.3437 4.31208C24.0299 3.478 23.5378 2.7225 22.9019 2.09803C22.2776 1.46212 21.5219 0.969833 20.6879 0.655884C19.8927 0.347084 18.9842 0.135941 17.6537 0.0754776C16.3206 0.0144424 15.8947 -5.34058e-05 12.5 -5.34058e-05C9.1053 -5.34058e-05 8.67939 0.0144424 7.34634 0.0750961C6.01578 0.135941 5.10731 0.347275 4.31213 0.656265C3.47805 0.970024 2.72255 1.46212 2.09808 2.09803C1.46217 2.72231 0.969887 3.47781 0.655937 4.31189C0.347137 5.10706 0.135994 6.01572 0.075531 7.3461C0.0144958 8.67934 0 9.10506 0 12.4998C0 15.8946 0.0144958 16.3206 0.075531 17.6536C0.136185 18.984 0.347519 19.8926 0.656509 20.6878C0.970268 21.5217 1.46236 22.2774 2.09827 22.9017C2.72255 23.5376 3.47824 24.0297 4.31232 24.3434C5.10731 24.6526 6.01597 24.8638 7.34653 24.9246C8.67977 24.9855 9.10549 24.9998 12.5002 24.9998C15.8949 24.9998 16.3208 24.9855 17.6538 24.9246C18.9844 24.8638 19.8929 24.6526 20.6881 24.3434C22.3671 23.6942 23.6944 22.3669 24.3437 20.6878C24.6529 19.8926 24.864 18.984 24.9249 17.6536C24.9855 16.3204 25 15.8946 25 12.4999C25 9.10506 24.9855 8.67934 24.9249 7.34629ZM22.6748 17.5512C22.6192 18.77 22.4155 19.4318 22.2445 19.8722C21.8239 20.9625 20.9623 21.824 19.8721 22.2446C19.4317 22.4157 18.7698 22.6194 17.551 22.6749C16.2333 22.7352 15.8379 22.7477 12.5 22.7477C9.16195 22.7477 8.76675 22.7352 7.44877 22.6749C6.23016 22.6194 5.56831 22.4157 5.12772 22.2446C4.58488 22.0441 4.09374 21.7246 3.69053 21.3094C3.2753 20.9062 2.95582 20.4153 2.75536 19.8722C2.58427 19.4318 2.38056 18.77 2.32506 17.5512C2.26498 16.2332 2.2522 15.8378 2.2522 12.5001C2.2522 9.16228 2.26498 8.76707 2.32506 7.44891C2.38075 6.23011 2.58427 5.56826 2.75536 5.12785C2.95582 4.58483 3.27549 4.09369 3.69053 3.69048C4.09374 3.27525 4.58488 2.95576 5.12791 2.75549C5.56831 2.58421 6.23016 2.3807 7.44896 2.325C8.76694 2.26492 9.16233 2.25214 12.5 2.25214C15.8377 2.25214 16.2329 2.26492 17.551 2.3252C18.7698 2.3807 19.4315 2.5844 19.8721 2.75549C20.4149 2.95596 20.9061 3.27544 21.3093 3.69048C21.7245 4.09369 22.044 4.58483 22.2443 5.12785C22.4155 5.56826 22.6192 6.23011 22.6748 7.44891C22.7348 8.76688 22.7476 12.4999 22.7476 12.4999C22.7476 12.4999 22.735 16.233 22.6748 17.5512Z" fill="white"/>
<path d="M12.4998 6.08105C8.9548 6.08105 6.08099 8.95505 6.08099 12.5C6.08099 16.045 8.9548 18.9188 12.4998 18.9188C16.045 18.9188 18.9188 16.045 18.9188 12.5C18.9188 8.95505 16.045 6.08105 12.4998 6.08105ZM12.4998 16.6666C10.1988 16.6665 8.33319 14.8011 8.33338 12.4999C8.33338 10.1988 10.1988 8.33325 12.5 8.33325C14.8012 8.33344 16.6666 10.1988 16.6666 12.4999C16.6666 14.8011 14.801 16.6666 12.4998 16.6666Z" fill="white"/>
<path d="M20.6724 5.82728C20.6724 6.65564 20.0009 7.32722 19.1725 7.32722C18.3439 7.32722 17.6724 6.65564 17.6724 5.82728C17.6724 4.99873 18.3439 4.32715 19.1725 4.32715C20.0009 4.32715 20.6724 4.99873 20.6724 5.82728Z" fill="white"/>
</svg>
