<svg width="187" height="66" viewBox="0 0 187 66" fill="none" xmlns="http://www.w3.org/2000/svg">
<path d="M88.7679 24.1545C88.7679 26.7638 88.0284 28.8513 86.5494 30.4168C85.0891 31.9638 83.1234 32.7372 80.6521 32.7372C78.1622 32.7372 76.1871 31.9638 74.7268 30.4168C73.2665 28.8699 72.5364 26.7825 72.5364 24.1545V12.8601H74.6987V24.1545C74.6987 26.1488 75.2416 27.7516 76.3275 28.9631C77.4133 30.1559 78.8549 30.7523 80.6521 30.7523C82.4494 30.7523 83.891 30.1559 84.9768 28.9631C86.0626 27.7516 86.6056 26.1488 86.6056 24.1545V12.8601H88.7679V24.1545Z" fill="#242424"/>
<path d="M89.9118 32.4297L98.0837 12.8601H100.695L108.755 32.4297H106.396L103.925 26.2793H94.6577L92.1584 32.4297H89.9118ZM95.4159 24.4341H103.167L99.3194 14.8729L95.4159 24.4341Z" fill="#242424"/>
<path d="M85.5407 61.782C86.9785 61.782 88.3564 61.4957 89.6744 60.9231C90.9924 60.3267 92.1067 59.4917 93.0173 58.4182L95.4975 60.9231C94.2754 62.2591 92.7657 63.3207 90.9684 64.108C89.1951 64.8714 87.3499 65.2531 85.4328 65.2531C83.5877 65.2531 81.8503 64.9191 80.2208 64.2511C78.6152 63.5831 77.2254 62.6766 76.0511 61.5315C74.8769 60.3625 73.9424 58.9908 73.2474 57.4162C72.5764 55.8179 72.2409 54.1241 72.2409 52.3348C72.2409 50.5218 72.5764 48.828 73.2474 47.2534C73.9424 45.6789 74.8769 44.3191 76.0511 43.174C77.2254 42.0051 78.6152 41.0866 80.2208 40.4186C81.8503 39.7506 83.5877 39.4166 85.4328 39.4166C87.3979 39.4166 89.279 39.8103 91.0763 40.5975C92.8975 41.3609 94.3952 42.4106 95.5694 43.7466L93.0532 46.323C92.0947 45.2257 90.9445 44.3788 89.6025 43.7823C88.2606 43.1859 86.8707 42.8877 85.4328 42.8877C84.1149 42.8877 82.8807 43.1263 81.7305 43.6034C80.5802 44.0806 79.5858 44.7485 78.747 45.6074C77.9323 46.4423 77.2853 47.4443 76.806 48.6133C76.3267 49.7584 76.0871 50.9989 76.0871 52.3348C76.0871 53.6708 76.3267 54.9233 76.806 56.0922C77.2853 57.2373 77.9443 58.2274 78.783 59.0623C79.6217 59.8973 80.6162 60.5653 81.7664 61.0663C82.9407 61.5434 84.1987 61.782 85.5407 61.782Z" fill="#242424"/>
<path d="M106.343 65.1815C104.354 65.1815 102.737 64.6686 101.491 63.6428C100.244 62.6169 99.6214 61.281 99.6214 59.6349C99.6214 57.9172 100.28 56.5693 101.598 55.5912C102.916 54.5893 104.726 54.0883 107.026 54.0883C107.913 54.0883 108.775 54.1837 109.614 54.3746C110.453 54.5416 111.256 54.7801 112.022 55.0903V53.1579C112.022 51.8696 111.639 50.9035 110.872 50.2593C110.105 49.6152 109.003 49.2932 107.565 49.2932C106.727 49.2932 105.852 49.4244 104.941 49.6868C104.031 49.9254 103.012 50.3071 101.886 50.8319L100.556 48.1481C101.922 47.5039 103.216 47.0387 104.438 46.7525C105.66 46.4423 106.87 46.2873 108.069 46.2873C110.441 46.2873 112.274 46.8598 113.568 48.0049C114.886 49.1262 115.545 50.7245 115.545 52.8V64.8594H112.022V63.2849C111.208 63.929 110.333 64.4062 109.398 64.7163C108.464 65.0264 107.445 65.1815 106.343 65.1815ZM103.072 59.5633C103.072 60.446 103.444 61.1617 104.186 61.7104C104.953 62.2591 105.948 62.5334 107.17 62.5334C108.128 62.5334 109.015 62.3903 109.83 62.104C110.645 61.8177 111.375 61.3883 112.022 60.8158V57.6667C111.328 57.285 110.597 57.0107 109.83 56.8437C109.063 56.6528 108.224 56.5574 107.314 56.5574C106.02 56.5574 104.989 56.8318 104.222 57.3805C103.456 57.9292 103.072 58.6568 103.072 59.5633Z" fill="#242424"/>
<path d="M119.759 62.4977L121.7 60.1359C122.658 60.8754 123.629 61.448 124.611 61.8535C125.618 62.2352 126.636 62.4261 127.667 62.4261C128.961 62.4261 130.015 62.1756 130.83 61.6746C131.645 61.1736 132.052 60.5176 132.052 59.7065C132.052 59.0623 131.813 58.5494 131.333 58.1677C130.854 57.786 130.111 57.5236 129.105 57.3805L125.798 56.9153C124 56.6528 122.634 56.1042 121.7 55.2692C120.789 54.4104 120.334 53.2772 120.334 51.8696C120.334 50.2236 120.993 48.8995 122.311 47.8976C123.629 46.8717 125.354 46.3588 127.487 46.3588C128.829 46.3588 130.099 46.5497 131.297 46.9314C132.519 47.3131 133.706 47.8976 134.856 48.6848L133.023 51.0466C132.016 50.3786 131.034 49.9015 130.075 49.6152C129.141 49.3051 128.194 49.15 127.235 49.15C126.133 49.15 125.247 49.3767 124.576 49.8299C123.905 50.2832 123.569 50.8796 123.569 51.6192C123.569 52.2871 123.797 52.8 124.252 53.1579C124.731 53.4919 125.51 53.7424 126.588 53.9094L129.895 54.3746C131.693 54.637 133.059 55.1976 133.993 56.0564C134.952 56.9153 135.431 58.0484 135.431 59.456C135.431 60.2671 135.227 61.0305 134.82 61.7462C134.437 62.438 133.897 63.0344 133.202 63.5354C132.531 64.0364 131.729 64.4419 130.794 64.7521C129.859 65.0384 128.853 65.1815 127.775 65.1815C126.193 65.1815 124.707 64.9548 123.317 64.5016C121.952 64.0483 120.765 63.3803 119.759 62.4977Z" fill="#242424"/>
<path d="M143.513 46.6451V57.452C143.513 58.8834 143.92 60.0166 144.735 60.8516C145.574 61.6865 146.676 62.104 148.042 62.104C149.001 62.104 149.863 61.9012 150.63 61.4957C151.397 61.0663 152.032 60.4699 152.535 59.7065V46.6451H156.13V64.8594H152.535V63.0344C151.816 63.7501 150.99 64.2988 150.055 64.6805C149.144 65.0384 148.138 65.2173 147.036 65.2173C144.951 65.2173 143.237 64.5493 141.896 63.2133C140.578 61.8774 139.919 60.1597 139.919 58.0604V46.6451H143.513Z" fill="#242424"/>
<path d="M167.97 65.1815C165.981 65.1815 164.363 64.6686 163.117 63.6428C161.871 62.6169 161.248 61.281 161.248 59.6349C161.248 57.9172 161.907 56.5693 163.225 55.5912C164.543 54.5893 166.352 54.0883 168.653 54.0883C169.539 54.0883 170.402 54.1837 171.241 54.3746C172.079 54.5416 172.882 54.7801 173.649 55.0903V53.1579C173.649 51.8696 173.266 50.9035 172.499 50.2593C171.732 49.6152 170.63 49.2932 169.192 49.2932C168.353 49.2932 167.478 49.4244 166.568 49.6868C165.657 49.9254 164.639 50.3071 163.512 50.8319L162.182 48.1481C163.548 47.5039 164.842 47.0387 166.064 46.7525C167.287 46.4423 168.497 46.2873 169.695 46.2873C172.067 46.2873 173.901 46.8598 175.195 48.0049C176.513 49.1262 177.172 50.7245 177.172 52.8V64.8594H173.649V63.2849C172.834 63.929 171.96 64.4062 171.025 64.7163C170.09 65.0264 169.072 65.1815 167.97 65.1815ZM164.699 59.5633C164.699 60.446 165.07 61.1617 165.813 61.7104C166.58 62.2591 167.574 62.5334 168.796 62.5334C169.755 62.5334 170.642 62.3903 171.456 62.104C172.271 61.8177 173.002 61.3883 173.649 60.8158V57.6667C172.954 57.285 172.223 57.0107 171.456 56.8437C170.689 56.6528 169.851 56.5574 168.94 56.5574C167.646 56.5574 166.616 56.8318 165.849 57.3805C165.082 57.9292 164.699 58.6568 164.699 59.5633Z" fill="#242424"/>
<path d="M186.705 39.023V64.8594H183.111V39.8103L186.705 39.023Z" fill="#242424"/>
<path d="M56.8928 11.1956C56.1757 7.86595 53.246 5.44001 49.8561 5.27437C44.9077 1.82732 39.1115 0 33.0637 0H32.2265C26.1796 0 20.3835 1.82732 15.434 5.27332C12.0441 5.43897 9.11444 7.8649 8.39729 11.1945L0.075822 49.8586C0.025274 50.0913 0 50.3325 0 50.5725C0 52.1409 1.06783 53.5027 2.5969 53.8822L10.2528 55.7882L13.6174 41.9119C13.6606 42.9813 13.6901 44.0412 13.6901 45.079C13.6901 45.8622 13.2783 47.1831 12.8434 48.5817C12.2526 50.4771 11.5839 52.6242 11.5839 54.5144C11.5839 57.4174 13.7627 59.4911 14.7442 60.2784V64.9992H50.549V60.2784C51.5305 59.49 53.7083 57.4163 53.7083 54.5155C53.7083 52.6252 53.0385 50.4771 52.4488 48.5827C52.0128 47.1842 51.6011 45.8632 51.6011 45.0801C51.6011 44.0412 51.6306 42.9802 51.6737 41.9098L55.0383 55.7892L62.6943 53.8833C64.2233 53.5027 65.2912 52.1409 65.2912 50.5725C65.2912 50.3325 65.2659 50.0913 65.2153 49.8565L56.8928 11.1956ZM25.5194 15.8902C21.8999 13.7138 18.9671 10.4963 17.1431 6.66137C17.9688 6.11307 18.8154 5.60566 19.6863 5.15381C20.8342 8.72772 23.1826 12.6025 25.5194 15.8902ZM24.0377 9.67021C26.6904 8.8357 29.4368 8.38699 32.2275 8.38699H33.0647C35.8575 8.38699 38.6018 8.8357 41.2535 9.66916C38.4133 14.6993 34.3337 19.5616 32.6456 21.4875C30.9575 19.5627 26.8778 14.7014 24.0377 9.67021ZM45.6048 5.15381C46.4757 5.60566 47.3224 6.11307 48.148 6.66137C46.3241 10.4963 43.3912 13.7148 39.7718 15.8902C42.1086 12.6025 44.4559 8.72876 45.6048 5.15381ZM33.0637 2.09675C36.7537 2.09675 40.3415 2.83795 43.6756 4.24696C43.3291 5.39284 42.8394 6.58274 42.2465 7.78628C39.28 6.81024 36.1997 6.29025 33.0637 6.29025H32.2265C29.0935 6.29025 26.0122 6.81024 23.0425 7.78628C22.4507 6.58274 21.962 5.39284 21.6145 4.24696C24.9486 2.83795 28.5365 2.09675 32.2275 2.09675H33.0637ZM48.4418 62.9025H16.8493V60.8057H48.4418V62.9025ZM45.2826 58.709H20.0086V51.2833C22.6508 50.8399 24.7411 48.7588 25.1866 46.1285H40.1046C40.55 48.7588 42.6404 50.8399 45.2826 51.2833V58.709ZM62.1846 51.8495L56.5885 53.2417L49.4654 23.8662L47.4193 24.3579L50.0709 35.2946C49.6897 38.6494 49.4949 41.9413 49.4949 45.0801C49.4949 46.1819 49.9309 47.5826 50.4364 49.2034C50.9819 50.9552 51.6011 52.9429 51.6011 54.5155C51.6011 56.5975 49.8014 58.1963 49.1474 58.709H47.3887V49.2736H46.3357C44.0126 49.2736 42.1233 47.3928 42.1233 45.0801V44.0317H23.1678V45.0801C23.1678 47.3928 21.2786 49.2736 18.9555 49.2736H17.9024V58.709H16.1427C15.4856 58.1942 13.689 56.5954 13.689 54.5155C13.689 52.9429 14.3082 50.9552 14.8537 49.2034C15.3582 47.5826 15.7952 46.1819 15.7952 45.0801C15.7952 41.9423 15.6004 38.6525 15.2202 35.2977L17.8729 24.3579L15.8268 23.8662L8.70373 53.2417L3.1066 51.8495C2.51792 51.7016 2.10617 51.1774 2.10617 50.5725C2.10617 50.4792 2.1167 50.3859 2.1346 50.2968L10.4561 11.6349C10.9457 9.36303 12.8581 7.65942 15.1318 7.37846C17.7255 12.9621 22.4875 17.359 28.2679 19.5375C28.3237 19.6077 28.3774 19.6738 28.4322 19.7419V33.3499H30.5384V22.2748C31.285 23.1397 31.7831 23.6807 31.8716 23.775L32.6456 24.6106L33.4185 23.7761C33.5059 23.6817 34.0041 23.1408 34.7517 22.2759V39.5782H36.8579V19.743C36.9137 19.6727 36.9685 19.6067 37.0243 19.5354C42.8026 17.3579 47.5636 12.9621 50.1573 7.37951C52.4309 7.66047 54.3444 9.36408 54.833 11.6359L63.1545 50.2968C63.1745 50.387 63.185 50.4792 63.185 50.5725C63.185 51.1774 62.7732 51.7016 62.1846 51.8495Z" fill="#242424"/>
</svg>
