<svg width="71" height="58" viewBox="0 0 71 58" fill="none" xmlns="http://www.w3.org/2000/svg">
<path d="M17.5093 50.7022V47.812C17.5262 47.569 17.491 47.3251 17.4062 47.0967C17.3215 46.8683 17.189 46.6606 17.0176 46.4874C16.8462 46.3142 16.6399 46.1795 16.4124 46.0923C16.1849 46.0051 15.9414 45.9674 15.6982 45.9816C15.3798 45.9608 15.0617 46.0257 14.777 46.1698C14.4923 46.3138 14.2515 46.5316 14.0797 46.8005C13.9231 46.5397 13.6991 46.326 13.4312 46.1819C13.1633 46.0377 12.8615 45.9686 12.5576 45.9816C12.2927 45.9682 12.0289 46.0243 11.7923 46.1443C11.5557 46.2643 11.3546 46.444 11.2089 46.6656V46.0972H10.207V50.7022H11.2185V48.1685C11.197 48.011 11.2105 47.8507 11.2581 47.6991C11.3058 47.5475 11.3863 47.4082 11.494 47.2913C11.6017 47.1745 11.7339 47.0828 11.8811 47.0229C12.0283 46.9631 12.1869 46.9364 12.3456 46.945C13.0104 46.945 13.3476 47.3785 13.3476 48.1589V50.7214H14.3591V48.1685C14.3385 48.0112 14.3526 47.8512 14.4006 47.7C14.4485 47.5488 14.5291 47.4099 14.6366 47.2932C14.7441 47.1765 14.8759 47.0848 15.0227 47.0247C15.1695 46.9645 15.3278 46.9373 15.4863 46.945C16.1702 46.945 16.4978 47.3785 16.4978 48.1589V50.7214L17.5093 50.7022ZM32.4754 46.0972H30.828V44.7003H29.8165V46.0972H28.9013V47.0124H29.8357V49.1319C29.8357 50.2012 30.25 50.837 31.4349 50.837C31.8776 50.8385 32.3117 50.715 32.6873 50.4806L32.3983 49.6232C32.1296 49.7835 31.8247 49.8729 31.512 49.8833C31.0303 49.8833 30.8473 49.575 30.8473 49.1126V47.0124H32.485L32.4754 46.0972ZM41.0205 45.9816C40.7762 45.9744 40.5345 46.0333 40.3209 46.152C40.1073 46.2707 39.9296 46.4448 39.8067 46.656V46.0972H38.8144V50.7022H39.8163V48.1203C39.8163 47.3593 40.1438 46.9354 40.7797 46.9354C40.994 46.9324 41.2067 46.9717 41.4059 47.051L41.7141 46.0876C41.4853 46.0057 41.2443 45.9634 41.0012 45.9624L41.0205 45.9816ZM28.1017 46.4633C27.5345 46.1261 26.8825 45.9589 26.2231 45.9816C25.0574 45.9816 24.2963 46.5404 24.2963 47.4556C24.2963 48.207 24.8551 48.6694 25.8859 48.814L26.3676 48.8814C26.9167 48.9585 27.1768 49.103 27.1768 49.3631C27.1768 49.7195 26.8107 49.9218 26.1267 49.9218C25.5766 49.9378 25.037 49.7681 24.595 49.4402L24.1133 50.2205C24.6969 50.628 25.3959 50.8374 26.1075 50.8178C27.4369 50.8178 28.2076 50.1916 28.2076 49.3149C28.2076 48.4382 27.6007 48.0818 26.5988 47.9373L26.1171 47.8698C25.6836 47.812 25.3368 47.7253 25.3368 47.4171C25.3368 47.1088 25.6643 46.8776 26.2134 46.8776C26.721 46.8835 27.2185 47.0195 27.6585 47.2726L28.1017 46.4633ZM54.9365 45.9816C54.6922 45.9744 54.4505 46.0333 54.2369 46.152C54.0232 46.2707 53.8456 46.4448 53.7226 46.656V46.0972H52.7303V50.7022H53.7322V48.1203C53.7322 47.3593 54.0598 46.9354 54.6956 46.9354C54.9099 46.9324 55.1227 46.9717 55.3218 47.051L55.6301 46.0876C55.4013 46.0057 55.1602 45.9634 54.9172 45.9624L54.9365 45.9816ZM42.0272 48.3901C42.0153 48.7137 42.0711 49.0362 42.191 49.337C42.3109 49.6378 42.4922 49.9103 42.7235 50.137C42.9547 50.3637 43.2307 50.5396 43.5338 50.6536C43.837 50.7675 44.1605 50.8168 44.4838 50.7985C45.0854 50.8291 45.6766 50.6332 46.1408 50.2494L45.6592 49.4402C45.3128 49.7043 44.8905 49.8495 44.4549 49.8544C44.0846 49.8244 43.7391 49.6562 43.4872 49.383C43.2353 49.1099 43.0954 48.752 43.0954 48.3804C43.0954 48.0089 43.2353 47.6509 43.4872 47.3778C43.7391 47.1047 44.0846 46.9364 44.4549 46.9065C44.8905 46.9113 45.3128 47.0566 45.6592 47.3207L46.1408 46.5115C45.6766 46.1277 45.0854 45.9318 44.4838 45.9624C44.1605 45.944 43.837 45.9934 43.5338 46.1073C43.2307 46.2212 42.9547 46.3972 42.7235 46.6239C42.4922 46.8506 42.3109 47.123 42.191 47.4239C42.0711 47.7247 42.0153 48.0472 42.0272 48.3708V48.3901ZM51.4105 48.3901V46.0972H50.4086V46.656C50.2385 46.4371 50.0187 46.2617 49.7674 46.1445C49.5162 46.0272 49.2406 45.9714 48.9635 45.9816C48.3248 45.9816 47.7122 46.2354 47.2605 46.6871C46.8088 47.1387 46.5551 47.7513 46.5551 48.3901C46.5551 49.0288 46.8088 49.6414 47.2605 50.0931C47.7122 50.5448 48.3248 50.7985 48.9635 50.7985C49.2406 50.8087 49.5162 50.7529 49.7674 50.6357C50.0187 50.5184 50.2385 50.3431 50.4086 50.1241V50.6829H51.4105V48.3901ZM47.6822 48.3901C47.6982 48.119 47.7931 47.8585 47.9553 47.6407C48.1174 47.4229 48.3397 47.2573 48.5948 47.1642C48.8499 47.0712 49.1266 47.0547 49.3909 47.1169C49.6552 47.1792 49.8955 47.3173 50.0823 47.5144C50.2691 47.7115 50.3942 47.9589 50.4421 48.2262C50.4901 48.4934 50.4588 48.7689 50.3522 49.0186C50.2456 49.2683 50.0682 49.4814 49.8421 49.6316C49.6159 49.7818 49.3507 49.8626 49.0791 49.864C48.8884 49.8664 48.6993 49.8294 48.5236 49.7551C48.3479 49.6809 48.1894 49.5711 48.0582 49.4327C47.927 49.2942 47.8259 49.1301 47.7612 48.9507C47.6965 48.7713 47.6696 48.5804 47.6822 48.3901ZM35.5919 45.9816C34.9531 45.9906 34.3441 46.2529 33.8987 46.7109C33.4534 47.1689 33.2082 47.785 33.2172 48.4238C33.2261 49.0625 33.4884 49.6716 33.9464 50.1169C34.4044 50.5623 35.0206 50.8075 35.6593 50.7985C36.3524 50.8341 37.0339 50.6109 37.5716 50.1723L37.0899 49.4305C36.7096 49.7356 36.2384 49.9051 35.7508 49.9122C35.4197 49.9407 35.0904 49.8389 34.8332 49.6284C34.5759 49.4179 34.4109 49.1153 34.3732 48.7851H37.7932C37.7932 48.6598 37.7932 48.5346 37.7932 48.3997C37.7932 46.9546 36.8973 45.9913 35.6063 45.9913L35.5919 45.9816ZM35.5919 46.8776C35.7418 46.8744 35.8909 46.9007 36.0306 46.9552C36.1704 47.0096 36.298 47.0911 36.4063 47.1948C36.5145 47.2986 36.6012 47.4227 36.6615 47.56C36.7218 47.6973 36.7544 47.8452 36.7576 47.9951H34.3491C34.3666 47.6859 34.5044 47.3958 34.7331 47.1869C34.9617 46.978 35.2631 46.867 35.5726 46.8776H35.5919ZM60.6926 48.3997V44.2476H59.7293V46.656C59.5591 46.4371 59.3393 46.2617 59.0881 46.1445C58.8368 46.0272 58.5613 45.9714 58.2842 45.9816C57.6454 45.9816 57.0328 46.2354 56.5812 46.6871C56.1295 47.1387 55.8758 47.7513 55.8758 48.3901C55.8758 49.0288 56.1295 49.6414 56.5812 50.0931C57.0328 50.5448 57.6454 50.7985 58.2842 50.7985C58.5613 50.8087 58.8368 50.7529 59.0881 50.6357C59.3393 50.5184 59.5591 50.3431 59.7293 50.1241V50.6829H60.6926V48.3997ZM62.3641 50.0326C62.4267 50.0319 62.4889 50.0433 62.5471 50.0663C62.6024 50.0889 62.6531 50.1216 62.6965 50.1627C62.7388 50.2042 62.7731 50.2532 62.7976 50.3072C62.822 50.3634 62.8346 50.4241 62.8346 50.4854C62.8346 50.5467 62.822 50.6074 62.7976 50.6636C62.7731 50.7176 62.7388 50.7666 62.6965 50.8081C62.6531 50.8492 62.6024 50.8819 62.5471 50.9045C62.4895 50.9299 62.4271 50.9431 62.3641 50.943C62.2728 50.9423 62.1835 50.9157 62.1068 50.8662C62.03 50.8168 61.9689 50.7465 61.9306 50.6636C61.9065 50.6073 61.894 50.5467 61.894 50.4854C61.894 50.4241 61.9065 50.3635 61.9306 50.3072C61.9551 50.2532 61.9894 50.2042 62.0317 50.1627C62.0751 50.1216 62.1257 50.0889 62.181 50.0663C62.2438 50.0414 62.3111 50.0299 62.3785 50.0326H62.3641ZM62.3641 50.8467C62.4122 50.847 62.4598 50.8371 62.5038 50.8178C62.5452 50.7993 62.5828 50.7731 62.6146 50.7407C62.6748 50.675 62.7082 50.589 62.7082 50.4999C62.7082 50.4107 62.6748 50.3248 62.6146 50.259C62.5829 50.2265 62.5453 50.2004 62.5038 50.1819C62.4597 50.1627 62.4121 50.1529 62.3641 50.153C62.3161 50.1533 62.2686 50.1631 62.2244 50.1819C62.1811 50.1997 62.1418 50.2259 62.1088 50.259C62.0485 50.3248 62.0151 50.4107 62.0151 50.4999C62.0151 50.589 62.0485 50.675 62.1088 50.7407C62.1419 50.7737 62.1812 50.7999 62.2244 50.8178C62.273 50.8387 62.3256 50.8486 62.3785 50.8467H62.3641ZM62.393 50.2735C62.438 50.2713 62.4823 50.2849 62.5182 50.312C62.533 50.3242 62.5446 50.3398 62.5521 50.3573C62.5597 50.3749 62.5629 50.3941 62.5616 50.4132C62.5623 50.4292 62.5596 50.4451 62.5538 50.4601C62.548 50.475 62.5392 50.4885 62.5279 50.4999C62.4999 50.5252 62.4643 50.5405 62.4267 50.5432L62.5664 50.7022H62.4556L62.3256 50.5432H62.2822V50.7022H62.1907V50.2783L62.393 50.2735ZM62.287 50.3554V50.471H62.393C62.4118 50.4766 62.4319 50.4766 62.4508 50.471C62.4542 50.4642 62.4559 50.4568 62.4559 50.4493C62.4559 50.4418 62.4542 50.4343 62.4508 50.4276C62.4542 50.4209 62.4559 50.4135 62.4559 50.4059C62.4559 50.3984 62.4542 50.391 62.4508 50.3843C62.4319 50.3786 62.4118 50.3786 62.393 50.3843L62.287 50.3554ZM56.9885 48.3997C57.0044 48.1286 57.0993 47.8682 57.2615 47.6504C57.4236 47.4326 57.6459 47.2669 57.901 47.1739C58.1561 47.0808 58.4328 47.0644 58.6971 47.1266C58.9614 47.1888 59.2017 47.327 59.3885 47.524C59.5753 47.7211 59.7004 47.9685 59.7483 48.2358C59.7963 48.5031 59.765 48.7785 59.6584 49.0282C59.5518 49.2779 59.3744 49.491 59.1483 49.6413C58.9221 49.7915 58.6569 49.8723 58.3853 49.8737C58.1946 49.8761 58.0055 49.839 57.8298 49.7648C57.6541 49.6905 57.4956 49.5807 57.3644 49.4423C57.2332 49.3038 57.1321 49.1397 57.0674 48.9603C57.0027 48.7809 56.9758 48.59 56.9885 48.3997ZM23.1595 48.3997V46.0972H22.1576V46.656C21.9875 46.4371 21.7677 46.2617 21.5164 46.1445C21.2652 46.0272 20.9896 45.9714 20.7126 45.9816C20.0738 45.9816 19.4612 46.2354 19.0095 46.6871C18.5579 47.1387 18.3041 47.7513 18.3041 48.3901C18.3041 49.0288 18.5579 49.6414 19.0095 50.0931C19.4612 50.5448 20.0738 50.7985 20.7126 50.7985C20.9896 50.8087 21.2652 50.7529 21.5164 50.6357C21.7677 50.5184 21.9875 50.3431 22.1576 50.1241V50.6829H23.1595V48.3997ZM19.4313 48.3997C19.4472 48.1286 19.5421 47.8682 19.7043 47.6504C19.8664 47.4326 20.0887 47.2669 20.3438 47.1739C20.5989 47.0808 20.8756 47.0644 21.1399 47.1266C21.4042 47.1888 21.6446 47.327 21.8313 47.524C22.0181 47.7211 22.1432 47.9685 22.1911 48.2358C22.2391 48.5031 22.2078 48.7785 22.1012 49.0282C21.9946 49.2779 21.8173 49.491 21.5911 49.6413C21.3649 49.7915 21.0997 49.8723 20.8282 49.8737C20.6366 49.8774 20.4464 49.8413 20.2696 49.7677C20.0927 49.6941 19.9331 49.5845 19.8009 49.4459C19.6686 49.3073 19.5666 49.1427 19.5014 48.9626C19.4361 48.7825 19.4089 48.5908 19.4216 48.3997H19.4313Z" fill="#242424"/>
<path d="M42.9425 11.0063H27.7693V38.2747H42.9425V11.0063Z" fill="#FF5F00"/>
<path d="M28.7327 24.6449C28.7299 22.0184 29.3247 19.4257 30.4722 17.0631C31.6197 14.7005 33.2898 12.63 35.3559 11.0084C32.7977 8.99789 29.7255 7.74771 26.4904 7.40068C23.2553 7.05366 19.9878 7.62379 17.0614 9.04592C14.135 10.4681 11.6678 12.6848 9.94164 15.4428C8.2155 18.2008 7.30012 21.3889 7.30012 24.6425C7.30012 27.8962 8.2155 31.0842 9.94164 33.8422C11.6678 36.6002 14.135 38.817 17.0614 40.2391C19.9878 41.6612 23.2553 42.2314 26.4904 41.8843C29.7255 41.5373 32.7977 40.2871 35.3559 38.2767C33.2904 36.6555 31.6208 34.5858 30.4733 32.2241C29.3258 29.8624 28.7306 27.2706 28.7327 24.6449Z" fill="#EB001B"/>
<path d="M63.4142 24.643C63.4141 27.8969 62.4985 31.0851 60.7721 33.8433C59.0456 36.6014 56.578 38.8181 53.6512 40.24C50.7244 41.662 47.4567 42.2317 44.2214 41.8842C40.9861 41.5367 37.9139 40.2859 35.3559 38.2748C37.4205 36.6522 39.0897 34.5819 40.2375 32.2201C41.3852 29.8582 41.9816 27.2666 41.9816 24.6406C41.9816 22.0147 41.3852 19.423 40.2375 17.0612C39.0897 14.6994 37.4205 12.629 35.3559 11.0065C37.9139 8.99536 40.9861 7.74457 44.2214 7.39705C47.4567 7.04952 50.7244 7.61929 53.6512 9.04122C56.578 10.4631 59.0456 12.6799 60.7721 15.438C62.4985 18.1961 63.4141 21.3843 63.4142 24.6382V24.643Z" fill="#F79E1B"/>
<path d="M61.7572 35.3848V34.8261H61.9836V34.7104H61.4104V34.8261H61.656V35.3848H61.7572ZM62.8699 35.3848V34.7104H62.6965L62.4942 35.1921L62.2918 34.7104H62.1377V35.3848H62.2629V34.879L62.4508 35.3174H62.5809L62.7687 34.879V35.3896L62.8699 35.3848Z" fill="#F79E1B"/>
</svg>
