<svg width="198" height="560" viewBox="0 0 198 560" fill="none" xmlns="http://www.w3.org/2000/svg">
<g opacity="0.08">
<path d="M0.976 49.744L8.016 42.192C10.448 44.7093 12.8587 46.5653 15.248 47.76C17.68 48.912 20.2613 49.488 22.992 49.488C25.2107 49.488 26.96 49.0827 28.24 48.272C29.52 47.4613 30.16 46.3307 30.16 44.88C30.16 43.8987 29.7333 43.088 28.88 42.448C28.0693 41.808 26.6827 41.232 24.72 40.72L15.376 38.288C12.304 37.4773 9.936 36.0907 8.272 34.128C6.65067 32.1653 5.84 29.776 5.84 26.96C5.84 22.5227 7.41867 19.024 10.576 16.464C13.776 13.8613 18.0853 12.56 23.504 12.56C27.216 12.56 30.8213 13.2427 34.32 14.608C37.8613 15.9733 40.848 17.872 43.28 20.304L36.496 27.984C34.32 25.8507 32.08 24.272 29.776 23.248C27.5147 22.224 25.104 21.712 22.544 21.712C20.5813 21.712 19.024 22.0747 17.872 22.8C16.72 23.5253 16.144 24.4853 16.144 25.68C16.144 26.6187 16.5067 27.3867 17.232 27.984C18 28.5813 19.2373 29.0933 20.944 29.52L29.712 31.632C33.3387 32.4853 36.112 33.9147 38.032 35.92C39.952 37.9253 40.912 40.4 40.912 43.344C40.912 45.648 40.464 47.76 39.568 49.68C38.672 51.5573 37.4133 53.1573 35.792 54.48C34.1707 55.8027 32.1867 56.8267 29.84 57.552C27.4933 58.2773 24.912 58.64 22.096 58.64C17.9147 58.64 14.0107 57.872 10.384 56.336C6.75733 54.8 3.62133 52.6027 0.976 49.744ZM40.9645 22.928L43.0765 13.2H82.5645L80.4525 22.928H66.1805L58.6925 58H47.8765L55.3645 22.928H40.9645ZM88.522 58L92.042 41.232L79.882 13.2H91.338L99.082 31.568L114.378 13.2H127.05L102.858 41.36L99.338 58H88.522ZM116.669 58L126.205 13.2H136.957L129.469 48.272H152.637L150.589 58H116.669ZM152.891 58L162.427 13.2H197.052L195.004 22.736H171.132L169.403 30.8H185.147L183.228 40.016H167.484L165.691 48.464H189.819L187.771 58H152.891Z" fill="#242424"/>
<path d="M1.37475 119.744L8.41475 112.192C10.8468 114.709 13.2574 116.565 15.6468 117.76C18.0788 118.912 20.6601 119.488 23.3908 119.488C25.6094 119.488 27.3588 119.083 28.6388 118.272C29.9188 117.461 30.5588 116.331 30.5588 114.88C30.5588 113.899 30.1321 113.088 29.2788 112.448C28.4681 111.808 27.0814 111.232 25.1188 110.72L15.7748 108.288C12.7028 107.477 10.3348 106.091 8.67075 104.128C7.04942 102.165 6.23875 99.776 6.23875 96.96C6.23875 92.5227 7.81742 89.024 10.9748 86.464C14.1748 83.8613 18.4841 82.56 23.9028 82.56C27.6148 82.56 31.2201 83.2427 34.7188 84.608C38.2601 85.9733 41.2468 87.872 43.6788 90.304L36.8948 97.984C34.7188 95.8507 32.4788 94.272 30.1748 93.248C27.9134 92.224 25.5028 91.712 22.9428 91.712C20.9801 91.712 19.4228 92.0747 18.2708 92.8C17.1188 93.5253 16.5428 94.4853 16.5428 95.68C16.5428 96.6187 16.9054 97.3867 17.6308 97.984C18.3988 98.5813 19.6361 99.0933 21.3428 99.52L30.1108 101.632C33.7374 102.485 36.5108 103.915 38.4308 105.92C40.3508 107.925 41.3108 110.4 41.3108 113.344C41.3108 115.648 40.8628 117.76 39.9668 119.68C39.0708 121.557 37.8121 123.157 36.1908 124.48C34.5694 125.803 32.5854 126.827 30.2388 127.552C27.8921 128.277 25.3108 128.64 22.4948 128.64C18.3134 128.64 14.4094 127.872 10.7828 126.336C7.15608 124.8 4.02008 122.603 1.37475 119.744ZM41.3633 92.928L43.4753 83.2H82.9633L80.8513 92.928H66.5793L59.0913 128H48.2753L55.7633 92.928H41.3633ZM88.9208 128L92.4408 111.232L80.2808 83.2H91.7368L99.4808 101.568L114.777 83.2H127.449L103.257 111.36L99.7368 128H88.9208ZM117.068 128L126.604 83.2H137.356L129.868 118.272H153.036L150.988 128H117.068ZM153.29 128L162.826 83.2H197.45L195.402 92.736H171.53L169.802 100.8H185.546L183.626 110.016H167.882L166.09 118.464H190.218L188.17 128H153.29Z" fill="#242424"/>
<path d="M1.37475 189.744L8.41475 182.192C10.8468 184.709 13.2574 186.565 15.6468 187.76C18.0788 188.912 20.6601 189.488 23.3908 189.488C25.6094 189.488 27.3588 189.083 28.6388 188.272C29.9188 187.461 30.5588 186.331 30.5588 184.88C30.5588 183.899 30.1321 183.088 29.2788 182.448C28.4681 181.808 27.0814 181.232 25.1188 180.72L15.7748 178.288C12.7028 177.477 10.3348 176.091 8.67075 174.128C7.04942 172.165 6.23875 169.776 6.23875 166.96C6.23875 162.523 7.81742 159.024 10.9748 156.464C14.1748 153.861 18.4841 152.56 23.9028 152.56C27.6148 152.56 31.2201 153.243 34.7188 154.608C38.2601 155.973 41.2468 157.872 43.6788 160.304L36.8948 167.984C34.7188 165.851 32.4788 164.272 30.1748 163.248C27.9134 162.224 25.5028 161.712 22.9428 161.712C20.9801 161.712 19.4228 162.075 18.2708 162.8C17.1188 163.525 16.5428 164.485 16.5428 165.68C16.5428 166.619 16.9054 167.387 17.6308 167.984C18.3988 168.581 19.6361 169.093 21.3428 169.52L30.1108 171.632C33.7374 172.485 36.5108 173.915 38.4308 175.92C40.3508 177.925 41.3108 180.4 41.3108 183.344C41.3108 185.648 40.8628 187.76 39.9668 189.68C39.0708 191.557 37.8121 193.157 36.1908 194.48C34.5694 195.803 32.5854 196.827 30.2388 197.552C27.8921 198.277 25.3108 198.64 22.4948 198.64C18.3134 198.64 14.4094 197.872 10.7828 196.336C7.15608 194.8 4.02008 192.603 1.37475 189.744ZM41.3633 162.928L43.4753 153.2H82.9633L80.8513 162.928H66.5793L59.0913 198H48.2753L55.7633 162.928H41.3633ZM88.9208 198L92.4408 181.232L80.2808 153.2H91.7368L99.4808 171.568L114.777 153.2H127.449L103.257 181.36L99.7368 198H88.9208ZM117.068 198L126.604 153.2H137.356L129.868 188.272H153.036L150.988 198H117.068ZM153.29 198L162.826 153.2H197.45L195.402 162.736H171.53L169.802 170.8H185.546L183.626 180.016H167.882L166.09 188.464H190.218L188.17 198H153.29Z" fill="#242424"/>
<path d="M1.37475 259.744L8.41475 252.192C10.8468 254.709 13.2574 256.565 15.6468 257.76C18.0788 258.912 20.6601 259.488 23.3908 259.488C25.6094 259.488 27.3588 259.083 28.6388 258.272C29.9188 257.461 30.5588 256.331 30.5588 254.88C30.5588 253.899 30.1321 253.088 29.2788 252.448C28.4681 251.808 27.0814 251.232 25.1188 250.72L15.7748 248.288C12.7028 247.477 10.3348 246.091 8.67075 244.128C7.04942 242.165 6.23875 239.776 6.23875 236.96C6.23875 232.523 7.81742 229.024 10.9748 226.464C14.1748 223.861 18.4841 222.56 23.9028 222.56C27.6148 222.56 31.2201 223.243 34.7188 224.608C38.2601 225.973 41.2468 227.872 43.6788 230.304L36.8948 237.984C34.7188 235.851 32.4788 234.272 30.1748 233.248C27.9134 232.224 25.5028 231.712 22.9428 231.712C20.9801 231.712 19.4228 232.075 18.2708 232.8C17.1188 233.525 16.5428 234.485 16.5428 235.68C16.5428 236.619 16.9054 237.387 17.6308 237.984C18.3988 238.581 19.6361 239.093 21.3428 239.52L30.1108 241.632C33.7374 242.485 36.5108 243.915 38.4308 245.92C40.3508 247.925 41.3108 250.4 41.3108 253.344C41.3108 255.648 40.8628 257.76 39.9668 259.68C39.0708 261.557 37.8121 263.157 36.1908 264.48C34.5694 265.803 32.5854 266.827 30.2388 267.552C27.8921 268.277 25.3108 268.64 22.4948 268.64C18.3134 268.64 14.4094 267.872 10.7828 266.336C7.15608 264.8 4.02008 262.603 1.37475 259.744ZM41.3633 232.928L43.4753 223.2H82.9633L80.8513 232.928H66.5793L59.0913 268H48.2753L55.7633 232.928H41.3633ZM88.9208 268L92.4408 251.232L80.2808 223.2H91.7368L99.4808 241.568L114.777 223.2H127.449L103.257 251.36L99.7368 268H88.9208ZM117.068 268L126.604 223.2H137.356L129.868 258.272H153.036L150.988 268H117.068ZM153.29 268L162.826 223.2H197.45L195.402 232.736H171.53L169.802 240.8H185.546L183.626 250.016H167.882L166.09 258.464H190.218L188.17 268H153.29Z" fill="#242424"/>
<path d="M1.37475 329.744L8.41475 322.192C10.8468 324.709 13.2574 326.565 15.6468 327.76C18.0788 328.912 20.6601 329.488 23.3908 329.488C25.6094 329.488 27.3588 329.083 28.6388 328.272C29.9188 327.461 30.5588 326.331 30.5588 324.88C30.5588 323.899 30.1321 323.088 29.2788 322.448C28.4681 321.808 27.0814 321.232 25.1188 320.72L15.7748 318.288C12.7028 317.477 10.3348 316.091 8.67075 314.128C7.04942 312.165 6.23875 309.776 6.23875 306.96C6.23875 302.523 7.81742 299.024 10.9748 296.464C14.1748 293.861 18.4841 292.56 23.9028 292.56C27.6148 292.56 31.2201 293.243 34.7188 294.608C38.2601 295.973 41.2468 297.872 43.6788 300.304L36.8948 307.984C34.7188 305.851 32.4788 304.272 30.1748 303.248C27.9134 302.224 25.5028 301.712 22.9428 301.712C20.9801 301.712 19.4228 302.075 18.2708 302.8C17.1188 303.525 16.5428 304.485 16.5428 305.68C16.5428 306.619 16.9054 307.387 17.6308 307.984C18.3988 308.581 19.6361 309.093 21.3428 309.52L30.1108 311.632C33.7374 312.485 36.5108 313.915 38.4308 315.92C40.3508 317.925 41.3108 320.4 41.3108 323.344C41.3108 325.648 40.8628 327.76 39.9668 329.68C39.0708 331.557 37.8121 333.157 36.1908 334.48C34.5694 335.803 32.5854 336.827 30.2388 337.552C27.8921 338.277 25.3108 338.64 22.4948 338.64C18.3134 338.64 14.4094 337.872 10.7828 336.336C7.15608 334.8 4.02008 332.603 1.37475 329.744ZM41.3633 302.928L43.4753 293.2H82.9633L80.8513 302.928H66.5793L59.0913 338H48.2753L55.7633 302.928H41.3633ZM88.9208 338L92.4408 321.232L80.2808 293.2H91.7368L99.4808 311.568L114.777 293.2H127.449L103.257 321.36L99.7368 338H88.9208ZM117.068 338L126.604 293.2H137.356L129.868 328.272H153.036L150.988 338H117.068ZM153.29 338L162.826 293.2H197.45L195.402 302.736H171.53L169.802 310.8H185.546L183.626 320.016H167.882L166.09 328.464H190.218L188.17 338H153.29Z" fill="#242424"/>
<path d="M1.37475 399.744L8.41475 392.192C10.8468 394.709 13.2574 396.565 15.6468 397.76C18.0788 398.912 20.6601 399.488 23.3908 399.488C25.6094 399.488 27.3588 399.083 28.6388 398.272C29.9188 397.461 30.5588 396.331 30.5588 394.88C30.5588 393.899 30.1321 393.088 29.2788 392.448C28.4681 391.808 27.0814 391.232 25.1188 390.72L15.7748 388.288C12.7028 387.477 10.3348 386.091 8.67075 384.128C7.04942 382.165 6.23875 379.776 6.23875 376.96C6.23875 372.523 7.81742 369.024 10.9748 366.464C14.1748 363.861 18.4841 362.56 23.9028 362.56C27.6148 362.56 31.2201 363.243 34.7188 364.608C38.2601 365.973 41.2468 367.872 43.6788 370.304L36.8948 377.984C34.7188 375.851 32.4788 374.272 30.1748 373.248C27.9134 372.224 25.5028 371.712 22.9428 371.712C20.9801 371.712 19.4228 372.075 18.2708 372.8C17.1188 373.525 16.5428 374.485 16.5428 375.68C16.5428 376.619 16.9054 377.387 17.6308 377.984C18.3988 378.581 19.6361 379.093 21.3428 379.52L30.1108 381.632C33.7374 382.485 36.5108 383.915 38.4308 385.92C40.3508 387.925 41.3108 390.4 41.3108 393.344C41.3108 395.648 40.8628 397.76 39.9668 399.68C39.0708 401.557 37.8121 403.157 36.1908 404.48C34.5694 405.803 32.5854 406.827 30.2388 407.552C27.8921 408.277 25.3108 408.64 22.4948 408.64C18.3134 408.64 14.4094 407.872 10.7828 406.336C7.15608 404.8 4.02008 402.603 1.37475 399.744ZM41.3633 372.928L43.4753 363.2H82.9633L80.8513 372.928H66.5793L59.0913 408H48.2753L55.7633 372.928H41.3633ZM88.9208 408L92.4408 391.232L80.2808 363.2H91.7368L99.4808 381.568L114.777 363.2H127.449L103.257 391.36L99.7368 408H88.9208ZM117.068 408L126.604 363.2H137.356L129.868 398.272H153.036L150.988 408H117.068ZM153.29 408L162.826 363.2H197.45L195.402 372.736H171.53L169.802 380.8H185.546L183.626 390.016H167.882L166.09 398.464H190.218L188.17 408H153.29Z" fill="#242424"/>
<path d="M1.37475 469.744L8.41475 462.192C10.8468 464.709 13.2574 466.565 15.6468 467.76C18.0788 468.912 20.6601 469.488 23.3908 469.488C25.6094 469.488 27.3588 469.083 28.6388 468.272C29.9188 467.461 30.5588 466.331 30.5588 464.88C30.5588 463.899 30.1321 463.088 29.2788 462.448C28.4681 461.808 27.0814 461.232 25.1188 460.72L15.7748 458.288C12.7028 457.477 10.3348 456.091 8.67075 454.128C7.04942 452.165 6.23875 449.776 6.23875 446.96C6.23875 442.523 7.81742 439.024 10.9748 436.464C14.1748 433.861 18.4841 432.56 23.9028 432.56C27.6148 432.56 31.2201 433.243 34.7188 434.608C38.2601 435.973 41.2468 437.872 43.6788 440.304L36.8948 447.984C34.7188 445.851 32.4788 444.272 30.1748 443.248C27.9134 442.224 25.5028 441.712 22.9428 441.712C20.9801 441.712 19.4228 442.075 18.2708 442.8C17.1188 443.525 16.5428 444.485 16.5428 445.68C16.5428 446.619 16.9054 447.387 17.6308 447.984C18.3988 448.581 19.6361 449.093 21.3428 449.52L30.1108 451.632C33.7374 452.485 36.5108 453.915 38.4308 455.92C40.3508 457.925 41.3108 460.4 41.3108 463.344C41.3108 465.648 40.8628 467.76 39.9668 469.68C39.0708 471.557 37.8121 473.157 36.1908 474.48C34.5694 475.803 32.5854 476.827 30.2388 477.552C27.8921 478.277 25.3108 478.64 22.4948 478.64C18.3134 478.64 14.4094 477.872 10.7828 476.336C7.15608 474.8 4.02008 472.603 1.37475 469.744ZM41.3633 442.928L43.4753 433.2H82.9633L80.8513 442.928H66.5793L59.0913 478H48.2753L55.7633 442.928H41.3633ZM88.9208 478L92.4408 461.232L80.2808 433.2H91.7368L99.4808 451.568L114.777 433.2H127.449L103.257 461.36L99.7368 478H88.9208ZM117.068 478L126.604 433.2H137.356L129.868 468.272H153.036L150.988 478H117.068ZM153.29 478L162.826 433.2H197.45L195.402 442.736H171.53L169.802 450.8H185.546L183.626 460.016H167.882L166.09 468.464H190.218L188.17 478H153.29Z" fill="#242424"/>
<path d="M1.37475 539.744L8.41475 532.192C10.8468 534.709 13.2574 536.565 15.6468 537.76C18.0788 538.912 20.6601 539.488 23.3908 539.488C25.6094 539.488 27.3588 539.083 28.6388 538.272C29.9188 537.461 30.5588 536.331 30.5588 534.88C30.5588 533.899 30.1321 533.088 29.2788 532.448C28.4681 531.808 27.0814 531.232 25.1188 530.72L15.7748 528.288C12.7028 527.477 10.3348 526.091 8.67075 524.128C7.04942 522.165 6.23875 519.776 6.23875 516.96C6.23875 512.523 7.81742 509.024 10.9748 506.464C14.1748 503.861 18.4841 502.56 23.9028 502.56C27.6148 502.56 31.2201 503.243 34.7188 504.608C38.2601 505.973 41.2468 507.872 43.6788 510.304L36.8948 517.984C34.7188 515.851 32.4788 514.272 30.1748 513.248C27.9134 512.224 25.5028 511.712 22.9428 511.712C20.9801 511.712 19.4228 512.075 18.2708 512.8C17.1188 513.525 16.5428 514.485 16.5428 515.68C16.5428 516.619 16.9054 517.387 17.6308 517.984C18.3988 518.581 19.6361 519.093 21.3428 519.52L30.1108 521.632C33.7374 522.485 36.5108 523.915 38.4308 525.92C40.3508 527.925 41.3108 530.4 41.3108 533.344C41.3108 535.648 40.8628 537.76 39.9668 539.68C39.0708 541.557 37.8121 543.157 36.1908 544.48C34.5694 545.803 32.5854 546.827 30.2388 547.552C27.8921 548.277 25.3108 548.64 22.4948 548.64C18.3134 548.64 14.4094 547.872 10.7828 546.336C7.15608 544.8 4.02008 542.603 1.37475 539.744ZM41.3633 512.928L43.4753 503.2H82.9633L80.8513 512.928H66.5793L59.0913 548H48.2753L55.7633 512.928H41.3633ZM88.9208 548L92.4408 531.232L80.2808 503.2H91.7368L99.4808 521.568L114.777 503.2H127.449L103.257 531.36L99.7368 548H88.9208ZM117.068 548L126.604 503.2H137.356L129.868 538.272H153.036L150.988 548H117.068ZM153.29 548L162.826 503.2H197.45L195.402 512.736H171.53L169.802 520.8H185.546L183.626 530.016H167.882L166.09 538.464H190.218L188.17 548H153.29Z" fill="#242424"/>
</g>
</svg>
