<svg width="147" height="560" viewBox="0 0 147 560" fill="none" xmlns="http://www.w3.org/2000/svg">
<g opacity="0.08">
<path d="M9.6 13.2H19.776L33.984 40.144L39.68 13.2H49.856L40.32 58H30.784L16.192 30.032L10.24 58H0.064L9.6 13.2ZM43.7865 58L53.3225 13.2H87.9465L85.8985 22.736H62.0265L60.2985 30.8H76.0425L74.1225 40.016H58.3785L56.5865 48.464H80.7145L78.6665 58H43.7865ZM99.7045 58H88.3125L88.0565 13.2H98.7445L98.2325 40.912L111.737 13.2H121.849L123.641 40.784L134.841 13.2H145.913L126.649 58H115.193L113.528 29.392L99.7045 58Z" fill="#242424"/>
<path d="M9.8775 83.2H20.0535L34.2615 110.144L39.9575 83.2H50.1335L40.5975 128H31.0615L16.4695 100.032L10.5175 128H0.341496L9.8775 83.2ZM44.064 128L53.6 83.2H88.224L86.176 92.736H62.304L60.576 100.8H76.32L74.4 110.016H58.656L56.864 118.464H80.992L78.944 128H44.064ZM99.982 128H88.59L88.334 83.2H99.022L98.51 110.912L112.014 83.2H122.126L123.918 110.784L135.118 83.2H146.19L126.926 128H115.47L113.806 99.392L99.982 128Z" fill="#242424"/>
<path d="M9.8775 153.2H20.0535L34.2615 180.144L39.9575 153.2H50.1335L40.5975 198H31.0615L16.4695 170.032L10.5175 198H0.341496L9.8775 153.2ZM44.064 198L53.6 153.2H88.224L86.176 162.736H62.304L60.576 170.8H76.32L74.4 180.016H58.656L56.864 188.464H80.992L78.944 198H44.064ZM99.982 198H88.59L88.334 153.2H99.022L98.51 180.912L112.014 153.2H122.126L123.918 180.784L135.118 153.2H146.19L126.926 198H115.47L113.806 169.392L99.982 198Z" fill="#242424"/>
<path d="M9.8775 223.2H20.0535L34.2615 250.144L39.9575 223.2H50.1335L40.5975 268H31.0615L16.4695 240.032L10.5175 268H0.341496L9.8775 223.2ZM44.064 268L53.6 223.2H88.224L86.176 232.736H62.304L60.576 240.8H76.32L74.4 250.016H58.656L56.864 258.464H80.992L78.944 268H44.064ZM99.982 268H88.59L88.334 223.2H99.022L98.51 250.912L112.014 223.2H122.126L123.918 250.784L135.118 223.2H146.19L126.926 268H115.47L113.806 239.392L99.982 268Z" fill="#242424"/>
<path d="M9.8775 293.2H20.0535L34.2615 320.144L39.9575 293.2H50.1335L40.5975 338H31.0615L16.4695 310.032L10.5175 338H0.341496L9.8775 293.2ZM44.064 338L53.6 293.2H88.224L86.176 302.736H62.304L60.576 310.8H76.32L74.4 320.016H58.656L56.864 328.464H80.992L78.944 338H44.064ZM99.982 338H88.59L88.334 293.2H99.022L98.51 320.912L112.014 293.2H122.126L123.918 320.784L135.118 293.2H146.19L126.926 338H115.47L113.806 309.392L99.982 338Z" fill="#242424"/>
<path d="M9.8775 363.2H20.0535L34.2615 390.144L39.9575 363.2H50.1335L40.5975 408H31.0615L16.4695 380.032L10.5175 408H0.341496L9.8775 363.2ZM44.064 408L53.6 363.2H88.224L86.176 372.736H62.304L60.576 380.8H76.32L74.4 390.016H58.656L56.864 398.464H80.992L78.944 408H44.064ZM99.982 408H88.59L88.334 363.2H99.022L98.51 390.912L112.014 363.2H122.126L123.918 390.784L135.118 363.2H146.19L126.926 408H115.47L113.806 379.392L99.982 408Z" fill="#242424"/>
<path d="M9.8775 433.2H20.0535L34.2615 460.144L39.9575 433.2H50.1335L40.5975 478H31.0615L16.4695 450.032L10.5175 478H0.341496L9.8775 433.2ZM44.064 478L53.6 433.2H88.224L86.176 442.736H62.304L60.576 450.8H76.32L74.4 460.016H58.656L56.864 468.464H80.992L78.944 478H44.064ZM99.982 478H88.59L88.334 433.2H99.022L98.51 460.912L112.014 433.2H122.126L123.918 460.784L135.118 433.2H146.19L126.926 478H115.47L113.806 449.392L99.982 478Z" fill="#242424"/>
<path d="M9.8775 503.2H20.0535L34.2615 530.144L39.9575 503.2H50.1335L40.5975 548H31.0615L16.4695 520.032L10.5175 548H0.341496L9.8775 503.2ZM44.064 548L53.6 503.2H88.224L86.176 512.736H62.304L60.576 520.8H76.32L74.4 530.016H58.656L56.864 538.464H80.992L78.944 548H44.064ZM99.982 548H88.59L88.334 503.2H99.022L98.51 530.912L112.014 503.2H122.126L123.918 530.784L135.118 503.2H146.19L126.926 548H115.47L113.806 519.392L99.982 548Z" fill="#242424"/>
</g>
</svg>
