<svg width="382" height="560" viewBox="0 0 382 560" fill="none" xmlns="http://www.w3.org/2000/svg">
<g opacity="0.08">
<path d="M9.6 13.2H29.952C34.048 13.2 37.3547 14.2027 39.872 16.208C42.3893 18.2133 43.648 20.88 43.648 24.208C43.648 26.512 43.0293 28.6453 41.792 30.608C40.5547 32.5707 38.912 34.1707 36.864 35.408C38.3147 36.3467 39.4667 37.52 40.32 38.928C41.1733 40.336 41.6 41.8933 41.6 43.6C41.6 45.648 41.152 47.5467 40.256 49.296C39.36 51.0453 38.144 52.5813 36.608 53.904C35.072 55.184 33.2373 56.1867 31.104 56.912C29.0133 57.6373 26.752 58 24.32 58H0.064L9.6 13.2ZM28.096 22.224H18.432L16.576 31.056H26.816C28.48 31.056 29.8667 30.5867 30.976 29.648C32.0853 28.6667 32.64 27.4507 32.64 26C32.64 24.8053 32.2347 23.888 31.424 23.248C30.6133 22.5653 29.504 22.224 28.096 22.224ZM24.576 48.976C26.368 48.976 27.84 48.464 28.992 47.44C30.1867 46.416 30.784 45.1147 30.784 43.536C30.784 42.2987 30.336 41.3173 29.44 40.592C28.5867 39.8667 27.392 39.504 25.856 39.504H14.784L12.736 48.976H24.576ZM40.474 58L50.01 13.2H84.634L82.586 22.736H58.714L56.986 30.8H72.73L70.81 40.016H55.066L53.274 48.464H77.402L75.354 58H40.474ZM77.546 49.744L84.586 42.192C87.018 44.7093 89.4287 46.5653 91.818 47.76C94.25 48.912 96.8313 49.488 99.562 49.488C101.781 49.488 103.53 49.0827 104.81 48.272C106.09 47.4613 106.73 46.3307 106.73 44.88C106.73 43.8987 106.303 43.088 105.45 42.448C104.639 41.808 103.253 41.232 101.29 40.72L91.946 38.288C88.874 37.4773 86.506 36.0907 84.842 34.128C83.2207 32.1653 82.41 29.776 82.41 26.96C82.41 22.5227 83.9887 19.024 87.146 16.464C90.346 13.8613 94.6553 12.56 100.074 12.56C103.786 12.56 107.391 13.2427 110.89 14.608C114.431 15.9733 117.418 17.872 119.85 20.304L113.066 27.984C110.89 25.8507 108.65 24.272 106.346 23.248C104.085 22.224 101.674 21.712 99.114 21.712C97.1513 21.712 95.594 22.0747 94.442 22.8C93.29 23.5253 92.714 24.4853 92.714 25.68C92.714 26.6187 93.0767 27.3867 93.802 27.984C94.57 28.5813 95.8073 29.0933 97.514 29.52L106.282 31.632C109.909 32.4853 112.682 33.9147 114.602 35.92C116.522 37.9253 117.482 40.4 117.482 43.344C117.482 45.648 117.034 47.76 116.138 49.68C115.242 51.5573 113.983 53.1573 112.362 54.48C110.741 55.8027 108.757 56.8267 106.41 57.552C104.063 58.2773 101.482 58.64 98.666 58.64C94.4847 58.64 90.5807 57.872 86.954 56.336C83.3273 54.8 80.1913 52.6027 77.546 49.744ZM117.535 22.928L119.647 13.2H159.135L157.023 22.928H142.751L135.263 58H124.447L131.935 22.928H117.535ZM151.428 49.744L158.468 42.192C160.9 44.7093 163.311 46.5653 165.701 47.76C168.132 48.912 170.714 49.488 173.444 49.488C175.663 49.488 177.413 49.0827 178.693 48.272C179.973 47.4613 180.613 46.3307 180.613 44.88C180.613 43.8987 180.186 43.088 179.333 42.448C178.522 41.808 177.135 41.232 175.173 40.72L165.828 38.288C162.756 37.4773 160.388 36.0907 158.724 34.128C157.103 32.1653 156.292 29.776 156.292 26.96C156.292 22.5227 157.871 19.024 161.028 16.464C164.228 13.8613 168.538 12.56 173.957 12.56C177.669 12.56 181.274 13.2427 184.772 14.608C188.314 15.9733 191.301 17.872 193.733 20.304L186.949 27.984C184.773 25.8507 182.533 24.272 180.229 23.248C177.967 22.224 175.557 21.712 172.997 21.712C171.034 21.712 169.476 22.0747 168.325 22.8C167.173 23.5253 166.597 24.4853 166.597 25.68C166.597 26.6187 166.959 27.3867 167.684 27.984C168.453 28.5813 169.69 29.0933 171.396 29.52L180.165 31.632C183.791 32.4853 186.565 33.9147 188.485 35.92C190.405 37.9253 191.365 40.4 191.365 43.344C191.365 45.648 190.917 47.76 190.021 49.68C189.125 51.5573 187.866 53.1573 186.244 54.48C184.623 55.8027 182.639 56.8267 180.293 57.552C177.946 58.2773 175.365 58.64 172.549 58.64C168.367 58.64 164.463 57.872 160.837 56.336C157.21 54.8 154.074 52.6027 151.428 49.744ZM189.052 58L198.588 13.2H233.212L231.164 22.736H207.292L205.564 30.8H221.308L219.388 40.016H203.644L201.852 48.464H225.98L223.932 58H189.052ZM226.587 58L236.123 13.2H246.875L239.387 48.272H262.555L260.507 58H226.587ZM262.809 58L272.345 13.2H283.097L275.609 48.272H298.777L296.729 58H262.809ZM299.031 58L308.567 13.2H343.192L341.144 22.736H317.271L315.543 30.8H331.287L329.368 40.016H313.623L311.831 48.464H335.959L333.911 58H299.031ZM336.567 58L346.103 13.2H366.967C371.148 13.2 374.54 14.416 377.143 16.848C379.788 19.2373 381.111 22.352 381.111 26.192C381.111 29.5627 380.023 32.5707 377.847 35.216C375.713 37.8613 372.983 39.696 369.655 40.72L376.503 58H365.111L359.287 41.552H350.839L347.319 58H336.567ZM365.047 22.608H354.871L352.759 32.592H363.959C365.708 32.592 367.159 32.08 368.311 31.056C369.505 30.032 370.103 28.752 370.103 27.216C370.103 25.808 369.633 24.6987 368.695 23.888C367.799 23.0347 366.583 22.608 365.047 22.608Z" fill="#242424"/>
<path d="M9.63 83.2H29.982C34.078 83.2 37.3847 84.2027 39.902 86.208C42.4193 88.2133 43.678 90.88 43.678 94.208C43.678 96.512 43.0593 98.6453 41.822 100.608C40.5847 102.571 38.942 104.171 36.894 105.408C38.3447 106.347 39.4967 107.52 40.35 108.928C41.2033 110.336 41.63 111.893 41.63 113.6C41.63 115.648 41.182 117.547 40.286 119.296C39.39 121.045 38.174 122.581 36.638 123.904C35.102 125.184 33.2673 126.187 31.134 126.912C29.0433 127.637 26.782 128 24.35 128H0.0939988L9.63 83.2ZM28.126 92.224H18.462L16.606 101.056H26.846C28.51 101.056 29.8967 100.587 31.006 99.648C32.1153 98.6667 32.67 97.4507 32.67 96C32.67 94.8053 32.2647 93.888 31.454 93.248C30.6433 92.5653 29.534 92.224 28.126 92.224ZM24.606 118.976C26.398 118.976 27.87 118.464 29.022 117.44C30.2167 116.416 30.814 115.115 30.814 113.536C30.814 112.299 30.366 111.317 29.47 110.592C28.6167 109.867 27.422 109.504 25.886 109.504H14.814L12.766 118.976H24.606ZM40.504 128L50.04 83.2H84.664L82.616 92.736H58.744L57.016 100.8H72.76L70.84 110.016H55.096L53.304 118.464H77.432L75.384 128H40.504ZM77.576 119.744L84.616 112.192C87.048 114.709 89.4587 116.565 91.848 117.76C94.28 118.912 96.8613 119.488 99.592 119.488C101.811 119.488 103.56 119.083 104.84 118.272C106.12 117.461 106.76 116.331 106.76 114.88C106.76 113.899 106.333 113.088 105.48 112.448C104.669 111.808 103.283 111.232 101.32 110.72L91.976 108.288C88.904 107.477 86.536 106.091 84.872 104.128C83.2507 102.165 82.44 99.776 82.44 96.96C82.44 92.5227 84.0187 89.024 87.176 86.464C90.376 83.8613 94.6853 82.56 100.104 82.56C103.816 82.56 107.421 83.2427 110.92 84.608C114.461 85.9733 117.448 87.872 119.88 90.304L113.096 97.984C110.92 95.8507 108.68 94.272 106.376 93.248C104.115 92.224 101.704 91.712 99.144 91.712C97.1813 91.712 95.624 92.0747 94.472 92.8C93.32 93.5253 92.744 94.4853 92.744 95.68C92.744 96.6187 93.1067 97.3867 93.832 97.984C94.6 98.5813 95.8373 99.0933 97.544 99.52L106.312 101.632C109.939 102.485 112.712 103.915 114.632 105.92C116.552 107.925 117.512 110.4 117.512 113.344C117.512 115.648 117.064 117.76 116.168 119.68C115.272 121.557 114.013 123.157 112.392 124.48C110.771 125.803 108.787 126.827 106.44 127.552C104.093 128.277 101.512 128.64 98.696 128.64C94.5147 128.64 90.6107 127.872 86.984 126.336C83.3573 124.8 80.2213 122.603 77.576 119.744ZM117.565 92.928L119.677 83.2H159.165L157.053 92.928H142.781L135.293 128H124.477L131.965 92.928H117.565ZM151.458 119.744L158.498 112.192C160.93 114.709 163.341 116.565 165.73 117.76C168.162 118.912 170.744 119.488 173.474 119.488C175.693 119.488 177.442 119.083 178.722 118.272C180.002 117.461 180.642 116.331 180.642 114.88C180.642 113.899 180.216 113.088 179.362 112.448C178.552 111.808 177.165 111.232 175.202 110.72L165.858 108.288C162.786 107.477 160.418 106.091 158.754 104.128C157.133 102.165 156.322 99.776 156.322 96.96C156.322 92.5227 157.901 89.024 161.058 86.464C164.258 83.8613 168.568 82.56 173.986 82.56C177.698 82.56 181.304 83.2427 184.802 84.608C188.344 85.9733 191.33 87.872 193.763 90.304L186.979 97.984C184.803 95.8507 182.562 94.272 180.258 93.248C177.997 92.224 175.586 91.712 173.026 91.712C171.064 91.712 169.506 92.0747 168.354 92.8C167.202 93.5253 166.626 94.4853 166.626 95.68C166.626 96.6187 166.989 97.3867 167.714 97.984C168.482 98.5813 169.72 99.0933 171.426 99.52L180.194 101.632C183.821 102.485 186.594 103.915 188.514 105.92C190.435 107.925 191.395 110.4 191.395 113.344C191.395 115.648 190.947 117.76 190.05 119.68C189.155 121.557 187.896 123.157 186.274 124.48C184.653 125.803 182.669 126.827 180.323 127.552C177.976 128.277 175.394 128.64 172.578 128.64C168.397 128.64 164.493 127.872 160.866 126.336C157.24 124.8 154.104 122.603 151.458 119.744ZM189.082 128L198.618 83.2H233.242L231.194 92.736H207.322L205.594 100.8H221.338L219.418 110.016H203.674L201.882 118.464H226.01L223.962 128H189.082ZM226.617 128L236.153 83.2H246.905L239.417 118.272H262.585L260.537 128H226.617ZM262.839 128L272.375 83.2H283.127L275.639 118.272H298.807L296.759 128H262.839ZM299.061 128L308.597 83.2H343.222L341.174 92.736H317.301L315.573 100.8H331.317L329.397 110.016H313.653L311.861 118.464H335.989L333.941 128H299.061ZM336.597 128L346.133 83.2H366.997C371.178 83.2 374.57 84.416 377.173 86.848C379.818 89.2373 381.141 92.352 381.141 96.192C381.141 99.5627 380.053 102.571 377.877 105.216C375.743 107.861 373.013 109.696 369.685 110.72L376.533 128H365.141L359.317 111.552H350.869L347.349 128H336.597ZM365.077 92.608H354.901L352.789 102.592H363.989C365.738 102.592 367.189 102.08 368.341 101.056C369.535 100.032 370.133 98.752 370.133 97.216C370.133 95.808 369.663 94.6987 368.725 93.888C367.829 93.0347 366.613 92.608 365.077 92.608Z" fill="#242424"/>
<path d="M9.63 153.2H29.982C34.078 153.2 37.3847 154.203 39.902 156.208C42.4193 158.213 43.678 160.88 43.678 164.208C43.678 166.512 43.0593 168.645 41.822 170.608C40.5847 172.571 38.942 174.171 36.894 175.408C38.3447 176.347 39.4967 177.52 40.35 178.928C41.2033 180.336 41.63 181.893 41.63 183.6C41.63 185.648 41.182 187.547 40.286 189.296C39.39 191.045 38.174 192.581 36.638 193.904C35.102 195.184 33.2673 196.187 31.134 196.912C29.0433 197.637 26.782 198 24.35 198H0.0939988L9.63 153.2ZM28.126 162.224H18.462L16.606 171.056H26.846C28.51 171.056 29.8967 170.587 31.006 169.648C32.1153 168.667 32.67 167.451 32.67 166C32.67 164.805 32.2647 163.888 31.454 163.248C30.6433 162.565 29.534 162.224 28.126 162.224ZM24.606 188.976C26.398 188.976 27.87 188.464 29.022 187.44C30.2167 186.416 30.814 185.115 30.814 183.536C30.814 182.299 30.366 181.317 29.47 180.592C28.6167 179.867 27.422 179.504 25.886 179.504H14.814L12.766 188.976H24.606ZM40.504 198L50.04 153.2H84.664L82.616 162.736H58.744L57.016 170.8H72.76L70.84 180.016H55.096L53.304 188.464H77.432L75.384 198H40.504ZM77.576 189.744L84.616 182.192C87.048 184.709 89.4587 186.565 91.848 187.76C94.28 188.912 96.8613 189.488 99.592 189.488C101.811 189.488 103.56 189.083 104.84 188.272C106.12 187.461 106.76 186.331 106.76 184.88C106.76 183.899 106.333 183.088 105.48 182.448C104.669 181.808 103.283 181.232 101.32 180.72L91.976 178.288C88.904 177.477 86.536 176.091 84.872 174.128C83.2507 172.165 82.44 169.776 82.44 166.96C82.44 162.523 84.0187 159.024 87.176 156.464C90.376 153.861 94.6853 152.56 100.104 152.56C103.816 152.56 107.421 153.243 110.92 154.608C114.461 155.973 117.448 157.872 119.88 160.304L113.096 167.984C110.92 165.851 108.68 164.272 106.376 163.248C104.115 162.224 101.704 161.712 99.144 161.712C97.1813 161.712 95.624 162.075 94.472 162.8C93.32 163.525 92.744 164.485 92.744 165.68C92.744 166.619 93.1067 167.387 93.832 167.984C94.6 168.581 95.8373 169.093 97.544 169.52L106.312 171.632C109.939 172.485 112.712 173.915 114.632 175.92C116.552 177.925 117.512 180.4 117.512 183.344C117.512 185.648 117.064 187.76 116.168 189.68C115.272 191.557 114.013 193.157 112.392 194.48C110.771 195.803 108.787 196.827 106.44 197.552C104.093 198.277 101.512 198.64 98.696 198.64C94.5147 198.64 90.6107 197.872 86.984 196.336C83.3573 194.8 80.2213 192.603 77.576 189.744ZM117.565 162.928L119.677 153.2H159.165L157.053 162.928H142.781L135.293 198H124.477L131.965 162.928H117.565ZM151.458 189.744L158.498 182.192C160.93 184.709 163.341 186.565 165.73 187.76C168.162 188.912 170.744 189.488 173.474 189.488C175.693 189.488 177.442 189.083 178.722 188.272C180.002 187.461 180.642 186.331 180.642 184.88C180.642 183.899 180.216 183.088 179.362 182.448C178.552 181.808 177.165 181.232 175.202 180.72L165.858 178.288C162.786 177.477 160.418 176.091 158.754 174.128C157.133 172.165 156.322 169.776 156.322 166.96C156.322 162.523 157.901 159.024 161.058 156.464C164.258 153.861 168.568 152.56 173.986 152.56C177.698 152.56 181.304 153.243 184.802 154.608C188.344 155.973 191.33 157.872 193.763 160.304L186.979 167.984C184.803 165.851 182.562 164.272 180.258 163.248C177.997 162.224 175.586 161.712 173.026 161.712C171.064 161.712 169.506 162.075 168.354 162.8C167.202 163.525 166.626 164.485 166.626 165.68C166.626 166.619 166.989 167.387 167.714 167.984C168.482 168.581 169.72 169.093 171.426 169.52L180.194 171.632C183.821 172.485 186.594 173.915 188.514 175.92C190.435 177.925 191.395 180.4 191.395 183.344C191.395 185.648 190.947 187.76 190.05 189.68C189.155 191.557 187.896 193.157 186.274 194.48C184.653 195.803 182.669 196.827 180.323 197.552C177.976 198.277 175.394 198.64 172.578 198.64C168.397 198.64 164.493 197.872 160.866 196.336C157.24 194.8 154.104 192.603 151.458 189.744ZM189.082 198L198.618 153.2H233.242L231.194 162.736H207.322L205.594 170.8H221.338L219.418 180.016H203.674L201.882 188.464H226.01L223.962 198H189.082ZM226.617 198L236.153 153.2H246.905L239.417 188.272H262.585L260.537 198H226.617ZM262.839 198L272.375 153.2H283.127L275.639 188.272H298.807L296.759 198H262.839ZM299.061 198L308.597 153.2H343.222L341.174 162.736H317.301L315.573 170.8H331.317L329.397 180.016H313.653L311.861 188.464H335.989L333.941 198H299.061ZM336.597 198L346.133 153.2H366.997C371.178 153.2 374.57 154.416 377.173 156.848C379.818 159.237 381.141 162.352 381.141 166.192C381.141 169.563 380.053 172.571 377.877 175.216C375.743 177.861 373.013 179.696 369.685 180.72L376.533 198H365.141L359.317 181.552H350.869L347.349 198H336.597ZM365.077 162.608H354.901L352.789 172.592H363.989C365.738 172.592 367.189 172.08 368.341 171.056C369.535 170.032 370.133 168.752 370.133 167.216C370.133 165.808 369.663 164.699 368.725 163.888C367.829 163.035 366.613 162.608 365.077 162.608Z" fill="#242424"/>
<path d="M9.63 223.2H29.982C34.078 223.2 37.3847 224.203 39.902 226.208C42.4193 228.213 43.678 230.88 43.678 234.208C43.678 236.512 43.0593 238.645 41.822 240.608C40.5847 242.571 38.942 244.171 36.894 245.408C38.3447 246.347 39.4967 247.52 40.35 248.928C41.2033 250.336 41.63 251.893 41.63 253.6C41.63 255.648 41.182 257.547 40.286 259.296C39.39 261.045 38.174 262.581 36.638 263.904C35.102 265.184 33.2673 266.187 31.134 266.912C29.0433 267.637 26.782 268 24.35 268H0.0939988L9.63 223.2ZM28.126 232.224H18.462L16.606 241.056H26.846C28.51 241.056 29.8967 240.587 31.006 239.648C32.1153 238.667 32.67 237.451 32.67 236C32.67 234.805 32.2647 233.888 31.454 233.248C30.6433 232.565 29.534 232.224 28.126 232.224ZM24.606 258.976C26.398 258.976 27.87 258.464 29.022 257.44C30.2167 256.416 30.814 255.115 30.814 253.536C30.814 252.299 30.366 251.317 29.47 250.592C28.6167 249.867 27.422 249.504 25.886 249.504H14.814L12.766 258.976H24.606ZM40.504 268L50.04 223.2H84.664L82.616 232.736H58.744L57.016 240.8H72.76L70.84 250.016H55.096L53.304 258.464H77.432L75.384 268H40.504ZM77.576 259.744L84.616 252.192C87.048 254.709 89.4587 256.565 91.848 257.76C94.28 258.912 96.8613 259.488 99.592 259.488C101.811 259.488 103.56 259.083 104.84 258.272C106.12 257.461 106.76 256.331 106.76 254.88C106.76 253.899 106.333 253.088 105.48 252.448C104.669 251.808 103.283 251.232 101.32 250.72L91.976 248.288C88.904 247.477 86.536 246.091 84.872 244.128C83.2507 242.165 82.44 239.776 82.44 236.96C82.44 232.523 84.0187 229.024 87.176 226.464C90.376 223.861 94.6853 222.56 100.104 222.56C103.816 222.56 107.421 223.243 110.92 224.608C114.461 225.973 117.448 227.872 119.88 230.304L113.096 237.984C110.92 235.851 108.68 234.272 106.376 233.248C104.115 232.224 101.704 231.712 99.144 231.712C97.1813 231.712 95.624 232.075 94.472 232.8C93.32 233.525 92.744 234.485 92.744 235.68C92.744 236.619 93.1067 237.387 93.832 237.984C94.6 238.581 95.8373 239.093 97.544 239.52L106.312 241.632C109.939 242.485 112.712 243.915 114.632 245.92C116.552 247.925 117.512 250.4 117.512 253.344C117.512 255.648 117.064 257.76 116.168 259.68C115.272 261.557 114.013 263.157 112.392 264.48C110.771 265.803 108.787 266.827 106.44 267.552C104.093 268.277 101.512 268.64 98.696 268.64C94.5147 268.64 90.6107 267.872 86.984 266.336C83.3573 264.8 80.2213 262.603 77.576 259.744ZM117.565 232.928L119.677 223.2H159.165L157.053 232.928H142.781L135.293 268H124.477L131.965 232.928H117.565ZM151.458 259.744L158.498 252.192C160.93 254.709 163.341 256.565 165.73 257.76C168.162 258.912 170.744 259.488 173.474 259.488C175.693 259.488 177.442 259.083 178.722 258.272C180.002 257.461 180.642 256.331 180.642 254.88C180.642 253.899 180.216 253.088 179.362 252.448C178.552 251.808 177.165 251.232 175.202 250.72L165.858 248.288C162.786 247.477 160.418 246.091 158.754 244.128C157.133 242.165 156.322 239.776 156.322 236.96C156.322 232.523 157.901 229.024 161.058 226.464C164.258 223.861 168.568 222.56 173.986 222.56C177.698 222.56 181.304 223.243 184.802 224.608C188.344 225.973 191.33 227.872 193.763 230.304L186.979 237.984C184.803 235.851 182.562 234.272 180.258 233.248C177.997 232.224 175.586 231.712 173.026 231.712C171.064 231.712 169.506 232.075 168.354 232.8C167.202 233.525 166.626 234.485 166.626 235.68C166.626 236.619 166.989 237.387 167.714 237.984C168.482 238.581 169.72 239.093 171.426 239.52L180.194 241.632C183.821 242.485 186.594 243.915 188.514 245.92C190.435 247.925 191.395 250.4 191.395 253.344C191.395 255.648 190.947 257.76 190.05 259.68C189.155 261.557 187.896 263.157 186.274 264.48C184.653 265.803 182.669 266.827 180.323 267.552C177.976 268.277 175.394 268.64 172.578 268.64C168.397 268.64 164.493 267.872 160.866 266.336C157.24 264.8 154.104 262.603 151.458 259.744ZM189.082 268L198.618 223.2H233.242L231.194 232.736H207.322L205.594 240.8H221.338L219.418 250.016H203.674L201.882 258.464H226.01L223.962 268H189.082ZM226.617 268L236.153 223.2H246.905L239.417 258.272H262.585L260.537 268H226.617ZM262.839 268L272.375 223.2H283.127L275.639 258.272H298.807L296.759 268H262.839ZM299.061 268L308.597 223.2H343.222L341.174 232.736H317.301L315.573 240.8H331.317L329.397 250.016H313.653L311.861 258.464H335.989L333.941 268H299.061ZM336.597 268L346.133 223.2H366.997C371.178 223.2 374.57 224.416 377.173 226.848C379.818 229.237 381.141 232.352 381.141 236.192C381.141 239.563 380.053 242.571 377.877 245.216C375.743 247.861 373.013 249.696 369.685 250.72L376.533 268H365.141L359.317 251.552H350.869L347.349 268H336.597ZM365.077 232.608H354.901L352.789 242.592H363.989C365.738 242.592 367.189 242.08 368.341 241.056C369.535 240.032 370.133 238.752 370.133 237.216C370.133 235.808 369.663 234.699 368.725 233.888C367.829 233.035 366.613 232.608 365.077 232.608Z" fill="#242424"/>
<path d="M9.63 293.2H29.982C34.078 293.2 37.3847 294.203 39.902 296.208C42.4193 298.213 43.678 300.88 43.678 304.208C43.678 306.512 43.0593 308.645 41.822 310.608C40.5847 312.571 38.942 314.171 36.894 315.408C38.3447 316.347 39.4967 317.52 40.35 318.928C41.2033 320.336 41.63 321.893 41.63 323.6C41.63 325.648 41.182 327.547 40.286 329.296C39.39 331.045 38.174 332.581 36.638 333.904C35.102 335.184 33.2673 336.187 31.134 336.912C29.0433 337.637 26.782 338 24.35 338H0.0939988L9.63 293.2ZM28.126 302.224H18.462L16.606 311.056H26.846C28.51 311.056 29.8967 310.587 31.006 309.648C32.1153 308.667 32.67 307.451 32.67 306C32.67 304.805 32.2647 303.888 31.454 303.248C30.6433 302.565 29.534 302.224 28.126 302.224ZM24.606 328.976C26.398 328.976 27.87 328.464 29.022 327.44C30.2167 326.416 30.814 325.115 30.814 323.536C30.814 322.299 30.366 321.317 29.47 320.592C28.6167 319.867 27.422 319.504 25.886 319.504H14.814L12.766 328.976H24.606ZM40.504 338L50.04 293.2H84.664L82.616 302.736H58.744L57.016 310.8H72.76L70.84 320.016H55.096L53.304 328.464H77.432L75.384 338H40.504ZM77.576 329.744L84.616 322.192C87.048 324.709 89.4587 326.565 91.848 327.76C94.28 328.912 96.8613 329.488 99.592 329.488C101.811 329.488 103.56 329.083 104.84 328.272C106.12 327.461 106.76 326.331 106.76 324.88C106.76 323.899 106.333 323.088 105.48 322.448C104.669 321.808 103.283 321.232 101.32 320.72L91.976 318.288C88.904 317.477 86.536 316.091 84.872 314.128C83.2507 312.165 82.44 309.776 82.44 306.96C82.44 302.523 84.0187 299.024 87.176 296.464C90.376 293.861 94.6853 292.56 100.104 292.56C103.816 292.56 107.421 293.243 110.92 294.608C114.461 295.973 117.448 297.872 119.88 300.304L113.096 307.984C110.92 305.851 108.68 304.272 106.376 303.248C104.115 302.224 101.704 301.712 99.144 301.712C97.1813 301.712 95.624 302.075 94.472 302.8C93.32 303.525 92.744 304.485 92.744 305.68C92.744 306.619 93.1067 307.387 93.832 307.984C94.6 308.581 95.8373 309.093 97.544 309.52L106.312 311.632C109.939 312.485 112.712 313.915 114.632 315.92C116.552 317.925 117.512 320.4 117.512 323.344C117.512 325.648 117.064 327.76 116.168 329.68C115.272 331.557 114.013 333.157 112.392 334.48C110.771 335.803 108.787 336.827 106.44 337.552C104.093 338.277 101.512 338.64 98.696 338.64C94.5147 338.64 90.6107 337.872 86.984 336.336C83.3573 334.8 80.2213 332.603 77.576 329.744ZM117.565 302.928L119.677 293.2H159.165L157.053 302.928H142.781L135.293 338H124.477L131.965 302.928H117.565ZM151.458 329.744L158.498 322.192C160.93 324.709 163.341 326.565 165.73 327.76C168.162 328.912 170.744 329.488 173.474 329.488C175.693 329.488 177.442 329.083 178.722 328.272C180.002 327.461 180.642 326.331 180.642 324.88C180.642 323.899 180.216 323.088 179.362 322.448C178.552 321.808 177.165 321.232 175.202 320.72L165.858 318.288C162.786 317.477 160.418 316.091 158.754 314.128C157.133 312.165 156.322 309.776 156.322 306.96C156.322 302.523 157.901 299.024 161.058 296.464C164.258 293.861 168.568 292.56 173.986 292.56C177.698 292.56 181.304 293.243 184.802 294.608C188.344 295.973 191.33 297.872 193.763 300.304L186.979 307.984C184.803 305.851 182.562 304.272 180.258 303.248C177.997 302.224 175.586 301.712 173.026 301.712C171.064 301.712 169.506 302.075 168.354 302.8C167.202 303.525 166.626 304.485 166.626 305.68C166.626 306.619 166.989 307.387 167.714 307.984C168.482 308.581 169.72 309.093 171.426 309.52L180.194 311.632C183.821 312.485 186.594 313.915 188.514 315.92C190.435 317.925 191.395 320.4 191.395 323.344C191.395 325.648 190.947 327.76 190.05 329.68C189.155 331.557 187.896 333.157 186.274 334.48C184.653 335.803 182.669 336.827 180.323 337.552C177.976 338.277 175.394 338.64 172.578 338.64C168.397 338.64 164.493 337.872 160.866 336.336C157.24 334.8 154.104 332.603 151.458 329.744ZM189.082 338L198.618 293.2H233.242L231.194 302.736H207.322L205.594 310.8H221.338L219.418 320.016H203.674L201.882 328.464H226.01L223.962 338H189.082ZM226.617 338L236.153 293.2H246.905L239.417 328.272H262.585L260.537 338H226.617ZM262.839 338L272.375 293.2H283.127L275.639 328.272H298.807L296.759 338H262.839ZM299.061 338L308.597 293.2H343.222L341.174 302.736H317.301L315.573 310.8H331.317L329.397 320.016H313.653L311.861 328.464H335.989L333.941 338H299.061ZM336.597 338L346.133 293.2H366.997C371.178 293.2 374.57 294.416 377.173 296.848C379.818 299.237 381.141 302.352 381.141 306.192C381.141 309.563 380.053 312.571 377.877 315.216C375.743 317.861 373.013 319.696 369.685 320.72L376.533 338H365.141L359.317 321.552H350.869L347.349 338H336.597ZM365.077 302.608H354.901L352.789 312.592H363.989C365.738 312.592 367.189 312.08 368.341 311.056C369.535 310.032 370.133 308.752 370.133 307.216C370.133 305.808 369.663 304.699 368.725 303.888C367.829 303.035 366.613 302.608 365.077 302.608Z" fill="#242424"/>
<path d="M9.63 363.2H29.982C34.078 363.2 37.3847 364.203 39.902 366.208C42.4193 368.213 43.678 370.88 43.678 374.208C43.678 376.512 43.0593 378.645 41.822 380.608C40.5847 382.571 38.942 384.171 36.894 385.408C38.3447 386.347 39.4967 387.52 40.35 388.928C41.2033 390.336 41.63 391.893 41.63 393.6C41.63 395.648 41.182 397.547 40.286 399.296C39.39 401.045 38.174 402.581 36.638 403.904C35.102 405.184 33.2673 406.187 31.134 406.912C29.0433 407.637 26.782 408 24.35 408H0.0939988L9.63 363.2ZM28.126 372.224H18.462L16.606 381.056H26.846C28.51 381.056 29.8967 380.587 31.006 379.648C32.1153 378.667 32.67 377.451 32.67 376C32.67 374.805 32.2647 373.888 31.454 373.248C30.6433 372.565 29.534 372.224 28.126 372.224ZM24.606 398.976C26.398 398.976 27.87 398.464 29.022 397.44C30.2167 396.416 30.814 395.115 30.814 393.536C30.814 392.299 30.366 391.317 29.47 390.592C28.6167 389.867 27.422 389.504 25.886 389.504H14.814L12.766 398.976H24.606ZM40.504 408L50.04 363.2H84.664L82.616 372.736H58.744L57.016 380.8H72.76L70.84 390.016H55.096L53.304 398.464H77.432L75.384 408H40.504ZM77.576 399.744L84.616 392.192C87.048 394.709 89.4587 396.565 91.848 397.76C94.28 398.912 96.8613 399.488 99.592 399.488C101.811 399.488 103.56 399.083 104.84 398.272C106.12 397.461 106.76 396.331 106.76 394.88C106.76 393.899 106.333 393.088 105.48 392.448C104.669 391.808 103.283 391.232 101.32 390.72L91.976 388.288C88.904 387.477 86.536 386.091 84.872 384.128C83.2507 382.165 82.44 379.776 82.44 376.96C82.44 372.523 84.0187 369.024 87.176 366.464C90.376 363.861 94.6853 362.56 100.104 362.56C103.816 362.56 107.421 363.243 110.92 364.608C114.461 365.973 117.448 367.872 119.88 370.304L113.096 377.984C110.92 375.851 108.68 374.272 106.376 373.248C104.115 372.224 101.704 371.712 99.144 371.712C97.1813 371.712 95.624 372.075 94.472 372.8C93.32 373.525 92.744 374.485 92.744 375.68C92.744 376.619 93.1067 377.387 93.832 377.984C94.6 378.581 95.8373 379.093 97.544 379.52L106.312 381.632C109.939 382.485 112.712 383.915 114.632 385.92C116.552 387.925 117.512 390.4 117.512 393.344C117.512 395.648 117.064 397.76 116.168 399.68C115.272 401.557 114.013 403.157 112.392 404.48C110.771 405.803 108.787 406.827 106.44 407.552C104.093 408.277 101.512 408.64 98.696 408.64C94.5147 408.64 90.6107 407.872 86.984 406.336C83.3573 404.8 80.2213 402.603 77.576 399.744ZM117.565 372.928L119.677 363.2H159.165L157.053 372.928H142.781L135.293 408H124.477L131.965 372.928H117.565ZM151.458 399.744L158.498 392.192C160.93 394.709 163.341 396.565 165.73 397.76C168.162 398.912 170.744 399.488 173.474 399.488C175.693 399.488 177.442 399.083 178.722 398.272C180.002 397.461 180.642 396.331 180.642 394.88C180.642 393.899 180.216 393.088 179.362 392.448C178.552 391.808 177.165 391.232 175.202 390.72L165.858 388.288C162.786 387.477 160.418 386.091 158.754 384.128C157.133 382.165 156.322 379.776 156.322 376.96C156.322 372.523 157.901 369.024 161.058 366.464C164.258 363.861 168.568 362.56 173.986 362.56C177.698 362.56 181.304 363.243 184.802 364.608C188.344 365.973 191.33 367.872 193.763 370.304L186.979 377.984C184.803 375.851 182.562 374.272 180.258 373.248C177.997 372.224 175.586 371.712 173.026 371.712C171.064 371.712 169.506 372.075 168.354 372.8C167.202 373.525 166.626 374.485 166.626 375.68C166.626 376.619 166.989 377.387 167.714 377.984C168.482 378.581 169.72 379.093 171.426 379.52L180.194 381.632C183.821 382.485 186.594 383.915 188.514 385.92C190.435 387.925 191.395 390.4 191.395 393.344C191.395 395.648 190.947 397.76 190.05 399.68C189.155 401.557 187.896 403.157 186.274 404.48C184.653 405.803 182.669 406.827 180.323 407.552C177.976 408.277 175.394 408.64 172.578 408.64C168.397 408.64 164.493 407.872 160.866 406.336C157.24 404.8 154.104 402.603 151.458 399.744ZM189.082 408L198.618 363.2H233.242L231.194 372.736H207.322L205.594 380.8H221.338L219.418 390.016H203.674L201.882 398.464H226.01L223.962 408H189.082ZM226.617 408L236.153 363.2H246.905L239.417 398.272H262.585L260.537 408H226.617ZM262.839 408L272.375 363.2H283.127L275.639 398.272H298.807L296.759 408H262.839ZM299.061 408L308.597 363.2H343.222L341.174 372.736H317.301L315.573 380.8H331.317L329.397 390.016H313.653L311.861 398.464H335.989L333.941 408H299.061ZM336.597 408L346.133 363.2H366.997C371.178 363.2 374.57 364.416 377.173 366.848C379.818 369.237 381.141 372.352 381.141 376.192C381.141 379.563 380.053 382.571 377.877 385.216C375.743 387.861 373.013 389.696 369.685 390.72L376.533 408H365.141L359.317 391.552H350.869L347.349 408H336.597ZM365.077 372.608H354.901L352.789 382.592H363.989C365.738 382.592 367.189 382.08 368.341 381.056C369.535 380.032 370.133 378.752 370.133 377.216C370.133 375.808 369.663 374.699 368.725 373.888C367.829 373.035 366.613 372.608 365.077 372.608Z" fill="#242424"/>
<path d="M9.63 433.2H29.982C34.078 433.2 37.3847 434.203 39.902 436.208C42.4193 438.213 43.678 440.88 43.678 444.208C43.678 446.512 43.0593 448.645 41.822 450.608C40.5847 452.571 38.942 454.171 36.894 455.408C38.3447 456.347 39.4967 457.52 40.35 458.928C41.2033 460.336 41.63 461.893 41.63 463.6C41.63 465.648 41.182 467.547 40.286 469.296C39.39 471.045 38.174 472.581 36.638 473.904C35.102 475.184 33.2673 476.187 31.134 476.912C29.0433 477.637 26.782 478 24.35 478H0.0939988L9.63 433.2ZM28.126 442.224H18.462L16.606 451.056H26.846C28.51 451.056 29.8967 450.587 31.006 449.648C32.1153 448.667 32.67 447.451 32.67 446C32.67 444.805 32.2647 443.888 31.454 443.248C30.6433 442.565 29.534 442.224 28.126 442.224ZM24.606 468.976C26.398 468.976 27.87 468.464 29.022 467.44C30.2167 466.416 30.814 465.115 30.814 463.536C30.814 462.299 30.366 461.317 29.47 460.592C28.6167 459.867 27.422 459.504 25.886 459.504H14.814L12.766 468.976H24.606ZM40.504 478L50.04 433.2H84.664L82.616 442.736H58.744L57.016 450.8H72.76L70.84 460.016H55.096L53.304 468.464H77.432L75.384 478H40.504ZM77.576 469.744L84.616 462.192C87.048 464.709 89.4587 466.565 91.848 467.76C94.28 468.912 96.8613 469.488 99.592 469.488C101.811 469.488 103.56 469.083 104.84 468.272C106.12 467.461 106.76 466.331 106.76 464.88C106.76 463.899 106.333 463.088 105.48 462.448C104.669 461.808 103.283 461.232 101.32 460.72L91.976 458.288C88.904 457.477 86.536 456.091 84.872 454.128C83.2507 452.165 82.44 449.776 82.44 446.96C82.44 442.523 84.0187 439.024 87.176 436.464C90.376 433.861 94.6853 432.56 100.104 432.56C103.816 432.56 107.421 433.243 110.92 434.608C114.461 435.973 117.448 437.872 119.88 440.304L113.096 447.984C110.92 445.851 108.68 444.272 106.376 443.248C104.115 442.224 101.704 441.712 99.144 441.712C97.1813 441.712 95.624 442.075 94.472 442.8C93.32 443.525 92.744 444.485 92.744 445.68C92.744 446.619 93.1067 447.387 93.832 447.984C94.6 448.581 95.8373 449.093 97.544 449.52L106.312 451.632C109.939 452.485 112.712 453.915 114.632 455.92C116.552 457.925 117.512 460.4 117.512 463.344C117.512 465.648 117.064 467.76 116.168 469.68C115.272 471.557 114.013 473.157 112.392 474.48C110.771 475.803 108.787 476.827 106.44 477.552C104.093 478.277 101.512 478.64 98.696 478.64C94.5147 478.64 90.6107 477.872 86.984 476.336C83.3573 474.8 80.2213 472.603 77.576 469.744ZM117.565 442.928L119.677 433.2H159.165L157.053 442.928H142.781L135.293 478H124.477L131.965 442.928H117.565ZM151.458 469.744L158.498 462.192C160.93 464.709 163.341 466.565 165.73 467.76C168.162 468.912 170.744 469.488 173.474 469.488C175.693 469.488 177.442 469.083 178.722 468.272C180.002 467.461 180.642 466.331 180.642 464.88C180.642 463.899 180.216 463.088 179.362 462.448C178.552 461.808 177.165 461.232 175.202 460.72L165.858 458.288C162.786 457.477 160.418 456.091 158.754 454.128C157.133 452.165 156.322 449.776 156.322 446.96C156.322 442.523 157.901 439.024 161.058 436.464C164.258 433.861 168.568 432.56 173.986 432.56C177.698 432.56 181.304 433.243 184.802 434.608C188.344 435.973 191.33 437.872 193.763 440.304L186.979 447.984C184.803 445.851 182.562 444.272 180.258 443.248C177.997 442.224 175.586 441.712 173.026 441.712C171.064 441.712 169.506 442.075 168.354 442.8C167.202 443.525 166.626 444.485 166.626 445.68C166.626 446.619 166.989 447.387 167.714 447.984C168.482 448.581 169.72 449.093 171.426 449.52L180.194 451.632C183.821 452.485 186.594 453.915 188.514 455.92C190.435 457.925 191.395 460.4 191.395 463.344C191.395 465.648 190.947 467.76 190.05 469.68C189.155 471.557 187.896 473.157 186.274 474.48C184.653 475.803 182.669 476.827 180.323 477.552C177.976 478.277 175.394 478.64 172.578 478.64C168.397 478.64 164.493 477.872 160.866 476.336C157.24 474.8 154.104 472.603 151.458 469.744ZM189.082 478L198.618 433.2H233.242L231.194 442.736H207.322L205.594 450.8H221.338L219.418 460.016H203.674L201.882 468.464H226.01L223.962 478H189.082ZM226.617 478L236.153 433.2H246.905L239.417 468.272H262.585L260.537 478H226.617ZM262.839 478L272.375 433.2H283.127L275.639 468.272H298.807L296.759 478H262.839ZM299.061 478L308.597 433.2H343.222L341.174 442.736H317.301L315.573 450.8H331.317L329.397 460.016H313.653L311.861 468.464H335.989L333.941 478H299.061ZM336.597 478L346.133 433.2H366.997C371.178 433.2 374.57 434.416 377.173 436.848C379.818 439.237 381.141 442.352 381.141 446.192C381.141 449.563 380.053 452.571 377.877 455.216C375.743 457.861 373.013 459.696 369.685 460.72L376.533 478H365.141L359.317 461.552H350.869L347.349 478H336.597ZM365.077 442.608H354.901L352.789 452.592H363.989C365.738 452.592 367.189 452.08 368.341 451.056C369.535 450.032 370.133 448.752 370.133 447.216C370.133 445.808 369.663 444.699 368.725 443.888C367.829 443.035 366.613 442.608 365.077 442.608Z" fill="#242424"/>
<path d="M9.63 503.2H29.982C34.078 503.2 37.3847 504.203 39.902 506.208C42.4193 508.213 43.678 510.88 43.678 514.208C43.678 516.512 43.0593 518.645 41.822 520.608C40.5847 522.571 38.942 524.171 36.894 525.408C38.3447 526.347 39.4967 527.52 40.35 528.928C41.2033 530.336 41.63 531.893 41.63 533.6C41.63 535.648 41.182 537.547 40.286 539.296C39.39 541.045 38.174 542.581 36.638 543.904C35.102 545.184 33.2673 546.187 31.134 546.912C29.0433 547.637 26.782 548 24.35 548H0.0939988L9.63 503.2ZM28.126 512.224H18.462L16.606 521.056H26.846C28.51 521.056 29.8967 520.587 31.006 519.648C32.1153 518.667 32.67 517.451 32.67 516C32.67 514.805 32.2647 513.888 31.454 513.248C30.6433 512.565 29.534 512.224 28.126 512.224ZM24.606 538.976C26.398 538.976 27.87 538.464 29.022 537.44C30.2167 536.416 30.814 535.115 30.814 533.536C30.814 532.299 30.366 531.317 29.47 530.592C28.6167 529.867 27.422 529.504 25.886 529.504H14.814L12.766 538.976H24.606ZM40.504 548L50.04 503.2H84.664L82.616 512.736H58.744L57.016 520.8H72.76L70.84 530.016H55.096L53.304 538.464H77.432L75.384 548H40.504ZM77.576 539.744L84.616 532.192C87.048 534.709 89.4587 536.565 91.848 537.76C94.28 538.912 96.8613 539.488 99.592 539.488C101.811 539.488 103.56 539.083 104.84 538.272C106.12 537.461 106.76 536.331 106.76 534.88C106.76 533.899 106.333 533.088 105.48 532.448C104.669 531.808 103.283 531.232 101.32 530.72L91.976 528.288C88.904 527.477 86.536 526.091 84.872 524.128C83.2507 522.165 82.44 519.776 82.44 516.96C82.44 512.523 84.0187 509.024 87.176 506.464C90.376 503.861 94.6853 502.56 100.104 502.56C103.816 502.56 107.421 503.243 110.92 504.608C114.461 505.973 117.448 507.872 119.88 510.304L113.096 517.984C110.92 515.851 108.68 514.272 106.376 513.248C104.115 512.224 101.704 511.712 99.144 511.712C97.1813 511.712 95.624 512.075 94.472 512.8C93.32 513.525 92.744 514.485 92.744 515.68C92.744 516.619 93.1067 517.387 93.832 517.984C94.6 518.581 95.8373 519.093 97.544 519.52L106.312 521.632C109.939 522.485 112.712 523.915 114.632 525.92C116.552 527.925 117.512 530.4 117.512 533.344C117.512 535.648 117.064 537.76 116.168 539.68C115.272 541.557 114.013 543.157 112.392 544.48C110.771 545.803 108.787 546.827 106.44 547.552C104.093 548.277 101.512 548.64 98.696 548.64C94.5147 548.64 90.6107 547.872 86.984 546.336C83.3573 544.8 80.2213 542.603 77.576 539.744ZM117.565 512.928L119.677 503.2H159.165L157.053 512.928H142.781L135.293 548H124.477L131.965 512.928H117.565ZM151.458 539.744L158.498 532.192C160.93 534.709 163.341 536.565 165.73 537.76C168.162 538.912 170.744 539.488 173.474 539.488C175.693 539.488 177.442 539.083 178.722 538.272C180.002 537.461 180.642 536.331 180.642 534.88C180.642 533.899 180.216 533.088 179.362 532.448C178.552 531.808 177.165 531.232 175.202 530.72L165.858 528.288C162.786 527.477 160.418 526.091 158.754 524.128C157.133 522.165 156.322 519.776 156.322 516.96C156.322 512.523 157.901 509.024 161.058 506.464C164.258 503.861 168.568 502.56 173.986 502.56C177.698 502.56 181.304 503.243 184.802 504.608C188.344 505.973 191.33 507.872 193.763 510.304L186.979 517.984C184.803 515.851 182.562 514.272 180.258 513.248C177.997 512.224 175.586 511.712 173.026 511.712C171.064 511.712 169.506 512.075 168.354 512.8C167.202 513.525 166.626 514.485 166.626 515.68C166.626 516.619 166.989 517.387 167.714 517.984C168.482 518.581 169.72 519.093 171.426 519.52L180.194 521.632C183.821 522.485 186.594 523.915 188.514 525.92C190.435 527.925 191.395 530.4 191.395 533.344C191.395 535.648 190.947 537.76 190.05 539.68C189.155 541.557 187.896 543.157 186.274 544.48C184.653 545.803 182.669 546.827 180.323 547.552C177.976 548.277 175.394 548.64 172.578 548.64C168.397 548.64 164.493 547.872 160.866 546.336C157.24 544.8 154.104 542.603 151.458 539.744ZM189.082 548L198.618 503.2H233.242L231.194 512.736H207.322L205.594 520.8H221.338L219.418 530.016H203.674L201.882 538.464H226.01L223.962 548H189.082ZM226.617 548L236.153 503.2H246.905L239.417 538.272H262.585L260.537 548H226.617ZM262.839 548L272.375 503.2H283.127L275.639 538.272H298.807L296.759 548H262.839ZM299.061 548L308.597 503.2H343.222L341.174 512.736H317.301L315.573 520.8H331.317L329.397 530.016H313.653L311.861 538.464H335.989L333.941 548H299.061ZM336.597 548L346.133 503.2H366.997C371.178 503.2 374.57 504.416 377.173 506.848C379.818 509.237 381.141 512.352 381.141 516.192C381.141 519.563 380.053 522.571 377.877 525.216C375.743 527.861 373.013 529.696 369.685 530.72L376.533 548H365.141L359.317 531.552H350.869L347.349 548H336.597ZM365.077 512.608H354.901L352.789 522.592H363.989C365.738 522.592 367.189 522.08 368.341 521.056C369.535 520.032 370.133 518.752 370.133 517.216C370.133 515.808 369.663 514.699 368.725 513.888C367.829 513.035 366.613 512.608 365.077 512.608Z" fill="#242424"/>
</g>
</svg>
