<svg width="199" height="560" viewBox="0 0 199 560" fill="none" xmlns="http://www.w3.org/2000/svg">
<g opacity="0.08">
<path d="M0.976 49.744L8.016 42.192C10.448 44.7093 12.8587 46.5653 15.248 47.76C17.68 48.912 20.2613 49.488 22.992 49.488C25.2107 49.488 26.96 49.0827 28.24 48.272C29.52 47.4613 30.16 46.3307 30.16 44.88C30.16 43.8987 29.7333 43.088 28.88 42.448C28.0693 41.808 26.6827 41.232 24.72 40.72L15.376 38.288C12.304 37.4773 9.936 36.0907 8.272 34.128C6.65067 32.1653 5.84 29.776 5.84 26.96C5.84 22.5227 7.41867 19.024 10.576 16.464C13.776 13.8613 18.0853 12.56 23.504 12.56C27.216 12.56 30.8213 13.2427 34.32 14.608C37.8613 15.9733 40.848 17.872 43.28 20.304L36.496 27.984C34.32 25.8507 32.08 24.272 29.776 23.248C27.5147 22.224 25.104 21.712 22.544 21.712C20.5813 21.712 19.024 22.0747 17.872 22.8C16.72 23.5253 16.144 24.4853 16.144 25.68C16.144 26.6187 16.5067 27.3867 17.232 27.984C18 28.5813 19.2373 29.0933 20.944 29.52L29.712 31.632C33.3387 32.4853 36.112 33.9147 38.032 35.92C39.952 37.9253 40.912 40.4 40.912 43.344C40.912 45.648 40.464 47.76 39.568 49.68C38.672 51.5573 37.4133 53.1573 35.792 54.48C34.1707 55.8027 32.1867 56.8267 29.84 57.552C27.4933 58.2773 24.912 58.64 22.096 58.64C17.9147 58.64 14.0107 57.872 10.384 56.336C6.75733 54.8 3.62133 52.6027 0.976 49.744ZM35.753 58L63.081 13.2H75.433L83.881 58H72.745L70.953 47.184H53.801L47.529 58H35.753ZM58.857 38.416H69.545L67.177 24.08L58.857 38.416ZM83.259 58L92.795 13.2H103.547L96.059 48.272H119.227L117.179 58H83.259ZM119.482 58L129.018 13.2H163.642L161.594 22.736H137.722L135.994 30.8H151.738L149.818 40.016H134.074L132.282 48.464H156.41L154.362 58H119.482ZM156.553 49.744L163.593 42.192C166.025 44.7093 168.436 46.5653 170.826 47.76C173.257 48.912 175.839 49.488 178.569 49.488C180.788 49.488 182.538 49.0827 183.818 48.272C185.098 47.4613 185.738 46.3307 185.738 44.88C185.738 43.8987 185.311 43.088 184.458 42.448C183.647 41.808 182.26 41.232 180.298 40.72L170.953 38.288C167.881 37.4773 165.513 36.0907 163.849 34.128C162.228 32.1653 161.417 29.776 161.417 26.96C161.417 22.5227 162.996 19.024 166.153 16.464C169.353 13.8613 173.663 12.56 179.082 12.56C182.794 12.56 186.399 13.2427 189.897 14.608C193.439 15.9733 196.426 17.872 198.858 20.304L192.074 27.984C189.898 25.8507 187.658 24.272 185.354 23.248C183.092 22.224 180.682 21.712 178.122 21.712C176.159 21.712 174.601 22.0747 173.45 22.8C172.298 23.5253 171.722 24.4853 171.722 25.68C171.722 26.6187 172.084 27.3867 172.809 27.984C173.578 28.5813 174.815 29.0933 176.521 29.52L185.29 31.632C188.916 32.4853 191.69 33.9147 193.61 35.92C195.53 37.9253 196.49 40.4 196.49 43.344C196.49 45.648 196.042 47.76 195.146 49.68C194.25 51.5573 192.991 53.1573 191.369 54.48C189.748 55.8027 187.764 56.8267 185.418 57.552C183.071 58.2773 180.49 58.64 177.674 58.64C173.492 58.64 169.588 57.872 165.962 56.336C162.335 54.8 159.199 52.6027 156.553 49.744Z" fill="#242424"/>
<path d="M0.99975 119.744L8.03975 112.192C10.4718 114.709 12.8824 116.565 15.2718 117.76C17.7038 118.912 20.2851 119.488 23.0158 119.488C25.2344 119.488 26.9838 119.083 28.2638 118.272C29.5438 117.461 30.1838 116.331 30.1838 114.88C30.1838 113.899 29.7571 113.088 28.9038 112.448C28.0931 111.808 26.7064 111.232 24.7438 110.72L15.3998 108.288C12.3278 107.477 9.95975 106.091 8.29575 104.128C6.67442 102.165 5.86375 99.776 5.86375 96.96C5.86375 92.5227 7.44242 89.024 10.5998 86.464C13.7998 83.8613 18.1091 82.56 23.5278 82.56C27.2398 82.56 30.8451 83.2427 34.3438 84.608C37.8851 85.9733 40.8718 87.872 43.3038 90.304L36.5198 97.984C34.3438 95.8507 32.1038 94.272 29.7998 93.248C27.5384 92.224 25.1278 91.712 22.5678 91.712C20.6051 91.712 19.0478 92.0747 17.8958 92.8C16.7438 93.5253 16.1678 94.4853 16.1678 95.68C16.1678 96.6187 16.5304 97.3867 17.2558 97.984C18.0238 98.5813 19.2611 99.0933 20.9678 99.52L29.7358 101.632C33.3624 102.485 36.1358 103.915 38.0558 105.92C39.9758 107.925 40.9358 110.4 40.9358 113.344C40.9358 115.648 40.4878 117.76 39.5918 119.68C38.6958 121.557 37.4371 123.157 35.8158 124.48C34.1944 125.803 32.2104 126.827 29.8638 127.552C27.5171 128.277 24.9358 128.64 22.1198 128.64C17.9384 128.64 14.0344 127.872 10.4078 126.336C6.78108 124.8 3.64508 122.603 0.99975 119.744ZM35.7768 128L63.1048 83.2H75.4568L83.9048 128H72.7688L70.9768 117.184H53.8248L47.5528 128H35.7768ZM58.8808 108.416H69.5688L67.2008 94.08L58.8808 108.416ZM83.2828 128L92.8188 83.2H103.571L96.0828 118.272H119.251L117.203 128H83.2828ZM119.505 128L129.041 83.2H163.665L161.617 92.736H137.745L136.017 100.8H151.761L149.841 110.016H134.097L132.305 118.464H156.433L154.385 128H119.505ZM156.577 119.744L163.617 112.192C166.049 114.709 168.46 116.565 170.849 117.76C173.281 118.912 175.863 119.488 178.593 119.488C180.812 119.488 182.561 119.083 183.841 118.272C185.121 117.461 185.761 116.331 185.761 114.88C185.761 113.899 185.335 113.088 184.481 112.448C183.671 111.808 182.284 111.232 180.321 110.72L170.977 108.288C167.905 107.477 165.537 106.091 163.873 104.128C162.252 102.165 161.441 99.776 161.441 96.96C161.441 92.5227 163.02 89.024 166.177 86.464C169.377 83.8613 173.687 82.56 179.105 82.56C182.817 82.56 186.423 83.2427 189.921 84.608C193.463 85.9733 196.449 87.872 198.881 90.304L192.097 97.984C189.921 95.8507 187.681 94.272 185.377 93.248C183.116 92.224 180.705 91.712 178.145 91.712C176.183 91.712 174.625 92.0747 173.473 92.8C172.321 93.5253 171.745 94.4853 171.745 95.68C171.745 96.6187 172.108 97.3867 172.833 97.984C173.601 98.5813 174.839 99.0933 176.545 99.52L185.313 101.632C188.94 102.485 191.713 103.915 193.633 105.92C195.553 107.925 196.513 110.4 196.513 113.344C196.513 115.648 196.065 117.76 195.169 119.68C194.273 121.557 193.015 123.157 191.393 124.48C189.772 125.803 187.788 126.827 185.441 127.552C183.095 128.277 180.513 128.64 177.697 128.64C173.516 128.64 169.612 127.872 165.985 126.336C162.359 124.8 159.223 122.603 156.577 119.744Z" fill="#242424"/>
<path d="M0.99975 189.744L8.03975 182.192C10.4718 184.709 12.8824 186.565 15.2718 187.76C17.7038 188.912 20.2851 189.488 23.0158 189.488C25.2344 189.488 26.9838 189.083 28.2638 188.272C29.5438 187.461 30.1838 186.331 30.1838 184.88C30.1838 183.899 29.7571 183.088 28.9038 182.448C28.0931 181.808 26.7064 181.232 24.7438 180.72L15.3998 178.288C12.3278 177.477 9.95975 176.091 8.29575 174.128C6.67442 172.165 5.86375 169.776 5.86375 166.96C5.86375 162.523 7.44242 159.024 10.5998 156.464C13.7998 153.861 18.1091 152.56 23.5278 152.56C27.2398 152.56 30.8451 153.243 34.3438 154.608C37.8851 155.973 40.8718 157.872 43.3038 160.304L36.5198 167.984C34.3438 165.851 32.1038 164.272 29.7998 163.248C27.5384 162.224 25.1278 161.712 22.5678 161.712C20.6051 161.712 19.0478 162.075 17.8958 162.8C16.7438 163.525 16.1678 164.485 16.1678 165.68C16.1678 166.619 16.5304 167.387 17.2558 167.984C18.0238 168.581 19.2611 169.093 20.9678 169.52L29.7358 171.632C33.3624 172.485 36.1358 173.915 38.0558 175.92C39.9758 177.925 40.9358 180.4 40.9358 183.344C40.9358 185.648 40.4878 187.76 39.5918 189.68C38.6958 191.557 37.4371 193.157 35.8158 194.48C34.1944 195.803 32.2104 196.827 29.8638 197.552C27.5171 198.277 24.9358 198.64 22.1198 198.64C17.9384 198.64 14.0344 197.872 10.4078 196.336C6.78108 194.8 3.64508 192.603 0.99975 189.744ZM35.7768 198L63.1048 153.2H75.4568L83.9048 198H72.7688L70.9768 187.184H53.8248L47.5528 198H35.7768ZM58.8808 178.416H69.5688L67.2008 164.08L58.8808 178.416ZM83.2828 198L92.8188 153.2H103.571L96.0828 188.272H119.251L117.203 198H83.2828ZM119.505 198L129.041 153.2H163.665L161.617 162.736H137.745L136.017 170.8H151.761L149.841 180.016H134.097L132.305 188.464H156.433L154.385 198H119.505ZM156.577 189.744L163.617 182.192C166.049 184.709 168.46 186.565 170.849 187.76C173.281 188.912 175.863 189.488 178.593 189.488C180.812 189.488 182.561 189.083 183.841 188.272C185.121 187.461 185.761 186.331 185.761 184.88C185.761 183.899 185.335 183.088 184.481 182.448C183.671 181.808 182.284 181.232 180.321 180.72L170.977 178.288C167.905 177.477 165.537 176.091 163.873 174.128C162.252 172.165 161.441 169.776 161.441 166.96C161.441 162.523 163.02 159.024 166.177 156.464C169.377 153.861 173.687 152.56 179.105 152.56C182.817 152.56 186.423 153.243 189.921 154.608C193.463 155.973 196.449 157.872 198.881 160.304L192.097 167.984C189.921 165.851 187.681 164.272 185.377 163.248C183.116 162.224 180.705 161.712 178.145 161.712C176.183 161.712 174.625 162.075 173.473 162.8C172.321 163.525 171.745 164.485 171.745 165.68C171.745 166.619 172.108 167.387 172.833 167.984C173.601 168.581 174.839 169.093 176.545 169.52L185.313 171.632C188.94 172.485 191.713 173.915 193.633 175.92C195.553 177.925 196.513 180.4 196.513 183.344C196.513 185.648 196.065 187.76 195.169 189.68C194.273 191.557 193.015 193.157 191.393 194.48C189.772 195.803 187.788 196.827 185.441 197.552C183.095 198.277 180.513 198.64 177.697 198.64C173.516 198.64 169.612 197.872 165.985 196.336C162.359 194.8 159.223 192.603 156.577 189.744Z" fill="#242424"/>
<path d="M0.99975 259.744L8.03975 252.192C10.4718 254.709 12.8824 256.565 15.2718 257.76C17.7038 258.912 20.2851 259.488 23.0158 259.488C25.2344 259.488 26.9838 259.083 28.2638 258.272C29.5438 257.461 30.1838 256.331 30.1838 254.88C30.1838 253.899 29.7571 253.088 28.9038 252.448C28.0931 251.808 26.7064 251.232 24.7438 250.72L15.3998 248.288C12.3278 247.477 9.95975 246.091 8.29575 244.128C6.67442 242.165 5.86375 239.776 5.86375 236.96C5.86375 232.523 7.44242 229.024 10.5998 226.464C13.7998 223.861 18.1091 222.56 23.5278 222.56C27.2398 222.56 30.8451 223.243 34.3438 224.608C37.8851 225.973 40.8718 227.872 43.3038 230.304L36.5198 237.984C34.3438 235.851 32.1038 234.272 29.7998 233.248C27.5384 232.224 25.1278 231.712 22.5678 231.712C20.6051 231.712 19.0478 232.075 17.8958 232.8C16.7438 233.525 16.1678 234.485 16.1678 235.68C16.1678 236.619 16.5304 237.387 17.2558 237.984C18.0238 238.581 19.2611 239.093 20.9678 239.52L29.7358 241.632C33.3624 242.485 36.1358 243.915 38.0558 245.92C39.9758 247.925 40.9358 250.4 40.9358 253.344C40.9358 255.648 40.4878 257.76 39.5918 259.68C38.6958 261.557 37.4371 263.157 35.8158 264.48C34.1944 265.803 32.2104 266.827 29.8638 267.552C27.5171 268.277 24.9358 268.64 22.1198 268.64C17.9384 268.64 14.0344 267.872 10.4078 266.336C6.78108 264.8 3.64508 262.603 0.99975 259.744ZM35.7768 268L63.1048 223.2H75.4568L83.9048 268H72.7688L70.9768 257.184H53.8248L47.5528 268H35.7768ZM58.8808 248.416H69.5688L67.2008 234.08L58.8808 248.416ZM83.2828 268L92.8188 223.2H103.571L96.0828 258.272H119.251L117.203 268H83.2828ZM119.505 268L129.041 223.2H163.665L161.617 232.736H137.745L136.017 240.8H151.761L149.841 250.016H134.097L132.305 258.464H156.433L154.385 268H119.505ZM156.577 259.744L163.617 252.192C166.049 254.709 168.46 256.565 170.849 257.76C173.281 258.912 175.863 259.488 178.593 259.488C180.812 259.488 182.561 259.083 183.841 258.272C185.121 257.461 185.761 256.331 185.761 254.88C185.761 253.899 185.335 253.088 184.481 252.448C183.671 251.808 182.284 251.232 180.321 250.72L170.977 248.288C167.905 247.477 165.537 246.091 163.873 244.128C162.252 242.165 161.441 239.776 161.441 236.96C161.441 232.523 163.02 229.024 166.177 226.464C169.377 223.861 173.687 222.56 179.105 222.56C182.817 222.56 186.423 223.243 189.921 224.608C193.463 225.973 196.449 227.872 198.881 230.304L192.097 237.984C189.921 235.851 187.681 234.272 185.377 233.248C183.116 232.224 180.705 231.712 178.145 231.712C176.183 231.712 174.625 232.075 173.473 232.8C172.321 233.525 171.745 234.485 171.745 235.68C171.745 236.619 172.108 237.387 172.833 237.984C173.601 238.581 174.839 239.093 176.545 239.52L185.313 241.632C188.94 242.485 191.713 243.915 193.633 245.92C195.553 247.925 196.513 250.4 196.513 253.344C196.513 255.648 196.065 257.76 195.169 259.68C194.273 261.557 193.015 263.157 191.393 264.48C189.772 265.803 187.788 266.827 185.441 267.552C183.095 268.277 180.513 268.64 177.697 268.64C173.516 268.64 169.612 267.872 165.985 266.336C162.359 264.8 159.223 262.603 156.577 259.744Z" fill="#242424"/>
<path d="M0.99975 329.744L8.03975 322.192C10.4718 324.709 12.8824 326.565 15.2718 327.76C17.7038 328.912 20.2851 329.488 23.0158 329.488C25.2344 329.488 26.9838 329.083 28.2638 328.272C29.5438 327.461 30.1838 326.331 30.1838 324.88C30.1838 323.899 29.7571 323.088 28.9038 322.448C28.0931 321.808 26.7064 321.232 24.7438 320.72L15.3998 318.288C12.3278 317.477 9.95975 316.091 8.29575 314.128C6.67442 312.165 5.86375 309.776 5.86375 306.96C5.86375 302.523 7.44242 299.024 10.5998 296.464C13.7998 293.861 18.1091 292.56 23.5278 292.56C27.2398 292.56 30.8451 293.243 34.3438 294.608C37.8851 295.973 40.8718 297.872 43.3038 300.304L36.5198 307.984C34.3438 305.851 32.1038 304.272 29.7998 303.248C27.5384 302.224 25.1278 301.712 22.5678 301.712C20.6051 301.712 19.0478 302.075 17.8958 302.8C16.7438 303.525 16.1678 304.485 16.1678 305.68C16.1678 306.619 16.5304 307.387 17.2558 307.984C18.0238 308.581 19.2611 309.093 20.9678 309.52L29.7358 311.632C33.3624 312.485 36.1358 313.915 38.0558 315.92C39.9758 317.925 40.9358 320.4 40.9358 323.344C40.9358 325.648 40.4878 327.76 39.5918 329.68C38.6958 331.557 37.4371 333.157 35.8158 334.48C34.1944 335.803 32.2104 336.827 29.8638 337.552C27.5171 338.277 24.9358 338.64 22.1198 338.64C17.9384 338.64 14.0344 337.872 10.4078 336.336C6.78108 334.8 3.64508 332.603 0.99975 329.744ZM35.7768 338L63.1048 293.2H75.4568L83.9048 338H72.7688L70.9768 327.184H53.8248L47.5528 338H35.7768ZM58.8808 318.416H69.5688L67.2008 304.08L58.8808 318.416ZM83.2828 338L92.8188 293.2H103.571L96.0828 328.272H119.251L117.203 338H83.2828ZM119.505 338L129.041 293.2H163.665L161.617 302.736H137.745L136.017 310.8H151.761L149.841 320.016H134.097L132.305 328.464H156.433L154.385 338H119.505ZM156.577 329.744L163.617 322.192C166.049 324.709 168.46 326.565 170.849 327.76C173.281 328.912 175.863 329.488 178.593 329.488C180.812 329.488 182.561 329.083 183.841 328.272C185.121 327.461 185.761 326.331 185.761 324.88C185.761 323.899 185.335 323.088 184.481 322.448C183.671 321.808 182.284 321.232 180.321 320.72L170.977 318.288C167.905 317.477 165.537 316.091 163.873 314.128C162.252 312.165 161.441 309.776 161.441 306.96C161.441 302.523 163.02 299.024 166.177 296.464C169.377 293.861 173.687 292.56 179.105 292.56C182.817 292.56 186.423 293.243 189.921 294.608C193.463 295.973 196.449 297.872 198.881 300.304L192.097 307.984C189.921 305.851 187.681 304.272 185.377 303.248C183.116 302.224 180.705 301.712 178.145 301.712C176.183 301.712 174.625 302.075 173.473 302.8C172.321 303.525 171.745 304.485 171.745 305.68C171.745 306.619 172.108 307.387 172.833 307.984C173.601 308.581 174.839 309.093 176.545 309.52L185.313 311.632C188.94 312.485 191.713 313.915 193.633 315.92C195.553 317.925 196.513 320.4 196.513 323.344C196.513 325.648 196.065 327.76 195.169 329.68C194.273 331.557 193.015 333.157 191.393 334.48C189.772 335.803 187.788 336.827 185.441 337.552C183.095 338.277 180.513 338.64 177.697 338.64C173.516 338.64 169.612 337.872 165.985 336.336C162.359 334.8 159.223 332.603 156.577 329.744Z" fill="#242424"/>
<path d="M0.99975 399.744L8.03975 392.192C10.4718 394.709 12.8824 396.565 15.2718 397.76C17.7038 398.912 20.2851 399.488 23.0158 399.488C25.2344 399.488 26.9838 399.083 28.2638 398.272C29.5438 397.461 30.1838 396.331 30.1838 394.88C30.1838 393.899 29.7571 393.088 28.9038 392.448C28.0931 391.808 26.7064 391.232 24.7438 390.72L15.3998 388.288C12.3278 387.477 9.95975 386.091 8.29575 384.128C6.67442 382.165 5.86375 379.776 5.86375 376.96C5.86375 372.523 7.44242 369.024 10.5998 366.464C13.7998 363.861 18.1091 362.56 23.5278 362.56C27.2398 362.56 30.8451 363.243 34.3438 364.608C37.8851 365.973 40.8718 367.872 43.3038 370.304L36.5198 377.984C34.3438 375.851 32.1038 374.272 29.7998 373.248C27.5384 372.224 25.1278 371.712 22.5678 371.712C20.6051 371.712 19.0478 372.075 17.8958 372.8C16.7438 373.525 16.1678 374.485 16.1678 375.68C16.1678 376.619 16.5304 377.387 17.2558 377.984C18.0238 378.581 19.2611 379.093 20.9678 379.52L29.7358 381.632C33.3624 382.485 36.1358 383.915 38.0558 385.92C39.9758 387.925 40.9358 390.4 40.9358 393.344C40.9358 395.648 40.4878 397.76 39.5918 399.68C38.6958 401.557 37.4371 403.157 35.8158 404.48C34.1944 405.803 32.2104 406.827 29.8638 407.552C27.5171 408.277 24.9358 408.64 22.1198 408.64C17.9384 408.64 14.0344 407.872 10.4078 406.336C6.78108 404.8 3.64508 402.603 0.99975 399.744ZM35.7768 408L63.1048 363.2H75.4568L83.9048 408H72.7688L70.9768 397.184H53.8248L47.5528 408H35.7768ZM58.8808 388.416H69.5688L67.2008 374.08L58.8808 388.416ZM83.2828 408L92.8188 363.2H103.571L96.0828 398.272H119.251L117.203 408H83.2828ZM119.505 408L129.041 363.2H163.665L161.617 372.736H137.745L136.017 380.8H151.761L149.841 390.016H134.097L132.305 398.464H156.433L154.385 408H119.505ZM156.577 399.744L163.617 392.192C166.049 394.709 168.46 396.565 170.849 397.76C173.281 398.912 175.863 399.488 178.593 399.488C180.812 399.488 182.561 399.083 183.841 398.272C185.121 397.461 185.761 396.331 185.761 394.88C185.761 393.899 185.335 393.088 184.481 392.448C183.671 391.808 182.284 391.232 180.321 390.72L170.977 388.288C167.905 387.477 165.537 386.091 163.873 384.128C162.252 382.165 161.441 379.776 161.441 376.96C161.441 372.523 163.02 369.024 166.177 366.464C169.377 363.861 173.687 362.56 179.105 362.56C182.817 362.56 186.423 363.243 189.921 364.608C193.463 365.973 196.449 367.872 198.881 370.304L192.097 377.984C189.921 375.851 187.681 374.272 185.377 373.248C183.116 372.224 180.705 371.712 178.145 371.712C176.183 371.712 174.625 372.075 173.473 372.8C172.321 373.525 171.745 374.485 171.745 375.68C171.745 376.619 172.108 377.387 172.833 377.984C173.601 378.581 174.839 379.093 176.545 379.52L185.313 381.632C188.94 382.485 191.713 383.915 193.633 385.92C195.553 387.925 196.513 390.4 196.513 393.344C196.513 395.648 196.065 397.76 195.169 399.68C194.273 401.557 193.015 403.157 191.393 404.48C189.772 405.803 187.788 406.827 185.441 407.552C183.095 408.277 180.513 408.64 177.697 408.64C173.516 408.64 169.612 407.872 165.985 406.336C162.359 404.8 159.223 402.603 156.577 399.744Z" fill="#242424"/>
<path d="M0.99975 469.744L8.03975 462.192C10.4718 464.709 12.8824 466.565 15.2718 467.76C17.7038 468.912 20.2851 469.488 23.0158 469.488C25.2344 469.488 26.9838 469.083 28.2638 468.272C29.5438 467.461 30.1838 466.331 30.1838 464.88C30.1838 463.899 29.7571 463.088 28.9038 462.448C28.0931 461.808 26.7064 461.232 24.7438 460.72L15.3998 458.288C12.3278 457.477 9.95975 456.091 8.29575 454.128C6.67442 452.165 5.86375 449.776 5.86375 446.96C5.86375 442.523 7.44242 439.024 10.5998 436.464C13.7998 433.861 18.1091 432.56 23.5278 432.56C27.2398 432.56 30.8451 433.243 34.3438 434.608C37.8851 435.973 40.8718 437.872 43.3038 440.304L36.5198 447.984C34.3438 445.851 32.1038 444.272 29.7998 443.248C27.5384 442.224 25.1278 441.712 22.5678 441.712C20.6051 441.712 19.0478 442.075 17.8958 442.8C16.7438 443.525 16.1678 444.485 16.1678 445.68C16.1678 446.619 16.5304 447.387 17.2558 447.984C18.0238 448.581 19.2611 449.093 20.9678 449.52L29.7358 451.632C33.3624 452.485 36.1358 453.915 38.0558 455.92C39.9758 457.925 40.9358 460.4 40.9358 463.344C40.9358 465.648 40.4878 467.76 39.5918 469.68C38.6958 471.557 37.4371 473.157 35.8158 474.48C34.1944 475.803 32.2104 476.827 29.8638 477.552C27.5171 478.277 24.9358 478.64 22.1198 478.64C17.9384 478.64 14.0344 477.872 10.4078 476.336C6.78108 474.8 3.64508 472.603 0.99975 469.744ZM35.7768 478L63.1048 433.2H75.4568L83.9048 478H72.7688L70.9768 467.184H53.8248L47.5528 478H35.7768ZM58.8808 458.416H69.5688L67.2008 444.08L58.8808 458.416ZM83.2828 478L92.8188 433.2H103.571L96.0828 468.272H119.251L117.203 478H83.2828ZM119.505 478L129.041 433.2H163.665L161.617 442.736H137.745L136.017 450.8H151.761L149.841 460.016H134.097L132.305 468.464H156.433L154.385 478H119.505ZM156.577 469.744L163.617 462.192C166.049 464.709 168.46 466.565 170.849 467.76C173.281 468.912 175.863 469.488 178.593 469.488C180.812 469.488 182.561 469.083 183.841 468.272C185.121 467.461 185.761 466.331 185.761 464.88C185.761 463.899 185.335 463.088 184.481 462.448C183.671 461.808 182.284 461.232 180.321 460.72L170.977 458.288C167.905 457.477 165.537 456.091 163.873 454.128C162.252 452.165 161.441 449.776 161.441 446.96C161.441 442.523 163.02 439.024 166.177 436.464C169.377 433.861 173.687 432.56 179.105 432.56C182.817 432.56 186.423 433.243 189.921 434.608C193.463 435.973 196.449 437.872 198.881 440.304L192.097 447.984C189.921 445.851 187.681 444.272 185.377 443.248C183.116 442.224 180.705 441.712 178.145 441.712C176.183 441.712 174.625 442.075 173.473 442.8C172.321 443.525 171.745 444.485 171.745 445.68C171.745 446.619 172.108 447.387 172.833 447.984C173.601 448.581 174.839 449.093 176.545 449.52L185.313 451.632C188.94 452.485 191.713 453.915 193.633 455.92C195.553 457.925 196.513 460.4 196.513 463.344C196.513 465.648 196.065 467.76 195.169 469.68C194.273 471.557 193.015 473.157 191.393 474.48C189.772 475.803 187.788 476.827 185.441 477.552C183.095 478.277 180.513 478.64 177.697 478.64C173.516 478.64 169.612 477.872 165.985 476.336C162.359 474.8 159.223 472.603 156.577 469.744Z" fill="#242424"/>
<path d="M0.99975 539.744L8.03975 532.192C10.4718 534.709 12.8824 536.565 15.2718 537.76C17.7038 538.912 20.2851 539.488 23.0158 539.488C25.2344 539.488 26.9838 539.083 28.2638 538.272C29.5438 537.461 30.1838 536.331 30.1838 534.88C30.1838 533.899 29.7571 533.088 28.9038 532.448C28.0931 531.808 26.7064 531.232 24.7438 530.72L15.3998 528.288C12.3278 527.477 9.95975 526.091 8.29575 524.128C6.67442 522.165 5.86375 519.776 5.86375 516.96C5.86375 512.523 7.44242 509.024 10.5998 506.464C13.7998 503.861 18.1091 502.56 23.5278 502.56C27.2398 502.56 30.8451 503.243 34.3438 504.608C37.8851 505.973 40.8718 507.872 43.3038 510.304L36.5198 517.984C34.3438 515.851 32.1038 514.272 29.7998 513.248C27.5384 512.224 25.1278 511.712 22.5678 511.712C20.6051 511.712 19.0478 512.075 17.8958 512.8C16.7438 513.525 16.1678 514.485 16.1678 515.68C16.1678 516.619 16.5304 517.387 17.2558 517.984C18.0238 518.581 19.2611 519.093 20.9678 519.52L29.7358 521.632C33.3624 522.485 36.1358 523.915 38.0558 525.92C39.9758 527.925 40.9358 530.4 40.9358 533.344C40.9358 535.648 40.4878 537.76 39.5918 539.68C38.6958 541.557 37.4371 543.157 35.8158 544.48C34.1944 545.803 32.2104 546.827 29.8638 547.552C27.5171 548.277 24.9358 548.64 22.1198 548.64C17.9384 548.64 14.0344 547.872 10.4078 546.336C6.78108 544.8 3.64508 542.603 0.99975 539.744ZM35.7768 548L63.1048 503.2H75.4568L83.9048 548H72.7688L70.9768 537.184H53.8248L47.5528 548H35.7768ZM58.8808 528.416H69.5688L67.2008 514.08L58.8808 528.416ZM83.2828 548L92.8188 503.2H103.571L96.0828 538.272H119.251L117.203 548H83.2828ZM119.505 548L129.041 503.2H163.665L161.617 512.736H137.745L136.017 520.8H151.761L149.841 530.016H134.097L132.305 538.464H156.433L154.385 548H119.505ZM156.577 539.744L163.617 532.192C166.049 534.709 168.46 536.565 170.849 537.76C173.281 538.912 175.863 539.488 178.593 539.488C180.812 539.488 182.561 539.083 183.841 538.272C185.121 537.461 185.761 536.331 185.761 534.88C185.761 533.899 185.335 533.088 184.481 532.448C183.671 531.808 182.284 531.232 180.321 530.72L170.977 528.288C167.905 527.477 165.537 526.091 163.873 524.128C162.252 522.165 161.441 519.776 161.441 516.96C161.441 512.523 163.02 509.024 166.177 506.464C169.377 503.861 173.687 502.56 179.105 502.56C182.817 502.56 186.423 503.243 189.921 504.608C193.463 505.973 196.449 507.872 198.881 510.304L192.097 517.984C189.921 515.851 187.681 514.272 185.377 513.248C183.116 512.224 180.705 511.712 178.145 511.712C176.183 511.712 174.625 512.075 173.473 512.8C172.321 513.525 171.745 514.485 171.745 515.68C171.745 516.619 172.108 517.387 172.833 517.984C173.601 518.581 174.839 519.093 176.545 519.52L185.313 521.632C188.94 522.485 191.713 523.915 193.633 525.92C195.553 527.925 196.513 530.4 196.513 533.344C196.513 535.648 196.065 537.76 195.169 539.68C194.273 541.557 193.015 543.157 191.393 544.48C189.772 545.803 187.788 546.827 185.441 547.552C183.095 548.277 180.513 548.64 177.697 548.64C173.516 548.64 169.612 547.872 165.985 546.336C162.359 544.8 159.223 542.603 156.577 539.744Z" fill="#242424"/>
</g>
</svg>
