<svg>
    <symbol id="logo" xmlns="http://www.w3.org/2000/svg" viewBox="0 0 187 66" fill="currentColor">
        <path d="M88.7679 24.1545C88.7679 26.7638 88.0284 28.8513 86.5494 30.4168C85.0891 31.9638 83.1234 32.7372 80.6521 32.7372C78.1622 32.7372 76.1871 31.9638 74.7268 30.4168C73.2665 28.8699 72.5364 26.7825 72.5364 24.1545V12.8601H74.6987V24.1545C74.6987 26.1488 75.2416 27.7516 76.3275 28.9631C77.4133 30.1559 78.8549 30.7523 80.6521 30.7523C82.4494 30.7523 83.891 30.1559 84.9768 28.9631C86.0626 27.7516 86.6056 26.1488 86.6056 24.1545V12.8601H88.7679V24.1545Z" fill="currentColor"/>
        <path d="M89.9118 32.4297L98.0837 12.8601H100.695L108.755 32.4297H106.396L103.925 26.2793H94.6577L92.1584 32.4297H89.9118ZM95.4159 24.4341H103.167L99.3194 14.8729L95.4159 24.4341Z" fill="currentColor"/>
        <path d="M85.5407 61.782C86.9785 61.782 88.3564 61.4957 89.6744 60.9231C90.9924 60.3267 92.1067 59.4917 93.0173 58.4182L95.4975 60.9231C94.2754 62.2591 92.7657 63.3207 90.9684 64.108C89.1951 64.8714 87.3499 65.2531 85.4328 65.2531C83.5877 65.2531 81.8503 64.9191 80.2208 64.2511C78.6152 63.5831 77.2254 62.6766 76.0511 61.5315C74.8769 60.3625 73.9424 58.9908 73.2474 57.4162C72.5764 55.8179 72.2409 54.1241 72.2409 52.3348C72.2409 50.5218 72.5764 48.828 73.2474 47.2534C73.9424 45.6789 74.8769 44.3191 76.0511 43.174C77.2254 42.0051 78.6152 41.0866 80.2208 40.4186C81.8503 39.7506 83.5877 39.4166 85.4328 39.4166C87.3979 39.4166 89.279 39.8103 91.0763 40.5975C92.8975 41.3609 94.3952 42.4106 95.5694 43.7466L93.0532 46.323C92.0947 45.2257 90.9445 44.3788 89.6025 43.7823C88.2606 43.1859 86.8707 42.8877 85.4328 42.8877C84.1149 42.8877 82.8807 43.1263 81.7305 43.6034C80.5802 44.0806 79.5858 44.7485 78.747 45.6074C77.9323 46.4423 77.2853 47.4443 76.806 48.6133C76.3267 49.7584 76.0871 50.9989 76.0871 52.3348C76.0871 53.6708 76.3267 54.9233 76.806 56.0922C77.2853 57.2373 77.9443 58.2274 78.783 59.0623C79.6217 59.8973 80.6162 60.5653 81.7664 61.0663C82.9407 61.5434 84.1987 61.782 85.5407 61.782Z" fill="currentColor"/>
        <path d="M106.343 65.1815C104.354 65.1815 102.737 64.6686 101.491 63.6428C100.244 62.6169 99.6214 61.281 99.6214 59.6349C99.6214 57.9172 100.28 56.5693 101.598 55.5912C102.916 54.5893 104.726 54.0883 107.026 54.0883C107.913 54.0883 108.775 54.1837 109.614 54.3746C110.453 54.5416 111.256 54.7801 112.022 55.0903V53.1579C112.022 51.8696 111.639 50.9035 110.872 50.2593C110.105 49.6152 109.003 49.2932 107.565 49.2932C106.727 49.2932 105.852 49.4244 104.941 49.6868C104.031 49.9254 103.012 50.3071 101.886 50.8319L100.556 48.1481C101.922 47.5039 103.216 47.0387 104.438 46.7525C105.66 46.4423 106.87 46.2873 108.069 46.2873C110.441 46.2873 112.274 46.8598 113.568 48.0049C114.886 49.1262 115.545 50.7245 115.545 52.8V64.8594H112.022V63.2849C111.208 63.929 110.333 64.4062 109.398 64.7163C108.464 65.0264 107.445 65.1815 106.343 65.1815ZM103.072 59.5633C103.072 60.446 103.444 61.1617 104.186 61.7104C104.953 62.2591 105.948 62.5334 107.17 62.5334C108.128 62.5334 109.015 62.3903 109.83 62.104C110.645 61.8177 111.375 61.3883 112.022 60.8158V57.6667C111.328 57.285 110.597 57.0107 109.83 56.8437C109.063 56.6528 108.224 56.5574 107.314 56.5574C106.02 56.5574 104.989 56.8318 104.222 57.3805C103.456 57.9292 103.072 58.6568 103.072 59.5633Z" fill="currentColor"/>
        <path d="M119.759 62.4977L121.7 60.1359C122.658 60.8754 123.629 61.448 124.611 61.8535C125.618 62.2352 126.636 62.4261 127.667 62.4261C128.961 62.4261 130.015 62.1756 130.83 61.6746C131.645 61.1736 132.052 60.5176 132.052 59.7065C132.052 59.0623 131.813 58.5494 131.333 58.1677C130.854 57.786 130.111 57.5236 129.105 57.3805L125.798 56.9153C124 56.6528 122.634 56.1042 121.7 55.2692C120.789 54.4104 120.334 53.2772 120.334 51.8696C120.334 50.2236 120.993 48.8995 122.311 47.8976C123.629 46.8717 125.354 46.3588 127.487 46.3588C128.829 46.3588 130.099 46.5497 131.297 46.9314C132.519 47.3131 133.706 47.8976 134.856 48.6848L133.023 51.0466C132.016 50.3786 131.034 49.9015 130.075 49.6152C129.141 49.3051 128.194 49.15 127.235 49.15C126.133 49.15 125.247 49.3767 124.576 49.8299C123.905 50.2832 123.569 50.8796 123.569 51.6192C123.569 52.2871 123.797 52.8 124.252 53.1579C124.731 53.4919 125.51 53.7424 126.588 53.9094L129.895 54.3746C131.693 54.637 133.059 55.1976 133.993 56.0564C134.952 56.9153 135.431 58.0484 135.431 59.456C135.431 60.2671 135.227 61.0305 134.82 61.7462C134.437 62.438 133.897 63.0344 133.202 63.5354C132.531 64.0364 131.729 64.4419 130.794 64.7521C129.859 65.0384 128.853 65.1815 127.775 65.1815C126.193 65.1815 124.707 64.9548 123.317 64.5016C121.952 64.0483 120.765 63.3803 119.759 62.4977Z" fill="currentColor"/>
        <path d="M143.513 46.6451V57.452C143.513 58.8834 143.92 60.0166 144.735 60.8516C145.574 61.6865 146.676 62.104 148.042 62.104C149.001 62.104 149.863 61.9012 150.63 61.4957C151.397 61.0663 152.032 60.4699 152.535 59.7065V46.6451H156.13V64.8594H152.535V63.0344C151.816 63.7501 150.99 64.2988 150.055 64.6805C149.144 65.0384 148.138 65.2173 147.036 65.2173C144.951 65.2173 143.237 64.5493 141.896 63.2133C140.578 61.8774 139.919 60.1597 139.919 58.0604V46.6451H143.513Z" fill="currentColor"/>
        <path d="M167.97 65.1815C165.981 65.1815 164.363 64.6686 163.117 63.6428C161.871 62.6169 161.248 61.281 161.248 59.6349C161.248 57.9172 161.907 56.5693 163.225 55.5912C164.543 54.5893 166.352 54.0883 168.653 54.0883C169.539 54.0883 170.402 54.1837 171.241 54.3746C172.079 54.5416 172.882 54.7801 173.649 55.0903V53.1579C173.649 51.8696 173.266 50.9035 172.499 50.2593C171.732 49.6152 170.63 49.2932 169.192 49.2932C168.353 49.2932 167.478 49.4244 166.568 49.6868C165.657 49.9254 164.639 50.3071 163.512 50.8319L162.182 48.1481C163.548 47.5039 164.842 47.0387 166.064 46.7525C167.287 46.4423 168.497 46.2873 169.695 46.2873C172.067 46.2873 173.901 46.8598 175.195 48.0049C176.513 49.1262 177.172 50.7245 177.172 52.8V64.8594H173.649V63.2849C172.834 63.929 171.96 64.4062 171.025 64.7163C170.09 65.0264 169.072 65.1815 167.97 65.1815ZM164.699 59.5633C164.699 60.446 165.07 61.1617 165.813 61.7104C166.58 62.2591 167.574 62.5334 168.796 62.5334C169.755 62.5334 170.642 62.3903 171.456 62.104C172.271 61.8177 173.002 61.3883 173.649 60.8158V57.6667C172.954 57.285 172.223 57.0107 171.456 56.8437C170.689 56.6528 169.851 56.5574 168.94 56.5574C167.646 56.5574 166.616 56.8318 165.849 57.3805C165.082 57.9292 164.699 58.6568 164.699 59.5633Z" fill="currentColor"/>
        <path d="M186.705 39.023V64.8594H183.111V39.8103L186.705 39.023Z" fill="currentColor"/>
        <path d="M56.8928 11.1956C56.1757 7.86595 53.246 5.44001 49.8561 5.27437C44.9077 1.82732 39.1115 0 33.0637 0H32.2265C26.1796 0 20.3835 1.82732 15.434 5.27332C12.0441 5.43897 9.11444 7.8649 8.39729 11.1945L0.075822 49.8586C0.025274 50.0913 0 50.3325 0 50.5725C0 52.1409 1.06783 53.5027 2.5969 53.8822L10.2528 55.7882L13.6174 41.9119C13.6606 42.9813 13.6901 44.0412 13.6901 45.079C13.6901 45.8622 13.2783 47.1831 12.8434 48.5817C12.2526 50.4771 11.5839 52.6242 11.5839 54.5144C11.5839 57.4174 13.7627 59.4911 14.7442 60.2784V64.9992H50.549V60.2784C51.5305 59.49 53.7083 57.4163 53.7083 54.5155C53.7083 52.6252 53.0385 50.4771 52.4488 48.5827C52.0128 47.1842 51.6011 45.8632 51.6011 45.0801C51.6011 44.0412 51.6306 42.9802 51.6737 41.9098L55.0383 55.7892L62.6943 53.8833C64.2233 53.5027 65.2912 52.1409 65.2912 50.5725C65.2912 50.3325 65.2659 50.0913 65.2153 49.8565L56.8928 11.1956ZM25.5194 15.8902C21.8999 13.7138 18.9671 10.4963 17.1431 6.66137C17.9688 6.11307 18.8154 5.60566 19.6863 5.15381C20.8342 8.72772 23.1826 12.6025 25.5194 15.8902ZM24.0377 9.67021C26.6904 8.8357 29.4368 8.38699 32.2275 8.38699H33.0647C35.8575 8.38699 38.6018 8.8357 41.2535 9.66916C38.4133 14.6993 34.3337 19.5616 32.6456 21.4875C30.9575 19.5627 26.8778 14.7014 24.0377 9.67021ZM45.6048 5.15381C46.4757 5.60566 47.3224 6.11307 48.148 6.66137C46.3241 10.4963 43.3912 13.7148 39.7718 15.8902C42.1086 12.6025 44.4559 8.72876 45.6048 5.15381ZM33.0637 2.09675C36.7537 2.09675 40.3415 2.83795 43.6756 4.24696C43.3291 5.39284 42.8394 6.58274 42.2465 7.78628C39.28 6.81024 36.1997 6.29025 33.0637 6.29025H32.2265C29.0935 6.29025 26.0122 6.81024 23.0425 7.78628C22.4507 6.58274 21.962 5.39284 21.6145 4.24696C24.9486 2.83795 28.5365 2.09675 32.2275 2.09675H33.0637ZM48.4418 62.9025H16.8493V60.8057H48.4418V62.9025ZM45.2826 58.709H20.0086V51.2833C22.6508 50.8399 24.7411 48.7588 25.1866 46.1285H40.1046C40.55 48.7588 42.6404 50.8399 45.2826 51.2833V58.709ZM62.1846 51.8495L56.5885 53.2417L49.4654 23.8662L47.4193 24.3579L50.0709 35.2946C49.6897 38.6494 49.4949 41.9413 49.4949 45.0801C49.4949 46.1819 49.9309 47.5826 50.4364 49.2034C50.9819 50.9552 51.6011 52.9429 51.6011 54.5155C51.6011 56.5975 49.8014 58.1963 49.1474 58.709H47.3887V49.2736H46.3357C44.0126 49.2736 42.1233 47.3928 42.1233 45.0801V44.0317H23.1678V45.0801C23.1678 47.3928 21.2786 49.2736 18.9555 49.2736H17.9024V58.709H16.1427C15.4856 58.1942 13.689 56.5954 13.689 54.5155C13.689 52.9429 14.3082 50.9552 14.8537 49.2034C15.3582 47.5826 15.7952 46.1819 15.7952 45.0801C15.7952 41.9423 15.6004 38.6525 15.2202 35.2977L17.8729 24.3579L15.8268 23.8662L8.70373 53.2417L3.1066 51.8495C2.51792 51.7016 2.10617 51.1774 2.10617 50.5725C2.10617 50.4792 2.1167 50.3859 2.1346 50.2968L10.4561 11.6349C10.9457 9.36303 12.8581 7.65942 15.1318 7.37846C17.7255 12.9621 22.4875 17.359 28.2679 19.5375C28.3237 19.6077 28.3774 19.6738 28.4322 19.7419V33.3499H30.5384V22.2748C31.285 23.1397 31.7831 23.6807 31.8716 23.775L32.6456 24.6106L33.4185 23.7761C33.5059 23.6817 34.0041 23.1408 34.7517 22.2759V39.5782H36.8579V19.743C36.9137 19.6727 36.9685 19.6067 37.0243 19.5354C42.8026 17.3579 47.5636 12.9621 50.1573 7.37951C52.4309 7.66047 54.3444 9.36408 54.833 11.6359L63.1545 50.2968C63.1745 50.387 63.185 50.4792 63.185 50.5725C63.185 51.1774 62.7732 51.7016 62.1846 51.8495Z" fill="currentColor"/>
    </symbol>

    <symbol id="icon-user" xmlns="http://www.w3.org/2000/svg" viewBox="0 0 23 25" fill="currentColor">
        <path d="M11.0663 10.7143C12.1259 10.7143 13.1616 10.4001 14.0426 9.81145C14.9236 9.22279 15.6102 8.38612 16.0157 7.40723C16.4211 6.42834 16.5272 5.3512 16.3205 4.31202C16.1138 3.27283 15.6036 2.31828 14.8544 1.56907C14.1052 0.819863 13.1506 0.309645 12.1114 0.102938C11.0723 -0.103768 9.99511 0.00232118 9.01622 0.407791C8.03733 0.81326 7.20066 1.4999 6.61201 2.38088C6.02336 3.26185 5.70917 4.2976 5.70917 5.35714C5.70917 6.77795 6.27358 8.14056 7.27824 9.14522C8.2829 10.1499 9.64551 10.7143 11.0663 10.7143ZM11.0663 1.53061C11.8231 1.53061 12.5629 1.75504 13.1922 2.1755C13.8215 2.59597 14.3119 3.19359 14.6016 3.89279C14.8912 4.592 14.967 5.36139 14.8193 6.10366C14.6717 6.84594 14.3072 7.52776 13.7721 8.06291C13.2369 8.59806 12.5551 8.9625 11.8128 9.11015C11.0706 9.2578 10.3012 9.18202 9.60196 8.8924C8.90275 8.60278 8.30513 8.11232 7.88467 7.48305C7.4642 6.85378 7.23978 6.11396 7.23978 5.35714C7.23978 4.34229 7.64293 3.36899 8.36054 2.65138C9.07816 1.93377 10.0514 1.53061 11.0663 1.53061Z" fill="black"/>
        <path d="M21.6914 17.5129C20.3257 16.0424 18.6798 14.8711 16.8546 14.0706C15.0293 13.27 13.0629 12.8572 11.0757 12.8572C9.08842 12.8572 7.12206 13.27 5.29678 14.0706C3.47151 14.8711 1.82567 16.0424 0.459891 17.5129C0.163784 17.8351 -0.000670171 18.2601 2.05273e-06 18.7015V23.2649C2.05273e-06 23.7251 0.179456 24.1664 0.498885 24.4918C0.818314 24.8172 1.25155 25 1.7033 25H20.4395C20.8913 25 21.3245 24.8172 21.6439 24.4918C21.9634 24.1664 22.1428 23.7251 22.1428 23.2649V18.7015C22.1458 18.2613 21.9844 17.8364 21.6914 17.5129ZM20.6788 23.5715H1.39304V18.5715C2.60002 17.2768 3.95518 15.766 5.67875 15.3572C7.28928 14.6527 9.32294 14.3243 11.0757 14.3243C12.8284 14.3243 14.7825 14.6527 16.393 15.3572C18.0036 16.0617 19.4718 17.2768 20.6788 18.5715V21.0715V23.5715Z" fill="black"/>
    </symbol>

    <symbol id="icon-cart" xmlns="http://www.w3.org/2000/svg" viewBox="0 0 19 25" fill="currentColor">
        <path fill-rule="evenodd" clip-rule="evenodd" d="M17.6429 6.58484H1.35714V21.6518C1.35714 22.0958 1.50013 22.5216 1.75464 22.8356C2.00915 23.1495 2.35435 23.3259 2.71429 23.3259H16.2857C16.6457 23.3259 16.9908 23.1495 17.2454 22.8356C17.4999 22.5216 17.6429 22.0958 17.6429 21.6518V6.58484ZM0 4.91074V21.6518C0 22.5398 0.285969 23.3914 0.794996 24.0194C1.30402 24.6473 1.99441 25 2.71429 25H16.2857C17.0056 25 17.696 24.6473 18.205 24.0194C18.714 23.3914 19 22.5398 19 21.6518V4.91074H0Z" fill="black"/>
        <path d="M9.1464 1.43495C8.21353 1.43495 7.31887 1.8129 6.65923 2.48567C5.99959 3.15843 5.629 4.07089 5.629 5.02232H4.22205C4.22205 3.69032 4.74086 2.41287 5.66436 1.471C6.58785 0.529136 7.84038 0 9.1464 0C10.4524 0 11.705 0.529136 12.6284 1.471C13.5519 2.41287 14.0708 3.69032 14.0708 5.02232H12.6638C12.6638 4.07089 12.2932 3.15843 11.6336 2.48567C10.9739 1.8129 10.0793 1.43495 9.1464 1.43495Z" fill="black"/>
    </symbol>

    <symbol id="icon-click" xmlns="http://www.w3.org/2000/svg" viewBox="0 0 15 21" fill="currentColor">
        <path d="M14.8692 10.0989C13.8853 9.02611 12.5734 8.2921 11.2068 8.00979C10.6055 7.8404 10.0042 7.72748 9.40287 7.67102C10.9334 5.80777 10.6601 2.98466 8.85623 1.40372C7.05233 -0.17722 4.31916 0.105091 2.78857 1.96834C1.25799 3.83159 1.53131 6.6547 3.33521 8.23564C3.66319 8.51795 3.99117 8.7438 4.31916 8.85672V10.0989L3.44454 9.25196C2.67925 8.46149 1.42198 8.46149 0.602031 9.25196C-0.163259 10.0424 -0.217923 11.2846 0.547367 12.0751L3.06189 15.124C3.17122 15.9145 3.44454 16.6485 3.82718 17.326C4.1005 17.8342 4.48315 18.3424 4.86579 18.7376V19.8104C4.86579 20.1492 5.08445 20.375 5.41243 20.375H12.8467C13.12 20.375 13.3933 20.0927 13.3933 19.8104V18.3424C14.4319 17.0437 14.9786 15.4063 14.9786 13.7689V10.4941C15.0332 10.2683 14.9786 10.1554 14.8692 10.0989ZM2.84324 4.79145C2.84324 2.9282 4.31916 1.46018 6.12305 1.51664C7.92695 1.51664 9.34821 3.04112 9.29354 4.90437C9.29354 5.92069 8.85623 6.82409 8.09094 7.44517V4.62206C8.06303 4.13275 7.85496 3.67299 7.50939 3.33705C7.16382 3.00111 6.70693 2.81442 6.23238 2.81527C5.24844 2.75881 4.37382 3.60574 4.37382 4.62206V7.55809C3.44454 6.99347 2.8979 5.92069 2.84324 4.79145ZM13.9399 13.7125C13.9946 15.1805 13.5026 16.592 12.5734 17.7213C12.464 17.8342 12.3547 17.9471 12.3547 18.1165V19.3022H6.01373V18.5117C6.01373 18.3424 5.9044 18.173 5.79507 18.0601C5.41243 17.7213 5.08445 17.326 4.81113 16.8179C4.48315 16.2533 4.26449 15.5757 4.15516 14.8982C4.15516 14.7852 4.1005 14.6723 4.04584 14.5594L1.42198 11.3411C1.25799 11.1717 1.14867 10.9458 1.14867 10.6635C1.14867 10.4377 1.25799 10.1554 1.42198 9.98597C1.80463 9.64719 2.35127 9.64719 2.73391 9.98597L4.31916 11.6234V13.3172L5.35776 12.7526V4.62206C5.41243 4.22683 5.74041 3.88805 6.17772 3.94452C6.56036 3.94452 6.94301 4.22683 6.94301 4.62206V11.1152L8.03628 11.3411V8.7438C8.09094 8.68734 8.14561 8.68734 8.20027 8.63087C8.58292 8.63087 8.96556 8.68734 9.3482 8.7438V11.6234L10.2228 11.7928V8.85672L10.8788 9.02611C11.1521 9.08257 11.4254 9.1955 11.6987 9.30842V12.1315L12.5734 12.3009V9.70366C13.0653 9.9295 13.5026 10.2683 13.8853 10.6635L13.9399 13.7125Z" fill="#242424"/>
    </symbol>

    <symbol id="icon-search" xmlns="http://www.w3.org/2000/svg" viewBox="0 0 26 25" fill="currentColor">
        <path d="M9.63032 1.51863C11.235 1.51716 12.804 1.99166 14.139 2.88209C15.4739 3.77252 16.5147 5.03888 17.1298 6.52097C17.7449 8.00306 17.9066 9.63428 17.5945 11.2083C17.2823 12.7823 16.5103 14.2283 15.3762 15.3635C14.242 16.4987 12.7967 17.272 11.223 17.5856C9.64925 17.8992 8.01789 17.739 6.53524 17.1253C5.05259 16.5115 3.78527 15.4718 2.89362 14.1377C2.00197 12.8036 1.52604 11.235 1.52604 9.63032C1.53577 7.48324 2.3925 5.42677 3.91003 3.90785C5.42757 2.38893 7.48326 1.53032 9.63032 1.51863ZM9.63032 0C7.72563 0 5.8637 0.564808 4.28 1.623C2.69631 2.68119 1.46196 4.18525 0.733069 5.94496C0.0041728 7.70467 -0.18654 9.641 0.185048 11.5091C0.556636 13.3772 1.47384 15.0932 2.82066 16.44C4.16748 17.7868 5.88344 18.704 7.75154 19.0756C9.61964 19.4472 11.556 19.2565 13.3157 18.5276C15.0754 17.7987 16.5794 16.5643 17.6376 14.9806C18.6958 13.3969 19.2606 11.535 19.2606 9.63032C19.2606 7.0762 18.246 4.62669 16.44 2.82066C14.634 1.01462 12.1844 0 9.63032 0Z" fill="white"/>
        <path d="M24.7385 23.3369L18.3121 16.4298L17.0961 17.7626L23.5225 24.6698C23.6032 24.7565 23.6989 24.8253 23.804 24.872C23.9092 24.9187 24.0217 24.9424 24.1353 24.9419C24.2488 24.9414 24.3611 24.9166 24.4658 24.869C24.5705 24.8213 24.6654 24.7518 24.7453 24.6643C24.8251 24.5768 24.8883 24.473 24.9312 24.3589C24.974 24.2449 24.9958 24.1227 24.9951 23.9995C24.9945 23.8762 24.9715 23.7543 24.9275 23.6406C24.8835 23.5269 24.8193 23.4237 24.7385 23.3369Z" fill="white"/>
    </symbol>

    <symbol id="icon-slider-arrow" xmlns="http://www.w3.org/2000/svg" viewBox="0 0 24 25" fill="currentColor">
        <path d="M1.01246 12.9472C0.643938 12.763 0.643935 12.237 1.01246 12.0528L22.4672 1.32544C22.8327 1.14269 23.2511 1.45177 23.184 1.85485L21.4509 12.2534C21.4237 12.4167 21.4237 12.5833 21.4509 12.7466L23.184 23.1451C23.2511 23.5482 22.8327 23.8573 22.4672 23.6746L1.01246 12.9472Z" stroke="#242424"/>
    </symbol>

    <symbol id="icon-menu-arrow" xmlns="http://www.w3.org/2000/svg" viewBox="0 0 10 8" fill="currentColor">
        <path d="M5.424 6.3782C5.22817 6.69154 4.77184 6.69154 4.576 6.3782L1.38025 1.265C1.17211 0.931975 1.41153 0.5 1.80425 0.5L8.19575 0.5C8.58847 0.5 8.82789 0.931975 8.61975 1.265L5.424 6.3782Z" stroke="#242424"/>
    </symbol>
</svg>
