<svg width="25" height="25" viewBox="0 0 25 25" fill="none" xmlns="http://www.w3.org/2000/svg">
<path d="M12.5 25C19.3927 25 25 19.3927 25 12.5C25 5.60729 19.3927 0 12.5 0C5.60729 0 0 5.60729 0 12.5C0 19.3927 5.60729 25 12.5 25ZM12.5 1.5625C18.5312 1.5625 23.4375 6.46875 23.4375 12.5C23.4375 18.5312 18.5312 23.4375 12.5 23.4375C6.46875 23.4375 1.5625 18.5312 1.5625 12.5C1.5625 6.46875 6.46875 1.5625 12.5 1.5625Z" fill="white"/>
<path d="M8.22499 14.745L9.85833 14.0356L9.39999 14.495C9.25312 14.6418 9.17083 14.8408 9.17083 15.047V18.1043C9.17083 18.8043 10.0167 19.1439 10.5042 18.6564L12.1437 17.0168L15.7167 18.8033C16.1792 19.0345 16.7385 18.7606 16.8344 18.2439L18.8729 7.03454C18.9802 6.43142 18.3865 5.94392 17.8187 6.16684L4.57291 11.3512C3.97916 11.5825 3.89999 12.395 4.43749 12.7377L7.49374 14.6877C7.71249 14.8273 7.98854 14.8491 8.22499 14.745ZM17.0854 8.1335L15.4844 16.9408L12.3385 15.3689C12.0344 15.2168 11.6719 15.2804 11.4375 15.5158L10.7333 16.22V15.3731L13.8656 12.2408C14.4729 11.6335 13.7896 10.6314 13.0021 10.972L7.98437 13.1491L6.57395 12.2491L17.0854 8.1335Z" fill="white"/>
</svg>
