<svg width="93" height="30" viewBox="0 0 93 30" fill="none" xmlns="http://www.w3.org/2000/svg">
<path d="M48.0463 9.59085C47.9933 13.7698 51.7705 16.1019 54.616 17.4884C57.5395 18.9111 58.5215 19.8233 58.5103 21.0954C58.488 23.0426 56.1782 23.9018 54.0162 23.9353C50.2446 23.9939 48.0519 22.9171 46.3083 22.1025L44.9498 28.4601C46.6989 29.2663 49.9377 29.9693 53.2964 30C61.18 30 66.3381 26.1084 66.366 20.0744C66.3967 12.4168 55.7737 11.9927 55.8462 8.56984C55.8713 7.53208 56.8616 6.42459 59.032 6.14283C60.106 6.00056 63.0714 5.89176 66.433 7.44002L67.7525 1.28882C65.9448 0.630465 63.621 1.90735e-06 60.7281 1.90735e-06C53.3076 1.90735e-06 48.0882 3.94458 48.0463 9.59085ZM80.4315 0.530035C78.992 0.530035 77.7785 1.36972 77.2373 2.65855L65.9754 29.5481H73.8535L75.4212 25.2157H85.0484L85.9578 29.5481H92.9012L86.8421 0.530035H80.4315ZM81.5334 8.36898L83.807 19.2654H77.5804L81.5334 8.36898ZM38.4945 0.530035L32.2847 29.5481H39.7917L45.9987 0.530035H38.4945ZM27.3889 0.530035L19.575 20.2808L16.4144 3.48708C16.0433 1.61242 14.5788 0.530035 12.9524 0.530035H0.178538L0 1.37251C2.62228 1.9416 5.60164 2.8594 7.40655 3.84136C8.51125 4.44114 8.82648 4.9656 9.18914 6.39111L15.1757 29.5481H23.1095L35.2725 0.530035H27.3889Z" fill="url(#paint0_linear)"/>
<defs>
<linearGradient id="paint0_linear" x1="42.7106" y1="30.6019" x2="43.5789" y2="-0.208624" gradientUnits="userSpaceOnUse">
<stop stop-color="#222357"/>
<stop offset="1" stop-color="#254AA5"/>
</linearGradient>
</defs>
</svg>
